<svg width="682" height="117" viewBox="0 0 682 117" fill="none" xmlns="http://www.w3.org/2000/svg">
<path d="M17.568 110C17.2053 109.04 16.864 108.101 16.544 107.184C16.224 106.245 15.8933 105.296 15.552 104.336H5.504L3.488 110H0.256C1.10933 107.653 1.90933 105.488 2.656 103.504C3.40267 101.499 4.128 99.6 4.832 97.808C5.55733 96.016 6.272 94.3093 6.976 92.688C7.68 91.0453 8.416 89.424 9.184 87.824H12.032C12.8 89.424 13.536 91.0453 14.24 92.688C14.944 94.3093 15.648 96.016 16.352 97.808C17.0773 99.6 17.8133 101.499 18.56 103.504C19.3067 105.488 20.1067 107.653 20.96 110H17.568ZM14.656 101.776C13.9733 99.92 13.2907 98.128 12.608 96.4C11.9467 94.6507 11.2533 92.976 10.528 91.376C9.78133 92.976 9.06667 94.6507 8.384 96.4C7.72267 98.128 7.06133 99.92 6.4 101.776H14.656ZM69.1228 98.896C69.1228 100.816 68.8241 102.491 68.2268 103.92C67.6294 105.328 66.7868 106.501 65.6988 107.44C64.6108 108.357 63.3094 109.051 61.7948 109.52C60.2801 109.968 58.6161 110.192 56.8028 110.192C55.9068 110.192 54.9148 110.149 53.8268 110.064C52.7601 110 51.7894 109.861 50.9148 109.648V88.144C51.7894 87.9307 52.7601 87.792 53.8268 87.728C54.9148 87.6427 55.9068 87.6 56.8028 87.6C58.6161 87.6 60.2801 87.8347 61.7948 88.304C63.3094 88.752 64.6108 89.4453 65.6988 90.384C66.7868 91.3013 67.6294 92.4747 68.2268 93.904C68.8241 95.312 69.1228 96.976 69.1228 98.896ZM57.0588 107.472C60.0028 107.472 62.2001 106.725 63.6508 105.232C65.1014 103.717 65.8268 101.605 65.8268 98.896C65.8268 96.1867 65.1014 94.0853 63.6508 92.592C62.2001 91.0773 60.0028 90.32 57.0588 90.32C56.1841 90.32 55.5014 90.3307 55.0108 90.352C54.5414 90.3733 54.2108 90.3947 54.0188 90.416V107.376C54.2108 107.397 54.5414 107.419 55.0108 107.44C55.5014 107.461 56.1841 107.472 57.0588 107.472ZM110.623 106.928C110.41 106.416 110.122 105.765 109.759 104.976C109.418 104.187 109.045 103.333 108.639 102.416C108.234 101.499 107.797 100.56 107.327 99.6C106.879 98.6187 106.453 97.7013 106.047 96.848C105.642 95.9733 105.258 95.1947 104.895 94.512C104.554 93.8293 104.277 93.3067 104.063 92.944C103.829 95.4613 103.637 98.192 103.487 101.136C103.338 104.059 103.21 107.013 103.103 110H100.063C100.149 108.08 100.245 106.149 100.351 104.208C100.458 102.245 100.575 100.325 100.703 98.448C100.853 96.5493 101.002 94.704 101.151 92.912C101.322 91.12 101.503 89.424 101.695 87.824H104.415C104.991 88.7627 105.61 89.872 106.271 91.152C106.933 92.432 107.594 93.776 108.255 95.184C108.917 96.5707 109.557 97.968 110.175 99.376C110.794 100.763 111.359 102.032 111.871 103.184C112.383 102.032 112.949 100.763 113.567 99.376C114.186 97.968 114.826 96.5707 115.487 95.184C116.149 93.776 116.81 92.432 117.471 91.152C118.133 89.872 118.751 88.7627 119.327 87.824H122.047C122.773 94.9707 123.317 102.363 123.679 110H120.639C120.533 107.013 120.405 104.059 120.255 101.136C120.106 98.192 119.914 95.4613 119.679 92.944C119.466 93.3067 119.178 93.8293 118.815 94.512C118.474 95.1947 118.101 95.9733 117.695 96.848C117.29 97.7013 116.853 98.6187 116.383 99.6C115.935 100.56 115.509 101.499 115.103 102.416C114.698 103.333 114.314 104.187 113.951 104.976C113.61 105.765 113.333 106.416 113.119 106.928H110.623ZM155.49 87.824H158.594V110H155.49V87.824ZM206.228 110C205.759 109.211 205.215 108.325 204.596 107.344C203.999 106.363 203.348 105.349 202.644 104.304C201.94 103.237 201.204 102.16 200.436 101.072C199.689 99.984 198.943 98.9387 198.196 97.936C197.449 96.912 196.724 95.952 196.02 95.056C195.316 94.16 194.665 93.3707 194.068 92.688V110H191.028V87.824H193.492C194.495 88.8907 195.561 90.1387 196.692 91.568C197.844 92.976 198.975 94.4373 200.084 95.952C201.215 97.4453 202.271 98.9173 203.252 100.368C204.255 101.819 205.097 103.109 205.78 104.24V87.824H208.82V110H206.228ZM293.812 98.896C293.812 100.816 293.513 102.491 292.916 103.92C292.318 105.328 291.476 106.501 290.388 107.44C289.3 108.357 287.998 109.051 286.484 109.52C284.969 109.968 283.305 110.192 281.492 110.192C280.596 110.192 279.604 110.149 278.516 110.064C277.449 110 276.478 109.861 275.604 109.648V88.144C276.478 87.9307 277.449 87.792 278.516 87.728C279.604 87.6427 280.596 87.6 281.492 87.6C283.305 87.6 284.969 87.8347 286.484 88.304C287.998 88.752 289.3 89.4453 290.388 90.384C291.476 91.3013 292.318 92.4747 292.916 93.904C293.513 95.312 293.812 96.976 293.812 98.896ZM281.748 107.472C284.692 107.472 286.889 106.725 288.34 105.232C289.79 103.717 290.516 101.605 290.516 98.896C290.516 96.1867 289.79 94.0853 288.34 92.592C286.889 91.0773 284.692 90.32 281.748 90.32C280.873 90.32 280.19 90.3307 279.7 90.352C279.23 90.3733 278.9 90.3947 278.708 90.416V107.376C278.9 107.397 279.23 107.419 279.7 107.44C280.19 107.461 280.873 107.472 281.748 107.472ZM339.582 110C339.22 109.04 338.878 108.101 338.558 107.184C338.238 106.245 337.908 105.296 337.566 104.336H327.518L325.502 110H322.27C323.124 107.653 323.924 105.488 324.67 103.504C325.417 101.499 326.142 99.6 326.846 97.808C327.572 96.016 328.286 94.3093 328.99 92.688C329.694 91.0453 330.43 89.424 331.198 87.824H334.046C334.814 89.424 335.55 91.0453 336.254 92.688C336.958 94.3093 337.662 96.016 338.366 97.808C339.092 99.6 339.828 101.499 340.574 103.504C341.321 105.488 342.121 107.653 342.974 110H339.582ZM336.67 101.776C335.988 99.92 335.305 98.128 334.622 96.4C333.961 94.6507 333.268 92.976 332.542 91.376C331.796 92.976 331.081 94.6507 330.398 96.4C329.737 98.128 329.076 99.92 328.414 101.776H336.67ZM378.581 107.792C381.824 107.792 383.445 106.683 383.445 104.464C383.445 103.781 383.296 103.205 382.997 102.736C382.72 102.245 382.336 101.829 381.845 101.488C381.354 101.125 380.789 100.816 380.149 100.56C379.53 100.304 378.869 100.048 378.165 99.792C377.354 99.5147 376.586 99.2053 375.861 98.864C375.136 98.5013 374.506 98.0853 373.973 97.616C373.44 97.1253 373.013 96.5493 372.693 95.888C372.394 95.2267 372.245 94.4267 372.245 93.488C372.245 91.5467 372.906 90.032 374.229 88.944C375.552 87.856 377.376 87.312 379.701 87.312C381.045 87.312 382.261 87.4613 383.349 87.76C384.458 88.0373 385.269 88.3467 385.781 88.688L384.789 91.216C384.341 90.9387 383.669 90.672 382.773 90.416C381.898 90.1387 380.874 90 379.701 90C379.104 90 378.549 90.064 378.037 90.192C377.525 90.32 377.077 90.512 376.693 90.768C376.309 91.024 376 91.3547 375.765 91.76C375.552 92.144 375.445 92.6027 375.445 93.136C375.445 93.7333 375.562 94.2347 375.797 94.64C376.032 95.0453 376.362 95.408 376.789 95.728C377.216 96.0267 377.706 96.304 378.261 96.56C378.837 96.816 379.466 97.072 380.149 97.328C381.109 97.712 381.984 98.096 382.773 98.48C383.584 98.864 384.277 99.3227 384.853 99.856C385.45 100.389 385.909 101.029 386.229 101.776C386.549 102.501 386.709 103.387 386.709 104.432C386.709 106.373 385.994 107.867 384.565 108.912C383.157 109.957 381.162 110.48 378.581 110.48C377.706 110.48 376.896 110.416 376.149 110.288C375.424 110.181 374.773 110.053 374.197 109.904C373.621 109.733 373.12 109.563 372.693 109.392C372.288 109.2 371.968 109.04 371.733 108.912L372.661 106.352C373.152 106.629 373.898 106.939 374.901 107.28C375.904 107.621 377.13 107.792 378.581 107.792ZM431.356 87.824H434.46V110H431.356V99.76H420.508V110H417.404V87.824H420.508V97.072H431.356V87.824ZM472.895 110.192C472.447 110.192 471.956 110.181 471.423 110.16C470.911 110.139 470.388 110.107 469.855 110.064C469.343 110.021 468.831 109.968 468.319 109.904C467.807 109.84 467.337 109.755 466.911 109.648V88.144C467.337 88.0373 467.807 87.952 468.319 87.888C468.831 87.824 469.343 87.7707 469.855 87.728C470.388 87.6853 470.911 87.6533 471.423 87.632C471.935 87.6107 472.415 87.6 472.863 87.6C474.143 87.6 475.337 87.696 476.447 87.888C477.577 88.08 478.548 88.4107 479.359 88.88C480.191 89.328 480.841 89.9253 481.311 90.672C481.78 91.4187 482.015 92.336 482.015 93.424C482.015 94.64 481.727 95.6427 481.151 96.432C480.575 97.2 479.807 97.776 478.847 98.16C480.148 98.544 481.183 99.152 481.951 99.984C482.719 100.816 483.103 101.989 483.103 103.504C483.103 105.723 482.281 107.397 480.639 108.528C479.017 109.637 476.436 110.192 472.895 110.192ZM469.983 99.664V107.472C470.217 107.493 470.495 107.515 470.815 107.536C471.092 107.557 471.412 107.579 471.775 107.6C472.159 107.6 472.596 107.6 473.087 107.6C474.004 107.6 474.868 107.547 475.679 107.44C476.511 107.312 477.236 107.099 477.855 106.8C478.473 106.501 478.964 106.085 479.327 105.552C479.711 105.019 479.903 104.347 479.903 103.536C479.903 102.811 479.764 102.203 479.487 101.712C479.209 101.2 478.804 100.795 478.271 100.496C477.759 100.197 477.14 99.984 476.415 99.856C475.689 99.728 474.879 99.664 473.983 99.664H469.983ZM469.983 97.168H473.247C474.015 97.168 474.74 97.1147 475.423 97.008C476.105 96.9013 476.692 96.7093 477.183 96.432C477.695 96.1547 478.089 95.792 478.367 95.344C478.665 94.896 478.815 94.3307 478.815 93.648C478.815 93.008 478.665 92.4747 478.367 92.048C478.068 91.6 477.652 91.248 477.119 90.992C476.607 90.7147 475.999 90.512 475.295 90.384C474.591 90.256 473.844 90.192 473.055 90.192C472.265 90.192 471.647 90.2027 471.199 90.224C470.751 90.2453 470.345 90.2773 469.983 90.32V97.168ZM513.521 98.896C513.521 96.9973 513.799 95.3227 514.353 93.872C514.929 92.4213 515.697 91.216 516.657 90.256C517.639 89.2747 518.769 88.5387 520.049 88.048C521.351 87.5573 522.727 87.312 524.177 87.312C525.607 87.312 526.951 87.5573 528.209 88.048C529.489 88.5387 530.609 89.2747 531.569 90.256C532.529 91.216 533.287 92.4213 533.841 93.872C534.417 95.3227 534.705 96.9973 534.705 98.896C534.705 100.795 534.417 102.469 533.841 103.92C533.287 105.371 532.529 106.587 531.569 107.568C530.609 108.528 529.489 109.253 528.209 109.744C526.951 110.235 525.607 110.48 524.177 110.48C522.727 110.48 521.351 110.235 520.049 109.744C518.769 109.253 517.639 108.528 516.657 107.568C515.697 106.587 514.929 105.371 514.353 103.92C513.799 102.469 513.521 100.795 513.521 98.896ZM516.785 98.896C516.785 100.24 516.956 101.467 517.297 102.576C517.639 103.664 518.119 104.592 518.737 105.36C519.377 106.128 520.145 106.725 521.041 107.152C521.959 107.557 522.983 107.76 524.113 107.76C525.244 107.76 526.257 107.557 527.153 107.152C528.049 106.725 528.807 106.128 529.425 105.36C530.065 104.592 530.556 103.664 530.897 102.576C531.239 101.467 531.409 100.24 531.409 98.896C531.409 97.552 531.239 96.336 530.897 95.248C530.556 94.1387 530.065 93.2 529.425 92.432C528.807 91.664 528.049 91.0773 527.153 90.672C526.257 90.2453 525.244 90.032 524.113 90.032C522.983 90.032 521.959 90.2453 521.041 90.672C520.145 91.0773 519.377 91.664 518.737 92.432C518.119 93.2 517.639 94.1387 517.297 95.248C516.956 96.336 516.785 97.552 516.785 98.896ZM580.49 110C580.127 109.04 579.786 108.101 579.466 107.184C579.146 106.245 578.815 105.296 578.474 104.336H568.426L566.41 110H563.178C564.031 107.653 564.831 105.488 565.578 103.504C566.324 101.499 567.05 99.6 567.754 97.808C568.479 96.016 569.194 94.3093 569.898 92.688C570.602 91.0453 571.338 89.424 572.106 87.824H574.954C575.722 89.424 576.458 91.0453 577.162 92.688C577.866 94.3093 578.57 96.016 579.274 97.808C579.999 99.6 580.735 101.499 581.482 103.504C582.228 105.488 583.028 107.653 583.882 110H580.49ZM577.578 101.776C576.895 99.92 576.212 98.128 575.53 96.4C574.868 94.6507 574.175 92.976 573.45 91.376C572.703 92.976 571.988 94.6507 571.306 96.4C570.644 98.128 569.983 99.92 569.322 101.776H577.578ZM624.684 100.72C625.026 101.147 625.452 101.712 625.964 102.416C626.498 103.099 627.042 103.867 627.596 104.72C628.151 105.552 628.695 106.427 629.228 107.344C629.783 108.261 630.252 109.147 630.636 110H627.244C626.818 109.189 626.348 108.368 625.836 107.536C625.346 106.704 624.844 105.915 624.332 105.168C623.82 104.4 623.308 103.685 622.796 103.024C622.306 102.363 621.858 101.787 621.452 101.296C621.175 101.317 620.887 101.328 620.588 101.328C620.311 101.328 620.023 101.328 619.724 101.328H616.94V110H613.836V88.144C614.711 87.9307 615.682 87.792 616.748 87.728C617.836 87.6427 618.828 87.6 619.724 87.6C622.839 87.6 625.207 88.1867 626.828 89.36C628.471 90.5333 629.292 92.2827 629.292 94.608C629.292 96.08 628.898 97.3387 628.108 98.384C627.34 99.4293 626.199 100.208 624.684 100.72ZM619.98 90.32C618.658 90.32 617.644 90.352 616.94 90.416V98.768H619.148C620.215 98.768 621.175 98.7147 622.028 98.608C622.882 98.5013 623.596 98.2987 624.172 98C624.77 97.7013 625.228 97.2853 625.548 96.752C625.868 96.1973 626.028 95.472 626.028 94.576C626.028 93.744 625.868 93.0507 625.548 92.496C625.228 91.9413 624.791 91.504 624.236 91.184C623.703 90.864 623.063 90.64 622.316 90.512C621.591 90.384 620.812 90.32 619.98 90.32ZM679.114 98.896C679.114 100.816 678.815 102.491 678.218 103.92C677.62 105.328 676.778 106.501 675.69 107.44C674.602 108.357 673.3 109.051 671.786 109.52C670.271 109.968 668.607 110.192 666.794 110.192C665.898 110.192 664.906 110.149 663.818 110.064C662.751 110 661.78 109.861 660.906 109.648V88.144C661.78 87.9307 662.751 87.792 663.818 87.728C664.906 87.6427 665.898 87.6 666.794 87.6C668.607 87.6 670.271 87.8347 671.786 88.304C673.3 88.752 674.602 89.4453 675.69 90.384C676.778 91.3013 677.62 92.4747 678.218 93.904C678.815 95.312 679.114 96.976 679.114 98.896ZM667.05 107.472C669.994 107.472 672.191 106.725 673.642 105.232C675.092 103.717 675.818 101.605 675.818 98.896C675.818 96.1867 675.092 94.0853 673.642 92.592C672.191 91.0773 669.994 90.32 667.05 90.32C666.175 90.32 665.492 90.3307 665.002 90.352C664.532 90.3733 664.202 90.3947 664.01 90.416V107.376C664.202 107.397 664.532 107.419 665.002 107.44C665.492 107.461 666.175 107.472 667.05 107.472Z" fill="#848B91"/>
<path fill-rule="evenodd" clip-rule="evenodd" d="M436 0H390V64C395.523 64 400 59.5228 400 54V48H436C440.418 48 444 51.5817 444 56V64H446C450.418 64 454 60.4183 454 56C454 50.8895 451.87 46.2765 448.45 43C451.87 39.7235 454 35.1105 454 30V18C454 8.05888 445.941 0 436 0ZM400 48L404.142 43.8579C407.893 40.1071 412.98 38 418.284 38H436C440.418 38 444 34.4183 444 30V18C444 13.5817 440.418 10 436 10L400 10V48Z" fill="#848B90"/>
<path d="M314 0H324C330.758 0 336.953 3.7659 340.063 9.7653L360.698 49.5612C362.112 52.2882 364.928 54 368 54V10C368 4.47715 372.477 0 378 0V64H368C361.242 64 355.047 60.2341 351.937 54.2347L331.302 14.4388C329.888 11.7118 327.072 10 324 10V54C324 59.5228 319.523 64 314 64V0Z" fill="#848B91"/>
<path d="M476 2.41399e-06C470.477 2.66088e-06 466 4.47716 466 10L520 10C520 13.0718 518.288 15.8876 515.561 17.3016L475.765 37.9365C469.766 41.0473 466 47.2421 466 54V64H476L520 64C525.523 64 530 59.5228 530 54L494.284 54C488.98 54 483.893 56.1071 480.142 59.8579L476 64V54C476 50.9282 477.712 48.1124 480.439 46.6984L520.235 26.0635C526.234 22.9527 530 16.7579 530 10V0L476 2.41399e-06Z" fill="#848B90"/>
<path d="M246.022 13.6871C247.339 9.72708 249.863 6.27701 253.241 3.82188C256.657 1.33882 260.772 0.000944301 264.996 4.98639e-07C269.219 -0.000942305 273.335 1.33509 276.752 3.81663C280.134 6.27236 282.661 9.72512 283.979 13.6888L302 63.9931L298.419 63.9954C294.193 63.9981 290.422 61.3448 288.998 57.3667L274.492 16.8592L274.494 16.8585C273.837 14.8703 272.571 13.1382 270.876 11.9072C269.167 10.6665 267.11 9.99846 264.998 9.99893C262.886 9.9994 260.829 10.6683 259.12 11.9099C257.427 13.1407 256.163 14.8718 255.506 16.8585L255.508 16.8592L241.002 57.3667C239.578 61.3448 235.807 63.9981 231.581 63.9954L228 63.9931L246.022 13.6871Z" fill="#848B90"/>
<path fill-rule="evenodd" clip-rule="evenodd" d="M46 0H0V64C5.52285 64 10 59.5228 10 54V48H46C50.4183 48 54 51.5817 54 56V64H56C60.4183 64 64 60.4183 64 56C64 50.8895 61.8703 46.2765 58.4499 43C61.8703 39.7235 64 35.1105 64 30V18C64 8.05888 55.9411 0 46 0ZM10 48L14.1421 43.8579C17.8929 40.1071 22.9799 38 28.2843 38H46C50.4183 38 54 34.4183 54 30V18C54 13.5817 50.4183 10 46 10L10 10V48Z" fill="#848B90"/>
<path fill-rule="evenodd" clip-rule="evenodd" d="M76 46V18C76 8.05888 84.0589 0 94 0H140C140 5.52285 135.523 10 130 10H94C89.5817 10 86 13.5817 86 18V37V46C86 50.4183 89.5817 54 94 54H130C135.523 54 140 58.4772 140 64H94C84.0589 64 76 55.9411 76 46ZM90.1421 32.8579C93.8929 29.1071 98.9799 27 104.284 27L124 27C124 32.5228 119.523 37 114 37H86L90.1421 32.8579Z" fill="#848B90"/>
<path d="M162 2.41399e-06C156.477 2.66088e-06 152 4.47716 152 10L206 10C206 13.0718 204.288 15.8876 201.561 17.3016L161.765 37.9365C155.766 41.0473 152 47.2421 152 54V64H162L206 64C211.523 64 216 59.5228 216 54L180.284 54C174.98 54 169.893 56.1071 166.142 59.8579L162 64V54C162 50.9282 163.712 48.1124 166.439 46.6984L206.235 26.0635C212.234 22.9527 216 16.7579 216 10V0L162 2.41399e-06Z" fill="#848B90"/>
<path fill-rule="evenodd" clip-rule="evenodd" d="M542 64V0H588C597.941 0 606 8.05888 606 18V46C606 55.9411 597.941 64 588 64H552L556.142 59.8579C559.893 56.1071 564.98 54 570.284 54H588C592.418 54 596 50.4183 596 46V18C596 13.5817 592.418 10 588 10L552 10V64H542Z" fill="#848B91"/>
<path d="M628 10C628 4.47715 623.523 0 618 0V64C623.523 64 628 59.5228 628 54V37L672 37V54C672 59.5228 676.477 64 682 64V0C676.477 0 672 4.47715 672 10V27H646.284C640.98 27 635.893 29.1071 632.142 32.8579L628 37V10Z" fill="#848B91"/>
</svg>
