<svg width="72" height="32" viewBox="0 0 72 32" fill="none" xmlns="http://www.w3.org/2000/svg">
<path d="M72 2L72 0L70 -8.74228e-08L70 2L72 2Z" fill="#BDC9D1"/>
<path d="M62 2L62 -4.37114e-07L60 -5.24537e-07L60 2L62 2Z" fill="#BDC9D1"/>
<path d="M52 -8.74228e-07L52 2L50 2L50 -9.61651e-07L52 -8.74228e-07Z" fill="#BDC9D1"/>
<path d="M42 2L42 -1.31134e-06L40 -1.39876e-06L40 2L42 2Z" fill="#BDC9D1"/>
<path d="M72 10L72 12L70 12L70 10L72 10Z" fill="#BDC9D1"/>
<path d="M62 12L62 10L60 10L60 12L62 12Z" fill="#BDC9D1"/>
<path d="M52 10L52 12L50 12L50 10L52 10Z" fill="#BDC9D1"/>
<path d="M42 12L42 10L40 10L40 12L42 12Z" fill="#BDC9D1"/>
<path d="M72 20L72 22L70 22L70 20L72 20Z" fill="#BDC9D1"/>
<path d="M62 22L62 20L60 20L60 22L62 22Z" fill="#BDC9D1"/>
<path d="M52 20L52 22L50 22L50 20L52 20Z" fill="#BDC9D1"/>
<path d="M42 22L42 20L40 20L40 22L42 22Z" fill="#BDC9D1"/>
<path d="M72 30L72 32L70 32L70 30L72 30Z" fill="#BDC9D1"/>
<path d="M62 32L62 30L60 30L60 32L62 32Z" fill="#BDC9D1"/>
<path d="M52 30L52 32L50 32L50 30L52 30Z" fill="#BDC9D1"/>
<path d="M42 32L42 30L40 30L40 32L42 32Z" fill="#BDC9D1"/>
<path d="M32 2L32 0L30 -8.74228e-08L30 2L32 2Z" fill="#BDC9D1"/>
<path d="M22 2L22 -4.37114e-07L20 -5.24537e-07L20 2L22 2Z" fill="#BDC9D1"/>
<path d="M12 -8.74228e-07L12 2L10 2L10 -9.61651e-07L12 -8.74228e-07Z" fill="#BDC9D1"/>
<path d="M2 2L2 -1.31134e-06L0 -1.39876e-06L-8.74228e-08 2L2 2Z" fill="#BDC9D1"/>
<path d="M32 10L32 12L30 12L30 10L32 10Z" fill="#BDC9D1"/>
<path d="M22 12L22 10L20 10L20 12L22 12Z" fill="#BDC9D1"/>
<path d="M12 10L12 12L10 12L10 10L12 10Z" fill="#BDC9D1"/>
<path d="M2 12L2 10L-4.37114e-07 10L-5.24537e-07 12L2 12Z" fill="#BDC9D1"/>
<path d="M32 20L32 22L30 22L30 20L32 20Z" fill="#BDC9D1"/>
<path d="M22 22L22 20L20 20L20 22L22 22Z" fill="#BDC9D1"/>
<path d="M12 20L12 22L10 22L10 20L12 20Z" fill="#BDC9D1"/>
<path d="M2 22L2 20L-8.74228e-07 20L-9.61651e-07 22L2 22Z" fill="#BDC9D1"/>
<path d="M32 30L32 32L30 32L30 30L32 30Z" fill="#BDC9D1"/>
<path d="M22 32L22 30L20 30L20 32L22 32Z" fill="#BDC9D1"/>
<path d="M12 30L12 32L10 32L10 30L12 30Z" fill="#BDC9D1"/>
<path d="M2 32L2 30L-1.31134e-06 30L-1.39876e-06 32L2 32Z" fill="#BDC9D1"/>
</svg>
