<svg width="20" height="20" viewBox="0 0 20 20" fill="none" xmlns="http://www.w3.org/2000/svg">
<path d="M10 17C9.7693 17 9.54605 16.971 9.36 16.9057C6.51721 15.9554 2 12.5824 2 7.59896C2 5.0601 4.10605 3 6.69581 3C7.95349 3 9.1293 3.47876 10 4.33472C10.8707 3.47876 12.0465 3 13.3042 3C15.894 3 18 5.06736 18 7.59896C18 12.5896 13.4828 15.9554 10.64 16.9057C10.454 16.971 10.2307 17 10 17ZM6.69581 4.08808C4.72372 4.08808 3.11628 5.66218 3.11628 7.59896C3.11628 12.5534 8.00558 15.3098 9.72465 15.8829C9.8586 15.9264 10.1488 15.9264 10.2828 15.8829C11.9944 15.3098 16.8912 12.5606 16.8912 7.59896C16.8912 5.66218 15.2837 4.08808 13.3116 4.08808C12.1805 4.08808 11.1312 4.60311 10.454 5.49534C10.2456 5.77098 9.7693 5.77098 9.56093 5.49534C8.86884 4.59585 7.82698 4.08808 6.69581 4.08808Z" fill="#848B91"/>
</svg>
