<svg width="16" height="16" viewBox="0 0 16 16" fill="none" xmlns="http://www.w3.org/2000/svg">
<g clip-path="url(#clip0_890_37)">
<path d="M0 1.77608C0 1.26127 0.180185 0.836556 0.540541 0.501946C0.900896 0.16732 1.36937 1.52588e-05 1.94595 1.52588e-05C2.51223 1.52588e-05 2.97039 0.164741 3.32046 0.494224C3.68082 0.833992 3.861 1.27671 3.861 1.82241C3.861 2.31662 3.68598 2.72845 3.33591 3.05793C2.97555 3.3977 2.50193 3.56758 1.91506 3.56758H1.89961C1.33333 3.56758 0.875166 3.3977 0.525097 3.05793C0.175027 2.71816 0 2.29087 0 1.77608ZM0.200772 15.2896V4.97299H3.62934V15.2896H0.200772ZM5.52896 15.2896H8.95753V9.52897C8.95753 9.1686 8.99872 8.89061 9.08108 8.695C9.22522 8.34493 9.44402 8.04891 9.73745 7.80697C10.0309 7.565 10.399 7.44403 10.8417 7.44403C11.9949 7.44403 12.5714 8.22137 12.5714 9.77608V15.2896H16V9.37453C16 7.85072 15.6396 6.695 14.9189 5.90735C14.1982 5.11971 13.2458 4.72588 12.0618 4.72588C10.7336 4.72588 9.69884 5.29731 8.95753 6.44017V6.47106H8.94208L8.95753 6.44017V4.97299H5.52896C5.54954 5.30246 5.55985 6.3269 5.55985 8.04635C5.55985 9.76578 5.54954 12.1802 5.52896 15.2896Z" fill="#848B91"/>
</g>
<defs>
<clipPath id="clip0_890_37">
<rect width="16" height="15.2896" fill="white"/>
</clipPath>
</defs>
</svg>
