<svg width="164" height="39" viewBox="0 0 164 39" fill="none" xmlns="http://www.w3.org/2000/svg">
<path d="M48.0137 14.552H46.4177V14.72L46.7537 22H43.0017L43.3377 15.196L43.0017 2.68H49.0777C50.8697 2.68 52.2977 3.16534 53.3617 4.136C54.4257 5.10667 54.9577 6.39467 54.9577 8C54.9577 9.21334 54.6404 10.324 54.0057 11.332C53.3897 12.3213 52.5497 13.1053 51.4857 13.684L56.3577 20.572L52.9697 22.308L48.6017 14.524C48.471 14.5427 48.275 14.552 48.0137 14.552ZM48.0697 5.508H46.6977L46.5017 11.836H48.4057C49.339 11.836 50.0577 11.528 50.5617 10.912C51.0844 10.296 51.3457 9.41867 51.3457 8.28C51.3457 6.432 50.2537 5.508 48.0697 5.508Z" fill="#848B90"/>
<path d="M63.6406 19.144C64.1819 19.144 64.7512 19.004 65.3486 18.724C65.9459 18.444 66.4126 18.164 66.7486 17.884L67.2526 17.464L68.5406 19.032C68.3539 19.3493 68.0646 19.7133 67.6726 20.124C67.2806 20.5347 66.8792 20.8893 66.4686 21.188C66.0766 21.468 65.5446 21.7293 64.8726 21.972C64.2192 22.196 63.5379 22.308 62.8286 22.308C61.3166 22.308 60.0846 21.7387 59.1326 20.6C58.1806 19.4427 57.7046 17.9587 57.7046 16.148C57.7046 13.8707 58.3672 11.8733 59.6926 10.156C61.0179 8.43867 62.5672 7.58 64.3406 7.58C65.7032 7.58 66.7579 7.96267 67.5046 8.728C68.2699 9.49334 68.6526 10.5667 68.6526 11.948C68.6526 12.7693 68.5126 13.7027 68.2326 14.748L67.6726 15.336L60.6726 15.98C60.9899 18.0893 61.9792 19.144 63.6406 19.144ZM63.6406 10.464C62.8192 10.464 62.1286 10.8 61.5686 11.472C61.0086 12.1253 60.6819 12.9653 60.5886 13.992L65.3486 13.404C65.4046 12.9747 65.4326 12.62 65.4326 12.34C65.4326 11.0893 64.8352 10.464 63.6406 10.464Z" fill="#848B90"/>
<path d="M70.6206 19.228L76.5286 10.8L70.3406 11.22L70.9846 7.692L75.7726 8L80.4486 7.664L79.9726 10.576L74.0366 19.032L80.8406 18.64L80.2246 22.168L75.4646 21.86L70.1446 22.168L70.6206 19.228Z" fill="#848B90"/>
<path d="M85.5724 22C84.4711 22 83.5658 21.6547 82.8564 20.964C82.1658 20.2547 81.8204 19.312 81.8204 18.136C81.8204 16.9413 82.3618 15.9147 83.4444 15.056C84.5271 14.1787 85.8431 13.74 87.3924 13.74H89.2964V13.264C89.2964 12.3493 89.1098 11.724 88.7364 11.388C88.3631 11.052 87.6631 10.884 86.6364 10.884C86.2071 10.884 85.6938 10.9773 85.0964 11.164C84.5178 11.332 83.8644 11.6027 83.1364 11.976L82.3244 9.764C83.1271 9.204 84.0978 8.7 85.2364 8.252C86.3938 7.804 87.3458 7.58 88.0924 7.58C91.0231 7.58 92.4884 8.99867 92.4884 11.836V17.324C92.4884 18.3693 92.8151 19.536 93.4684 20.824L90.5004 22.084C90.0338 21.188 89.6884 20.3853 89.4644 19.676C88.4378 21.2253 87.1404 22 85.5724 22ZM86.7484 19.144C87.4951 19.144 88.3444 18.7613 89.2964 17.996V16.12C88.3071 15.896 87.5044 15.784 86.8884 15.784C85.7124 15.784 85.1244 16.3067 85.1244 17.352C85.1244 17.8933 85.2738 18.332 85.5724 18.668C85.8711 18.9853 86.2631 19.144 86.7484 19.144Z" fill="#848B90"/>
<path d="M111.325 2.624L110.961 14.72L111.269 21.384L107.965 22.084L99.6214 8.588V14.72L100.013 22H96.5134L96.8494 15.196L96.5134 2.764L99.8734 2.596L108.189 16.288L107.909 3.044L111.325 2.624Z" fill="#848B90"/>
<path d="M114.894 8.476L118.282 7.748C118.45 9.18534 118.562 10.548 118.618 11.836C120.317 9.204 121.913 7.888 123.406 7.888L123.098 12.256C122.015 12.256 121.157 12.3587 120.522 12.564C119.906 12.7507 119.271 13.1333 118.618 13.712V14.72L118.926 21.3L115.174 22L115.51 15.196C115.435 12.6947 115.23 10.4547 114.894 8.476Z" fill="#848B90"/>
<path d="M124.707 19.228L130.615 10.8L124.427 11.22L125.071 7.692L129.859 8L134.535 7.664L134.059 10.576L128.123 19.032L134.927 18.64L134.311 22.168L129.551 21.86L124.231 22.168L124.707 19.228Z" fill="#848B90"/>
<path d="M144.25 19.256C142.794 21.0853 141.534 22 140.47 22C139.145 22 138.053 21.4587 137.194 20.376C136.354 19.2933 135.934 17.9027 135.934 16.204C135.934 13.8707 136.578 11.9013 137.866 10.296C139.173 8.69067 140.769 7.888 142.654 7.888L144.222 8.112V7.58L143.886 1.028L147.722 0.328003L147.358 14.72V17.184C147.358 18.304 147.638 19.592 148.198 21.048L145.174 22.308C144.633 21.188 144.325 20.1707 144.25 19.256ZM139.07 14.748C139.07 15.9427 139.285 16.876 139.714 17.548C140.162 18.22 140.797 18.556 141.618 18.556C142.458 18.556 143.326 18.22 144.222 17.548V11.5C143.102 11.276 142.272 11.164 141.73 11.164C140.89 11.164 140.237 11.4627 139.77 12.06C139.304 12.6573 139.07 13.5533 139.07 14.748Z" fill="#848B90"/>
<path d="M159.089 14.916C159.089 13.628 158.977 12.7693 158.753 12.34C158.529 11.9107 158.006 11.696 157.185 11.696C156.364 11.696 155.43 12.0227 154.385 12.676V14.72L154.693 21.3L150.913 22L151.249 15.196L150.913 1.028L154.749 0.328003L154.385 7.58V10.856C154.665 10.4827 154.982 10.1187 155.337 9.764C155.692 9.40934 156.242 9.008 156.989 8.56C157.736 8.112 158.529 7.888 159.369 7.888C160.228 7.888 160.946 8.224 161.525 8.896C162.104 9.54934 162.393 10.4453 162.393 11.584L162.225 14.72L162.533 21.44L158.753 22.14L159.089 14.916Z" fill="#848B90"/>
<path d="M43.092 26.186H45.724C46.7787 26.186 47.5814 26.4754 48.132 27.054C48.692 27.6327 48.972 28.4027 48.972 29.364V33.2C48.972 35.0667 47.9827 36 46.004 36H43.092V26.186ZM47.964 29.224C47.964 28.524 47.7587 28.006 47.348 27.67C46.9467 27.3247 46.452 27.152 45.864 27.152H44.1V35.09H45.78C46.4054 35.09 46.9234 34.9734 47.334 34.74C47.754 34.5067 47.964 34.04 47.964 33.34V29.224Z" fill="#848B90"/>
<path d="M55.5264 35.51C55.1904 35.7247 54.8078 35.888 54.3784 36C53.9491 36.112 53.5198 36.168 53.0904 36.168C52.3998 36.168 51.8491 36 51.4384 35.664C51.0371 35.3187 50.8364 34.8054 50.8364 34.124V31.254C50.8364 30.498 51.0698 29.91 51.5364 29.49C52.0124 29.07 52.6378 28.86 53.4124 28.86C54.1871 28.86 54.7891 29.07 55.2184 29.49C55.6571 29.9007 55.8764 30.4747 55.8764 31.212V33.13L51.8444 33.34V34.068C51.8444 34.46 51.9658 34.754 52.2084 34.95C52.4511 35.146 52.7824 35.244 53.2024 35.244C53.8091 35.244 54.4578 35.0574 55.1484 34.684L55.5264 35.51ZM54.8544 31.156C54.8544 30.6614 54.7004 30.3114 54.3924 30.106C54.0844 29.8914 53.7531 29.784 53.3984 29.784C52.9318 29.784 52.5538 29.91 52.2644 30.162C51.9844 30.414 51.8444 30.7827 51.8444 31.268V32.388L54.8544 32.234V31.156Z" fill="#848B90"/>
<path d="M56.4422 28.986H57.5202L59.2142 34.614L60.9222 28.986H62.0002L59.8162 36H58.6122L56.4422 28.986Z" fill="#848B90"/>
<path d="M67.2564 35.51C66.9204 35.7247 66.5377 35.888 66.1084 36C65.679 36.112 65.2497 36.168 64.8204 36.168C64.1297 36.168 63.579 36 63.1684 35.664C62.767 35.3187 62.5664 34.8054 62.5664 34.124V31.254C62.5664 30.498 62.7997 29.91 63.2664 29.49C63.7424 29.07 64.3677 28.86 65.1424 28.86C65.917 28.86 66.519 29.07 66.9484 29.49C67.387 29.9007 67.6064 30.4747 67.6064 31.212V33.13L63.5744 33.34V34.068C63.5744 34.46 63.6957 34.754 63.9384 34.95C64.181 35.146 64.5124 35.244 64.9324 35.244C65.539 35.244 66.1877 35.0574 66.8784 34.684L67.2564 35.51ZM66.5844 31.156C66.5844 30.6614 66.4304 30.3114 66.1224 30.106C65.8144 29.8914 65.483 29.784 65.1284 29.784C64.6617 29.784 64.2837 29.91 63.9944 30.162C63.7144 30.414 63.5744 30.7827 63.5744 31.268V32.388L66.5844 32.234V31.156Z" fill="#848B90"/>
<path d="M69.5187 26.2H70.5267V36H69.5187V26.2Z" fill="#848B90"/>
<path d="M78.2472 33.424C78.2472 34.208 78.0326 34.8567 77.6032 35.37C77.1739 35.8834 76.5252 36.14 75.6572 36.14C74.7892 36.14 74.1312 35.8834 73.6832 35.37C73.2446 34.8474 73.0252 34.1987 73.0252 33.424V31.576C73.0252 30.6894 73.2492 30.0127 73.6972 29.546C74.1546 29.07 74.8079 28.832 75.6572 28.832C76.4692 28.832 77.1039 29.0794 77.5612 29.574C78.0186 30.0594 78.2472 30.7267 78.2472 31.576V33.424ZM77.2392 31.576C77.2392 30.3907 76.7119 29.798 75.6572 29.798C75.1626 29.798 74.7659 29.938 74.4672 30.218C74.1779 30.498 74.0332 30.9507 74.0332 31.576V33.564C74.0332 34.068 74.1779 34.4694 74.4672 34.768C74.7659 35.0574 75.1626 35.202 75.6572 35.202C76.1519 35.202 76.5392 35.0574 76.8192 34.768C77.0992 34.4694 77.2392 34.068 77.2392 33.564V31.576Z" fill="#848B90"/>
<path d="M80.1138 28.986H81.0938L81.0798 29.518C81.2758 29.3127 81.5232 29.154 81.8218 29.042C82.1205 28.93 82.4238 28.874 82.7318 28.874C83.5998 28.874 84.2578 29.126 84.7058 29.63C85.1632 30.134 85.3918 30.7874 85.3918 31.59V33.536C85.3918 34.3854 85.1538 35.0387 84.6778 35.496C84.2018 35.944 83.5718 36.168 82.7878 36.168C82.4052 36.168 82.0832 36.1214 81.8218 36.028C81.5698 35.944 81.3365 35.7947 81.1218 35.58V38.632L80.1138 38.94V28.986ZM84.3838 31.534C84.3838 30.946 84.2298 30.5167 83.9218 30.246C83.6232 29.966 83.2452 29.826 82.7878 29.826C82.3212 29.826 81.9292 29.9614 81.6118 30.232C81.3038 30.5027 81.1405 30.9134 81.1218 31.464V33.578C81.1218 34.11 81.2665 34.516 81.5558 34.796C81.8452 35.0667 82.2558 35.202 82.7878 35.202C83.2732 35.202 83.6605 35.062 83.9498 34.782C84.2392 34.4927 84.3838 34.0727 84.3838 33.522V31.534Z" fill="#848B90"/>
<path d="M91.3451 35.51C91.0091 35.7247 90.6265 35.888 90.1971 36C89.7678 36.112 89.3385 36.168 88.9091 36.168C88.2185 36.168 87.6678 36 87.2571 35.664C86.8558 35.3187 86.6551 34.8054 86.6551 34.124V31.254C86.6551 30.498 86.8885 29.91 87.3551 29.49C87.8311 29.07 88.4565 28.86 89.2311 28.86C90.0058 28.86 90.6078 29.07 91.0371 29.49C91.4758 29.9007 91.6951 30.4747 91.6951 31.212V33.13L87.6631 33.34V34.068C87.6631 34.46 87.7845 34.754 88.0271 34.95C88.2698 35.146 88.6011 35.244 89.0211 35.244C89.6278 35.244 90.2765 35.0574 90.9671 34.684L91.3451 35.51ZM90.6731 31.156C90.6731 30.6614 90.5191 30.3114 90.2111 30.106C89.9031 29.8914 89.5718 29.784 89.2171 29.784C88.7505 29.784 88.3725 29.91 88.0831 30.162C87.8031 30.414 87.6631 30.7827 87.6631 31.268V32.388L90.6731 32.234V31.156Z" fill="#848B90"/>
<path d="M93.3694 28.986H94.3494V29.35C94.7881 29.0234 95.3061 28.86 95.9034 28.86C96.2021 28.86 96.5661 28.9067 96.9954 29L96.7434 29.952C96.4634 29.8494 96.1694 29.798 95.8614 29.798C95.4508 29.798 95.1008 29.8867 94.8114 30.064C94.5221 30.232 94.3774 30.4794 94.3774 30.806V36H93.3694V28.986Z" fill="#848B90"/>
<path d="M108.573 36.154C108.237 36.0794 107.929 35.944 107.649 35.748C107.379 35.5427 107.183 35.286 107.061 34.978C106.585 35.762 105.834 36.154 104.807 36.154C104.285 36.154 103.837 36.0327 103.463 35.79C103.09 35.5474 102.805 35.2207 102.609 34.81C102.413 34.3994 102.315 33.9514 102.315 33.466C102.315 32.5047 102.586 31.7674 103.127 31.254C103.678 30.7314 104.327 30.316 105.073 30.008C104.747 29.924 104.467 29.7094 104.233 29.364C104.009 29.0187 103.897 28.6174 103.897 28.16C103.897 27.74 104 27.3714 104.205 27.054C104.42 26.7367 104.7 26.4894 105.045 26.312C105.4 26.1347 105.783 26.046 106.193 26.046C106.511 26.046 106.833 26.102 107.159 26.214L106.585 27.068C106.427 27.012 106.273 26.984 106.123 26.984C105.778 26.984 105.489 27.096 105.255 27.32C105.031 27.544 104.919 27.8194 104.919 28.146C104.919 28.5754 105.059 28.9067 105.339 29.14C105.629 29.364 105.946 29.476 106.291 29.476C106.347 29.476 106.431 29.4667 106.543 29.448L106.851 29.392V27.53L107.873 27.474V29.224L108.895 29L109.119 29.98L107.873 30.246V33.844C107.873 34.208 107.948 34.53 108.097 34.81C108.247 35.0807 108.48 35.2674 108.797 35.37L108.573 36.154ZM106.851 30.47C105.899 30.694 105.087 31.0067 104.415 31.408C103.753 31.8094 103.389 32.402 103.323 33.186C103.314 33.2514 103.309 33.3447 103.309 33.466C103.309 33.97 103.449 34.3807 103.729 34.698C104.009 35.006 104.401 35.16 104.905 35.16C105.297 35.16 105.638 35.0527 105.927 34.838C106.226 34.614 106.455 34.334 106.613 33.998C106.772 33.6527 106.851 33.2934 106.851 32.92V30.47Z" fill="#848B90"/>
<path d="M115.099 26.186H117.731C118.785 26.186 119.588 26.4754 120.139 27.054C120.699 27.6327 120.979 28.4027 120.979 29.364V33.2C120.979 35.0667 119.989 36 118.011 36H115.099V26.186ZM119.971 29.224C119.971 28.524 119.765 28.006 119.355 27.67C118.953 27.3247 118.459 27.152 117.871 27.152H116.107V35.09H117.787C118.412 35.09 118.93 34.9734 119.341 34.74C119.761 34.5067 119.971 34.04 119.971 33.34V29.224Z" fill="#848B90"/>
<path d="M127.533 35.51C127.197 35.7247 126.814 35.888 126.385 36C125.956 36.112 125.526 36.168 125.097 36.168C124.406 36.168 123.856 36 123.445 35.664C123.044 35.3187 122.843 34.8054 122.843 34.124V31.254C122.843 30.498 123.076 29.91 123.543 29.49C124.019 29.07 124.644 28.86 125.419 28.86C126.194 28.86 126.796 29.07 127.225 29.49C127.664 29.9007 127.883 30.4747 127.883 31.212V33.13L123.851 33.34V34.068C123.851 34.46 123.972 34.754 124.215 34.95C124.458 35.146 124.789 35.244 125.209 35.244C125.816 35.244 126.464 35.0574 127.155 34.684L127.533 35.51ZM126.861 31.156C126.861 30.6614 126.707 30.3114 126.399 30.106C126.091 29.8914 125.76 29.784 125.405 29.784C124.938 29.784 124.56 29.91 124.271 30.162C123.991 30.414 123.851 30.7827 123.851 31.268V32.388L126.861 32.234V31.156Z" fill="#848B90"/>
<path d="M130.187 34.18C130.225 34.5254 130.397 34.796 130.705 34.992C131.013 35.1787 131.377 35.272 131.797 35.272C132.18 35.272 132.516 35.1834 132.805 35.006C133.104 34.8194 133.253 34.544 133.253 34.18C133.253 33.928 133.179 33.718 133.029 33.55C132.889 33.382 132.707 33.2514 132.483 33.158C132.269 33.0554 131.97 32.9387 131.587 32.808C131.13 32.6494 130.761 32.5094 130.481 32.388C130.211 32.2574 129.968 32.0707 129.753 31.828C129.548 31.5854 129.422 31.2727 129.375 30.89L129.361 30.722C129.361 30.414 129.445 30.1154 129.613 29.826C129.791 29.5274 130.057 29.2847 130.411 29.098C130.775 28.9114 131.228 28.818 131.769 28.818C132.068 28.818 132.329 28.8507 132.553 28.916C132.787 28.972 132.969 29.0327 133.099 29.098C133.23 29.1634 133.309 29.2054 133.337 29.224L133.015 30.106C132.987 30.0874 132.922 30.05 132.819 29.994C132.726 29.938 132.586 29.8867 132.399 29.84C132.213 29.784 132.003 29.756 131.769 29.756C131.331 29.756 130.985 29.854 130.733 30.05C130.481 30.246 130.374 30.512 130.411 30.848C130.439 31.1 130.575 31.3007 130.817 31.45C131.069 31.59 131.447 31.7487 131.951 31.926C132.446 32.094 132.847 32.2574 133.155 32.416C133.473 32.5654 133.739 32.7847 133.953 33.074C134.177 33.354 134.289 33.7227 134.289 34.18C134.289 34.7587 134.079 35.244 133.659 35.636C133.239 36.0187 132.619 36.21 131.797 36.21C131.265 36.21 130.803 36.1214 130.411 35.944C130.029 35.7574 129.735 35.5147 129.529 35.216C129.333 34.9174 129.226 34.586 129.207 34.222L130.187 34.18Z" fill="#848B90"/>
<path d="M136.693 27.208C136.534 27.208 136.394 27.152 136.273 27.04C136.161 26.9187 136.105 26.7834 136.105 26.634C136.105 26.4847 136.161 26.354 136.273 26.242C136.394 26.1207 136.534 26.06 136.693 26.06C136.842 26.06 136.973 26.116 137.085 26.228C137.197 26.34 137.253 26.4754 137.253 26.634C137.253 26.7927 137.197 26.928 137.085 27.04C136.973 27.152 136.842 27.208 136.693 27.208ZM136.161 28.986H137.169V36H136.161V28.986Z" fill="#848B90"/>
<path d="M142.492 38.156C143.126 37.9787 143.444 37.5307 143.444 36.812V35.37C143.126 35.902 142.571 36.168 141.778 36.168C140.956 36.168 140.317 35.944 139.86 35.496C139.402 35.048 139.174 34.3947 139.174 33.536V31.45C139.174 30.6287 139.412 29.994 139.888 29.546C140.373 29.0887 141.022 28.86 141.834 28.86C142.207 28.86 142.534 28.9254 142.814 29.056C143.103 29.1774 143.327 29.3594 143.486 29.602L143.528 28.986H144.452V36.896C144.452 37.484 144.316 37.9414 144.046 38.268C143.784 38.5947 143.35 38.8187 142.744 38.94L142.492 38.156ZM143.444 31.38C143.444 30.8667 143.285 30.4794 142.968 30.218C142.66 29.9474 142.263 29.812 141.778 29.812C141.32 29.812 140.938 29.9567 140.63 30.246C140.331 30.526 140.182 30.9507 140.182 31.52V33.564C140.182 34.096 140.322 34.5067 140.602 34.796C140.882 35.076 141.274 35.216 141.778 35.216C142.282 35.216 142.683 35.0574 142.982 34.74C143.29 34.4134 143.444 33.9467 143.444 33.34V31.38Z" fill="#848B90"/>
<path d="M150.265 31.31C150.265 30.806 150.111 30.4327 149.803 30.19C149.505 29.938 149.122 29.812 148.655 29.812C148.394 29.812 148.128 29.8494 147.857 29.924C147.587 29.9894 147.339 30.0874 147.115 30.218V36H146.107V28.986H147.059L147.073 29.35C147.288 29.2007 147.545 29.084 147.843 29C148.151 28.916 148.473 28.874 148.809 28.874C149.295 28.874 149.719 28.958 150.083 29.126C150.457 29.294 150.746 29.546 150.951 29.882C151.166 30.218 151.273 30.6427 151.273 31.156V36H150.265V31.31Z" fill="#848B90"/>
<path d="M157.671 35.51C157.335 35.7247 156.953 35.888 156.523 36C156.094 36.112 155.665 36.168 155.235 36.168C154.545 36.168 153.994 36 153.583 35.664C153.182 35.3187 152.981 34.8054 152.981 34.124V31.254C152.981 30.498 153.215 29.91 153.681 29.49C154.157 29.07 154.783 28.86 155.557 28.86C156.332 28.86 156.934 29.07 157.363 29.49C157.802 29.9007 158.021 30.4747 158.021 31.212V33.13L153.989 33.34V34.068C153.989 34.46 154.111 34.754 154.353 34.95C154.596 35.146 154.927 35.244 155.347 35.244C155.954 35.244 156.603 35.0574 157.293 34.684L157.671 35.51ZM156.999 31.156C156.999 30.6614 156.845 30.3114 156.537 30.106C156.229 29.8914 155.898 29.784 155.543 29.784C155.077 29.784 154.699 29.91 154.409 30.162C154.129 30.414 153.989 30.7827 153.989 31.268V32.388L156.999 32.234V31.156Z" fill="#848B90"/>
<path d="M159.696 28.986H160.676V29.35C161.114 29.0234 161.632 28.86 162.23 28.86C162.528 28.86 162.892 28.9067 163.322 29L163.07 29.952C162.79 29.8494 162.496 29.798 162.188 29.798C161.777 29.798 161.427 29.8867 161.138 30.064C160.848 30.232 160.704 30.4794 160.704 30.806V36H159.696V28.986Z" fill="#848B90"/>
<path d="M0 20C0 11.5147 0 7.27208 2.63604 4.63604C5.27208 2 9.51472 2 18 2C26.4853 2 30.7279 2 33.364 4.63604C36 7.27208 36 11.5147 36 20C36 28.4853 36 32.7279 33.364 35.364C30.7279 38 26.4853 38 18 38C9.51472 38 5.27208 38 2.63604 35.364C0 32.7279 0 28.4853 0 20Z" fill="url(#paint0_linear_816_110)"/>
<path d="M18 9H22.5C24.9853 9 27 11.0147 27 13.5V13.5C27 15.9853 24.9853 18 22.5 18V18C20.0147 18 18 15.9853 18 13.5V9Z" fill="#FFB1B0"/>
<path d="M9 18C9 13.0294 13.0294 9 18 9V9V22C18 26.9706 13.9706 31 9 31V31V18Z" fill="white"/>
<defs>
<linearGradient id="paint0_linear_816_110" x1="18" y1="2" x2="18" y2="38" gradientUnits="userSpaceOnUse">
<stop stop-color="#FD868C"/>
<stop offset="1" stop-color="#F05756"/>
</linearGradient>
</defs>
</svg>
