<svg width="170" height="16" viewBox="0 0 170 16" fill="none" xmlns="http://www.w3.org/2000/svg">
<path fill-rule="evenodd" clip-rule="evenodd" d="M108.68 0H97.2141V16C98.5907 16 99.7067 14.8807 99.7067 13.5V12H108.68C109.782 12 110.674 12.8954 110.674 14V16H111.173C112.274 16 113.167 15.1046 113.167 14C113.167 12.7224 112.636 11.5691 111.784 10.75C112.636 9.93088 113.167 8.77762 113.167 7.5V4.5C113.167 2.01472 111.158 0 108.68 0ZM99.7067 12L100.739 10.9645C101.674 10.0268 102.942 9.5 104.264 9.5H108.68C109.782 9.5 110.674 8.60457 110.674 7.5V4.5C110.674 3.39543 109.782 2.5 108.68 2.5L99.7067 2.5V12Z" fill="#666D73"/>
<path d="M78.2698 0H80.7625C82.447 0 83.9911 0.941475 84.7666 2.44132L89.9102 12.3903C90.2626 13.0721 90.9645 13.5 91.7302 13.5V2.5C91.7302 1.11929 92.8462 0 94.2229 0V16H91.7302C90.0457 16 88.5015 15.0585 87.7261 13.5587L82.5825 3.60969C82.23 2.92794 81.5282 2.5 80.7625 2.5V13.5C80.7625 14.8807 79.6465 16 78.2698 16V0Z" fill="#666D73"/>
<path d="M118.651 6.03497e-07C117.274 6.6522e-07 116.158 1.11929 116.158 2.5L129.619 2.5C129.619 3.26795 129.192 3.9719 128.512 4.3254L118.593 9.48413C117.097 10.2618 116.158 11.8105 116.158 13.5V16H118.651L129.619 16C130.995 16 132.111 14.8807 132.111 13.5L123.209 13.5C121.886 13.5 120.618 14.0268 119.684 14.9645L118.651 16V13.5C118.651 12.7321 119.078 12.0281 119.757 11.6746L129.677 6.51587C131.173 5.73817 132.111 4.18949 132.111 2.5V0L118.651 6.03497e-07Z" fill="#666D73"/>
<path d="M61.3251 3.42177C61.6534 2.43177 62.2825 1.56925 63.1245 0.955469C63.9761 0.334705 65.0018 0.000236075 66.0546 1.2466e-07C67.1074 -0.000235576 68.1333 0.333774 68.9851 0.954157C69.8281 1.56809 70.4579 2.43128 70.7865 3.42221L75.2786 15.9983L74.3859 15.9989C73.3326 15.9995 72.3926 15.3362 72.0375 14.3417L68.4218 4.21481C68.2579 3.71776 67.943 3.28456 67.5204 2.97681C67.0945 2.66662 66.5816 2.49961 66.0552 2.49973C65.5288 2.49985 65.0159 2.66708 64.5901 2.97747C64.168 3.28519 63.8529 3.71794 63.6891 4.21462L60.0739 14.3417C59.7188 15.3362 58.7788 15.9995 57.7256 15.9989L56.8328 15.9983L61.3251 3.42177Z" fill="#666D73"/>
<path fill-rule="evenodd" clip-rule="evenodd" d="M11.4663 0H0V16C1.37666 16 2.49267 14.8807 2.49267 13.5V12H11.4663C12.5676 12 13.4604 12.8954 13.4604 14V16H13.9589C15.0603 16 15.9531 15.1046 15.9531 14C15.9531 12.7224 15.4222 11.5691 14.5696 10.75C15.4222 9.93088 15.9531 8.77762 15.9531 7.5V4.5C15.9531 2.01472 13.9443 0 11.4663 0ZM2.49267 12L3.52517 10.9645C4.4601 10.0268 5.72814 9.5 7.05033 9.5H11.4663C12.5676 9.5 13.4604 8.60457 13.4604 7.5V4.5C13.4604 3.39543 12.5676 2.5 11.4663 2.5L2.49267 2.5V12Z" fill="#666D73"/>
<path fill-rule="evenodd" clip-rule="evenodd" d="M18.9443 11.5V4.5C18.9443 2.01472 20.9531 0 23.4311 0H34.8974C34.8974 1.38071 33.7814 2.5 32.4047 2.5H23.4311C22.3298 2.5 21.437 3.39543 21.437 4.5V9.25V11.5C21.437 12.6046 22.3298 13.5 23.4311 13.5H32.4047C33.7814 13.5 34.8974 14.6193 34.8974 16H23.4311C20.9531 16 18.9443 13.9853 18.9443 11.5ZM22.4694 8.21447C23.4044 7.27678 24.6724 6.75 25.9946 6.75L30.9091 6.75C30.9091 8.13071 29.7931 9.25 28.4164 9.25H21.437L22.4694 8.21447Z" fill="#666D73"/>
<path d="M40.3812 6.03497e-07C39.0046 6.6522e-07 37.8886 1.11929 37.8886 2.5L51.349 2.5C51.349 3.26795 50.9223 3.9719 50.2425 4.3254L40.3227 9.48413C38.8273 10.2618 37.8886 11.8105 37.8886 13.5V16H40.3812L51.349 16C52.7256 16 53.8416 14.8807 53.8416 13.5L44.9389 13.5C43.6167 13.5 42.3487 14.0268 41.4137 14.9645L40.3812 16V13.5C40.3812 12.7321 40.8079 12.0281 41.4877 11.6746L51.4075 6.51587C52.9029 5.73817 53.8416 4.18949 53.8416 2.5V0L40.3812 6.03497e-07Z" fill="#666D73"/>
<path fill-rule="evenodd" clip-rule="evenodd" d="M135.103 16V0H146.569C149.047 0 151.056 2.01472 151.056 4.5V11.5C151.056 13.9853 149.047 16 146.569 16H137.595L138.628 14.9645C139.563 14.0268 140.831 13.5 142.153 13.5H146.569C147.67 13.5 148.563 12.6046 148.563 11.5V4.5C148.563 3.39543 147.67 2.5 146.569 2.5L137.595 2.5V16H135.103Z" fill="#666D73"/>
<path d="M156.54 2.5C156.54 1.11929 155.424 0 154.047 0V16C155.424 16 156.54 14.8807 156.54 13.5V9.25L167.507 9.25V13.5C167.507 14.8807 168.623 16 170 16V0C168.623 0 167.507 1.11929 167.507 2.5V6.75H161.097C159.775 6.75 158.507 7.27678 157.572 8.21447L156.54 9.25V2.5Z" fill="#666D73"/>
</svg>
