<svg width="255" height="24" viewBox="0 0 255 24" fill="none" xmlns="http://www.w3.org/2000/svg">
<path fill-rule="evenodd" clip-rule="evenodd" d="M163.021 0H145.821V24C147.886 24 149.56 22.3211 149.56 20.25V18H163.021C164.673 18 166.012 19.3431 166.012 21V24H166.76C168.412 24 169.751 22.6569 169.751 21C169.751 19.0836 168.954 17.3537 167.676 16.125C168.954 14.8963 169.751 13.1664 169.751 11.25V6.75C169.751 3.02208 166.738 0 163.021 0ZM149.56 18L151.109 16.4467C152.511 15.0402 154.413 14.25 156.397 14.25H163.021C164.673 14.25 166.012 12.9069 166.012 11.25V6.75C166.012 5.09315 164.673 3.75 163.021 3.75L149.56 3.75V18Z" fill="#DAE6EE"/>
<path d="M117.405 0H121.144C123.67 0 125.987 1.41221 127.15 3.66199L134.865 18.5855C135.394 19.6081 136.447 20.25 137.595 20.25V3.75C137.595 1.67893 139.269 0 141.334 0V24H137.595C135.069 24 132.752 22.5878 131.589 20.338L123.874 5.41454C123.345 4.39192 122.292 3.75 121.144 3.75V20.25C121.144 22.3211 119.47 24 117.405 24V0Z" fill="#DAE6EE"/>
<path d="M177.977 9.05246e-07C175.912 9.97829e-07 174.238 1.67893 174.238 3.75L194.428 3.75C194.428 4.90192 193.788 5.95784 192.768 6.4881L177.889 14.2262C175.646 15.3927 174.238 17.7158 174.238 20.25V24H177.977L194.428 24C196.493 24 198.167 22.3211 198.167 20.25L184.813 20.25C182.83 20.25 180.928 21.0402 179.525 22.4467L177.977 24V20.25C177.977 19.0981 178.617 18.0422 179.636 17.5119L194.516 9.77381C196.759 8.60726 198.167 6.28423 198.167 3.75V0L177.977 9.05246e-07Z" fill="#DAE6EE"/>
<path d="M91.9877 5.13266C92.4802 3.64765 93.4237 2.35388 94.6868 1.4332C95.9642 0.502057 97.5027 0.000354113 99.0819 1.8699e-07C100.661 -0.000353364 102.2 0.50066 103.478 1.43123C104.742 2.35213 105.687 3.64692 106.18 5.13331L112.918 23.9974L111.579 23.9983C109.999 23.9993 108.589 23.0043 108.056 21.5125L102.633 6.32221C102.387 5.57664 101.915 4.92684 101.281 4.46522C100.642 3.99993 99.8724 3.74942 99.0828 3.7496C98.2931 3.74978 97.5239 4.00063 96.8852 4.4662C96.252 4.92778 95.7793 5.57692 95.5337 6.32194L90.1109 21.5125C89.5783 23.0043 88.1682 23.9993 86.5884 23.9983L85.2493 23.9974L91.9877 5.13266Z" fill="#DAE6EE"/>
<path fill-rule="evenodd" clip-rule="evenodd" d="M17.1994 0H0V24C2.06499 24 3.739 22.3211 3.739 20.25V18H17.1994C18.8514 18 20.1906 19.3431 20.1906 21V24H20.9384C22.5904 24 23.9296 22.6569 23.9296 21C23.9296 19.0836 23.1333 17.3537 21.8544 16.125C23.1333 14.8963 23.9296 13.1664 23.9296 11.25V6.75C23.9296 3.02208 20.9164 0 17.1994 0ZM3.739 18L5.28775 16.4467C6.69015 15.0402 8.59221 14.25 10.5755 14.25H17.1994C18.8514 14.25 20.1906 12.9069 20.1906 11.25V6.75C20.1906 5.09315 18.8514 3.75 17.1994 3.75L3.739 3.75V18Z" fill="#DAE6EE"/>
<path fill-rule="evenodd" clip-rule="evenodd" d="M28.4164 17.25V6.75C28.4164 3.02208 31.4296 0 35.1466 0H52.346C52.346 2.07107 50.672 3.75 48.607 3.75H35.1466C33.4946 3.75 32.1554 5.09315 32.1554 6.75V13.875V17.25C32.1554 18.9069 33.4946 20.25 35.1466 20.25H48.607C50.672 20.25 52.346 21.9289 52.346 24H35.1466C31.4296 24 28.4164 20.9779 28.4164 17.25ZM33.7042 12.3217C35.1066 10.9152 37.0086 10.125 38.9919 10.125L46.3636 10.125C46.3636 12.1961 44.6896 13.875 42.6246 13.875H32.1554L33.7042 12.3217Z" fill="#DAE6EE"/>
<path d="M60.5718 9.05246e-07C58.5069 9.97829e-07 56.8328 1.67893 56.8328 3.75L77.0235 3.75C77.0235 4.90192 76.3834 5.95784 75.3638 6.4881L60.4841 14.2262C58.2409 15.3927 56.8328 17.7158 56.8328 20.25V24H60.5718L77.0235 24C79.0885 24 80.7625 22.3211 80.7625 20.25L67.4083 20.25C65.4251 20.25 63.523 21.0402 62.1206 22.4467L60.5718 24V20.25C60.5718 19.0981 61.2119 18.0422 62.2315 17.5119L77.1112 9.77381C79.3544 8.60726 80.7625 6.28423 80.7625 3.75V0L60.5718 9.05246e-07Z" fill="#DAE6EE"/>
<path fill-rule="evenodd" clip-rule="evenodd" d="M202.654 24V0H219.853C223.57 0 226.584 3.02208 226.584 6.75V17.25C226.584 20.9779 223.57 24 219.853 24H206.393L207.942 22.4467C209.344 21.0402 211.246 20.25 213.229 20.25H219.853C221.505 20.25 222.845 18.9069 222.845 17.25V6.75C222.845 5.09315 221.505 3.75 219.853 3.75L206.393 3.75V24H202.654Z" fill="#DAE6EE"/>
<path d="M234.809 3.75C234.809 1.67893 233.135 0 231.07 0V24C233.135 24 234.809 22.3211 234.809 20.25V13.875L251.261 13.875V20.25C251.261 22.3211 252.935 24 255 24V0C252.935 0 251.261 1.67893 251.261 3.75V10.125H241.646C239.663 10.125 237.761 10.9152 236.358 12.3217L234.809 13.875V3.75Z" fill="#DAE6EE"/>
</svg>
