<svg width="171" height="16" viewBox="0 0 171 16" fill="none" xmlns="http://www.w3.org/2000/svg">
<path fill-rule="evenodd" clip-rule="evenodd" d="M109 0H97.5V16C98.8807 16 100 14.8807 100 13.5V12H109C110.105 12 111 12.8954 111 14V16H111.5C112.605 16 113.5 15.1046 113.5 14C113.5 12.7224 112.968 11.5691 112.112 10.75C112.968 9.93088 113.5 8.77762 113.5 7.5V4.5C113.5 2.01472 111.485 0 109 0ZM100 12L101.036 10.9645C101.973 10.0268 103.245 9.5 104.571 9.5H109C110.105 9.5 111 8.60457 111 7.5V4.5C111 3.39543 110.105 2.5 109 2.5L100 2.5V12Z" fill="white"/>
<path d="M78.5 0H81C82.6895 0 84.2382 0.941475 85.0159 2.44132L90.1746 12.3903C90.5281 13.0721 91.2321 13.5 92 13.5V2.5C92 1.11929 93.1193 0 94.5 0V16H92C90.3105 16 88.7618 15.0585 87.9841 13.5587L82.8254 3.60969C82.4719 2.92794 81.7679 2.5 81 2.5V13.5C81 14.8807 79.8807 16 78.5 16V0Z" fill="white"/>
<path d="M119 6.03497e-07C117.619 6.6522e-07 116.5 1.11929 116.5 2.5L130 2.5C130 3.26795 129.572 3.9719 128.89 4.3254L118.941 9.48413C117.441 10.2618 116.5 11.8105 116.5 13.5V16H119L130 16C131.381 16 132.5 14.8807 132.5 13.5L123.571 13.5C122.245 13.5 120.973 14.0268 120.036 14.9645L119 16V13.5C119 12.7321 119.428 12.0281 120.11 11.6746L130.059 6.51587C131.559 5.73817 132.5 4.18949 132.5 2.5V0L119 6.03497e-07Z" fill="white"/>
<path d="M61.5055 3.42177C61.8348 2.43177 62.4657 1.56925 63.3102 0.955469C64.1643 0.334705 65.193 0.000236075 66.2489 1.2466e-07C67.3048 -0.000235576 68.3336 0.333774 69.188 0.954157C70.0335 1.56809 70.6652 2.43128 70.9947 3.42221L75.5 15.9983L74.6046 15.9989C73.5483 15.9995 72.6055 15.3362 72.2494 14.3417L68.6231 4.21481C68.4587 3.71776 68.1428 3.28456 67.719 2.97681C67.2918 2.66662 66.7774 2.49961 66.2495 2.49973C65.7215 2.49985 65.2071 2.66708 64.7801 2.97747C64.3567 3.28519 64.0407 3.71794 63.8764 4.21462L60.2506 14.3417C59.8945 15.3362 58.9517 15.9995 57.8954 15.9989L57 15.9983L61.5055 3.42177Z" fill="white"/>
<path fill-rule="evenodd" clip-rule="evenodd" d="M11.5 0H0V16C1.38071 16 2.5 14.8807 2.5 13.5V12H11.5C12.6046 12 13.5 12.8954 13.5 14V16H14C15.1046 16 16 15.1046 16 14C16 12.7224 15.4676 11.5691 14.6125 10.75C15.4676 9.93088 16 8.77762 16 7.5V4.5C16 2.01472 13.9853 0 11.5 0ZM2.5 12L3.53553 10.9645C4.47322 10.0268 5.74499 9.5 7.07107 9.5H11.5C12.6046 9.5 13.5 8.60457 13.5 7.5V4.5C13.5 3.39543 12.6046 2.5 11.5 2.5L2.5 2.5V12Z" fill="white"/>
<path fill-rule="evenodd" clip-rule="evenodd" d="M19 11.5V4.5C19 2.01472 21.0147 0 23.5 0H35C35 1.38071 33.8807 2.5 32.5 2.5H23.5C22.3954 2.5 21.5 3.39543 21.5 4.5V9.25V11.5C21.5 12.6046 22.3954 13.5 23.5 13.5H32.5C33.8807 13.5 35 14.6193 35 16H23.5C21.0147 16 19 13.9853 19 11.5ZM22.5355 8.21447C23.4732 7.27678 24.745 6.75 26.0711 6.75L31 6.75C31 8.13071 29.8807 9.25 28.5 9.25H21.5L22.5355 8.21447Z" fill="white"/>
<path d="M40.5 6.03497e-07C39.1193 6.6522e-07 38 1.11929 38 2.5L51.5 2.5C51.5 3.26795 51.0721 3.9719 50.3903 4.3254L40.4413 9.48413C38.9415 10.2618 38 11.8105 38 13.5V16H40.5L51.5 16C52.8807 16 54 14.8807 54 13.5L45.0711 13.5C43.745 13.5 42.4732 14.0268 41.5355 14.9645L40.5 16V13.5C40.5 12.7321 40.9279 12.0281 41.6097 11.6746L51.5587 6.51587C53.0585 5.73817 54 4.18949 54 2.5V0L40.5 6.03497e-07Z" fill="white"/>
<path fill-rule="evenodd" clip-rule="evenodd" d="M135.5 16V0H147C149.485 0 151.5 2.01472 151.5 4.5V11.5C151.5 13.9853 149.485 16 147 16H138L139.036 14.9645C139.973 14.0268 141.245 13.5 142.571 13.5H147C148.105 13.5 149 12.6046 149 11.5V4.5C149 3.39543 148.105 2.5 147 2.5L138 2.5V16H135.5Z" fill="white"/>
<path d="M157 2.5C157 1.11929 155.881 0 154.5 0V16C155.881 16 157 14.8807 157 13.5V9.25L168 9.25V13.5C168 14.8807 169.119 16 170.5 16V0C169.119 0 168 1.11929 168 2.5V6.75H161.571C160.245 6.75 158.973 7.27678 158.036 8.21447L157 9.25V2.5Z" fill="white"/>
</svg>
