<svg width="1246" height="512" viewBox="0 0 1246 512" fill="none" xmlns="http://www.w3.org/2000/svg">
<g clip-path="url(#clip0_819_173)">
<path d="M1246 -111C1246 -29.1865 1229.89 51.8259 1198.58 127.412C1167.27 202.998 1121.38 271.677 1063.53 329.528C1005.68 387.378 936.998 433.268 861.412 464.577C785.826 495.886 704.814 512 623 512C541.186 512 460.174 495.886 384.588 464.577C309.002 433.268 240.323 387.378 182.472 329.527C124.622 271.677 78.7317 202.998 47.423 127.412C16.1144 51.8259 -7.15236e-06 -29.1865 0 -111L153.186 -111C153.186 -49.3031 165.338 11.7896 188.948 68.7901C212.559 125.791 247.165 177.583 290.791 221.209C334.417 264.835 386.209 299.441 443.21 323.052C500.21 346.662 561.303 358.814 623 358.814C684.697 358.814 745.79 346.662 802.79 323.052C859.791 299.441 911.583 264.835 955.209 221.209C998.835 177.583 1033.44 125.791 1057.05 68.7902C1080.66 11.7897 1092.81 -49.3031 1092.81 -111H1246Z" fill="#F4F7FF"/>
<path d="M967 -99C967 -53.8253 958.102 -9.0929 940.815 32.6431C923.527 74.3791 898.188 112.301 866.245 144.245C834.301 176.188 796.379 201.527 754.643 218.815C712.907 236.102 668.175 245 623 245C577.825 245 533.093 236.102 491.357 218.815C449.621 201.527 411.699 176.188 379.755 144.245C347.812 112.301 322.473 74.3791 305.185 32.6431C287.898 -9.09293 279 -53.8253 279 -99L363.584 -99C363.584 -64.933 370.294 -31.1996 383.331 0.274158C396.368 31.7479 415.476 60.3457 439.565 84.4347C463.654 108.524 492.252 127.632 523.726 140.669C555.2 153.706 588.933 160.416 623 160.416C657.067 160.416 690.8 153.706 722.274 140.669C753.748 127.632 782.346 108.524 806.435 84.4348C830.524 60.3458 849.632 31.748 862.669 0.274179C875.706 -31.1996 882.416 -64.933 882.416 -99H967Z" fill="#F4F7FF"/>
</g>
<defs>
<clipPath id="clip0_819_173">
<rect width="1246" height="512" fill="white"/>
</clipPath>
</defs>
</svg>
