<svg width="48" height="48" viewBox="0 0 48 48" fill="none" xmlns="http://www.w3.org/2000/svg">
<path d="M42.634 37.51L46 7.972L24 0L2 7.972L5.368 37.51L24 48L42.634 37.51ZM15.384 36.622H10.228L24 5.302L37.784 36.622H32.638L29.864 29.614H18.158L15.384 36.622Z" fill="#F44336"/>
<path d="M19.9659 25.296H28.0339L23.9999 15.482L19.9659 25.296Z" fill="#F44336"/>
<path d="M24 5.302L10.228 36.622H15.384L18.158 29.614H24V25.296H19.966L24 15.482V5.302Z" fill="#DEDEDE"/>
<path d="M24 5.33333L37.772 36.6533H32.616L29.842 29.6453H24V25.3273H28.034L24 15.5133V5.33333Z" fill="white"/>
<path d="M24 0L2 7.972L5.368 37.51L24 48V29.614H18.158L15.384 36.622H10.228L24 5.302V0Z" fill="#D43A2F"/>
<path d="M23.9999 15.482L19.9659 25.296H23.9999V15.482Z" fill="#D43A2F"/>
</svg>
