<svg width="160" height="160" viewBox="0 0 160 160" fill="none" xmlns="http://www.w3.org/2000/svg">
<path d="M142.113 125.033L153.333 26.5733L80 0L6.66663 26.5733L17.8933 125.033L80 160L142.113 125.033ZM51.28 122.073H34.0933L80 17.6733L125.947 122.073H108.793L99.5466 98.7133H60.5266L51.28 122.073Z" fill="#C5C9CC"/>
<path d="M66.5533 84.32H93.4467L80 51.6067L66.5533 84.32Z" fill="#C5C9CC"/>
<path d="M80.0001 17.6733L34.0934 122.073H51.2801L60.5267 98.7133H80.0001V84.32H66.5534L80.0001 51.6067V17.6733Z" fill="#E6EBEE"/>
<path d="M79.9999 17.7778L125.907 122.178H108.72L99.4733 98.8178H79.9999V84.4244H93.4466L79.9999 51.7111V17.7778Z" fill="#F2F5F7"/>
<path d="M80 0L6.66663 26.5733L17.8933 125.033L80 160V98.7133H60.5266L51.28 122.073H34.0933L80 17.6733V0Z" fill="#C0C4C7"/>
<path d="M80 51.6067L66.5533 84.32H80V51.6067Z" fill="#C0C4C7"/>
</svg>
