<svg width="72" height="72" viewBox="0 0 72 72" fill="none" xmlns="http://www.w3.org/2000/svg">
<g style="mix-blend-mode:luminosity" clip-path="url(#clip0_1431_33617)">
<path d="M71.775 38.517L71.778 38.577L71.787 38.631L71.775 38.517ZM68.691 30.204L68.736 30.282L68.742 30.291L68.691 30.204Z" fill="black"/>
<path d="M47.2561 31.254H47.1811C44.6761 31.254 42.3841 32.148 40.6171 33.624C38.8411 35.124 37.6651 37.242 37.5271 39.642H37.5301C37.3951 42.108 38.3851 44.394 40.1251 46.095C41.9551 47.841 44.4301 48.912 47.1571 48.912H47.3581C50.0851 48.912 52.5601 47.841 54.3811 46.098C56.1211 44.397 57.1111 42.108 56.9761 39.639C56.8411 37.242 55.6681 35.124 53.8921 33.624C52.0275 32.0783 49.6779 31.2392 47.2561 31.254Z" fill="#C0C4C7"/>
<path d="M66.264 56.895C68.403 54.5547 70.0161 51.7836 70.995 48.768L71.04 48.609C71.6831 46.5845 72.007 44.4722 72 42.348C71.9943 38.3484 70.8632 34.4311 68.736 31.044C67.2736 28.7113 65.4134 26.6532 63.24 24.963L63.186 24.924H63.192L40.638 7.608C39.162 6.474 36.681 6.48 35.058 7.614C33.417 8.76 33.231 10.659 34.689 11.859L34.686 11.862L44.064 19.491L15.435 19.521C13.071 19.524 10.8 21.075 10.35 23.037C9.88802 25.032 11.49 26.688 13.95 26.697V26.703L28.44 26.673L2.47802 46.599C0.0390227 48.465 -0.746977 51.573 0.789023 53.538C2.34902 55.539 5.66402 55.542 8.13002 53.55L22.242 42.003C22.242 42.003 22.035 43.563 22.053 44.496L22.047 44.493C22.065 45.435 22.365 47.259 22.815 48.687C23.7901 51.7654 25.4263 54.5934 27.609 56.973C29.902 59.4908 32.6902 61.5079 35.799 62.898L35.955 62.961C39.3627 64.4764 43.0526 65.2534 46.782 65.241H46.989C50.889 65.241 54.591 64.404 57.936 62.91C61.089 61.5051 63.918 59.4646 66.246 56.916L66.264 56.895ZM61.413 44.862C60.7375 46.68 59.6832 48.3335 58.32 49.713L58.314 49.716C55.404 52.68 51.336 54.36 46.929 54.366C42.519 54.378 38.448 52.71 35.538 49.752C34.1873 48.3955 33.1384 46.769 32.46 44.979L32.43 44.886C31.9245 43.4937 31.6686 42.0232 31.674 40.542C31.674 38.286 32.259 36.168 33.279 34.323C34.1529 32.7561 35.3165 31.3695 36.708 30.237L36.735 30.216C39.561 27.912 43.158 26.667 46.923 26.661C50.688 26.655 54.288 27.891 57.117 30.186C58.557 31.359 59.727 32.748 60.573 34.287C61.41 35.763 61.968 37.503 62.136 39.354L62.139 39.402C62.3039 41.2533 62.0559 43.1181 61.413 44.862Z" fill="#C5C9CC"/>
<path d="M58.0771 62.094C58.0321 62.115 57.9841 62.127 57.9361 62.148C57.9265 62.1518 57.9174 62.1569 57.9091 62.163L58.0771 62.094Z" fill="black"/>
</g>
<defs>
<clipPath id="clip0_1431_33617">
<rect width="72" height="72" fill="white"/>
</clipPath>
</defs>
</svg>
