<svg width="56" height="56" viewBox="0 0 56 56" fill="none" xmlns="http://www.w3.org/2000/svg">
<g clip-path="url(#clip0_1087_816)">
<path d="M55.8249 29.9579L55.8273 30.0045L55.8343 30.0465L55.8249 29.9579ZM53.4262 23.4922L53.4613 23.5529L53.4659 23.5599L53.4262 23.4922Z" fill="black"/>
<path d="M36.7548 24.3087H36.6965C34.7482 24.3087 32.9655 25.0041 31.5912 26.1521C30.2098 27.3187 29.2952 28.9661 29.1878 30.8327H29.1902C29.0852 32.7507 29.8552 34.5287 31.2085 35.8517C32.6318 37.2097 34.5568 38.0427 36.6778 38.0427H36.8342C38.9552 38.0427 40.8802 37.2097 42.2965 35.8541C43.6498 34.5311 44.4198 32.7507 44.3148 30.8304C44.2098 28.9661 43.2975 27.3187 41.9162 26.1521C40.466 24.9499 38.6385 24.2972 36.7548 24.3087Z" fill="#1976D2"/>
<path d="M51.5387 44.2518C53.2024 42.4316 54.457 40.2763 55.2184 37.9308L55.2534 37.8071C55.7536 36.2325 56.0055 34.5896 56.0001 32.9375C55.9956 29.8267 55.1159 26.7799 53.4614 24.1455C52.324 22.3312 50.8772 20.7304 49.1868 19.4158L49.1448 19.3855H49.1494L31.6074 5.91747C30.4594 5.03547 28.5298 5.04014 27.2674 5.92214C25.9911 6.81347 25.8464 8.29047 26.9804 9.22381L26.9781 9.22614L34.2721 15.1598L12.0051 15.1831C10.1664 15.1855 8.40009 16.3918 8.05009 17.9178C7.69075 19.4695 8.93675 20.7575 10.8501 20.7645V20.7691L22.1201 20.7458L1.92742 36.2438C0.0304188 37.6951 -0.580914 40.1125 0.613752 41.6408C1.82709 43.1971 4.40542 43.1995 6.32342 41.6501L17.2994 32.6691C17.2994 32.6691 17.1384 33.8825 17.1524 34.6081L17.1478 34.6058C17.1618 35.3385 17.3951 36.7571 17.7451 37.8678C18.5035 40.2621 19.7761 42.4616 21.4738 44.3125C23.2572 46.2708 25.4258 47.8396 27.8438 48.9208L27.9651 48.9698C30.6155 50.1484 33.4854 50.7528 36.3861 50.7431H36.5471C39.5804 50.7431 42.4598 50.0921 45.0614 48.9301C47.5137 47.8375 49.7141 46.2504 51.5248 44.2681L51.5387 44.2518ZM47.7658 34.8928C47.2404 36.3068 46.4204 37.5929 45.3601 38.6658L45.3554 38.6681C43.0921 40.9735 39.9281 42.2801 36.5004 42.2848C33.0704 42.2941 29.9041 40.9968 27.6408 38.6961C26.5902 37.6411 25.7744 36.376 25.2467 34.9838L25.2234 34.9115C24.8303 33.8286 24.6312 32.6848 24.6354 31.5328C24.6354 29.7781 25.0904 28.1308 25.8838 26.6958C26.5634 25.4771 27.4685 24.3987 28.5508 23.5178L28.5718 23.5015C30.7698 21.7095 33.5674 20.7411 36.4958 20.7365C39.4241 20.7318 42.2241 21.6931 44.4244 23.4781C45.5444 24.3905 46.4544 25.4708 47.1124 26.6678C47.7634 27.8158 48.1974 29.1691 48.3281 30.6088L48.3304 30.6461C48.4586 32.086 48.2658 33.5364 47.7658 34.8928Z" fill="#FF9800"/>
<path d="M45.1712 48.2954C45.1362 48.3117 45.0989 48.3211 45.0615 48.3374C45.0541 48.3404 45.047 48.3443 45.0405 48.3491L45.1712 48.2954Z" fill="black"/>
</g>
<defs>
<clipPath id="clip0_1087_816">
<rect width="56" height="56" fill="white"/>
</clipPath>
</defs>
</svg>
