<svg width="56" height="56" viewBox="0 0 56 56" fill="none" xmlns="http://www.w3.org/2000/svg">
<path d="M18.6668 56.0002C23.8188 56.0002 28.0002 51.8188 28.0002 46.6668V37.3335H18.6668C13.5148 37.3335 9.3335 41.5148 9.3335 46.6668C9.3335 51.8188 13.5148 56.0002 18.6668 56.0002Z" fill="#0ACF83"/>
<path d="M9.3335 27.9998C9.3335 22.8478 13.5148 18.6665 18.6668 18.6665H28.0002V37.3332H18.6668C13.5148 37.3332 9.3335 33.1518 9.3335 27.9998Z" fill="#A259FF"/>
<path d="M9.3335 9.33333C9.3335 4.18133 13.5148 0 18.6668 0H28.0002V18.6667H18.6668C13.5148 18.6667 9.3335 14.4853 9.3335 9.33333Z" fill="#F24E1E"/>
<path d="M28 0H37.3333C42.4853 0 46.6667 4.18133 46.6667 9.33333C46.6667 14.4853 42.4853 18.6667 37.3333 18.6667H28V0Z" fill="#FF7262"/>
<path d="M46.6667 27.9998C46.6667 33.1518 42.4853 37.3332 37.3333 37.3332C32.1813 37.3332 28 33.1518 28 27.9998C28 22.8478 32.1813 18.6665 37.3333 18.6665C42.4853 18.6665 46.6667 22.8478 46.6667 27.9998Z" fill="#1ABCFE"/>
</svg>
