<svg width="160" height="160" viewBox="0 0 160 160" fill="none" xmlns="http://www.w3.org/2000/svg">
<path d="M53.3333 160C68.0533 160 80 148.053 80 133.333V106.667H53.3333C38.6133 106.667 26.6666 118.613 26.6666 133.333C26.6666 148.053 38.6133 160 53.3333 160Z" fill="#CCD0D3"/>
<path d="M26.6666 80C26.6666 65.28 38.6133 53.3333 53.3333 53.3333H80V106.667H53.3333C38.6133 106.667 26.6666 94.72 26.6666 80Z" fill="#C9CDD0"/>
<path d="M26.6666 26.6667C26.6666 11.9467 38.6133 0 53.3333 0H80V53.3333H53.3333C38.6133 53.3333 26.6666 41.3867 26.6666 26.6667Z" fill="#C6CACD"/>
<path d="M80 0H106.667C121.387 0 133.333 11.9467 133.333 26.6667C133.333 41.3867 121.387 53.3333 106.667 53.3333H80V0Z" fill="#D1D5D8"/>
<path d="M133.333 80C133.333 94.72 121.387 106.667 106.667 106.667C91.9467 106.667 80 94.72 80 80C80 65.28 91.9467 53.3333 106.667 53.3333C121.387 53.3333 133.333 65.28 133.333 80Z" fill="#CED2D5"/>
</svg>
