<svg width="48" height="48" viewBox="0 0 48 48" fill="none" xmlns="http://www.w3.org/2000/svg">
<path d="M40.2166 7.78352C39.3363 6.89903 38.2895 6.19767 37.1367 5.71992C35.9839 5.24217 34.7479 4.99749 33.5 5.00002C32.2523 4.99834 31.0165 5.2434 29.8638 5.7211C28.7112 6.19881 27.6643 6.89972 26.7835 7.78352L5.03681 29.529L5 43H18.433L40.2166 21.2165C41.099 20.3347 41.799 19.2877 42.2766 18.1352C42.7542 16.9828 43 15.7475 43 14.5C43 13.2525 42.7542 12.0173 42.2766 10.8648C41.799 9.71236 41.099 8.66532 40.2166 7.78352ZM16.4665 38.25H14.5V33.5H9.77732L9.78207 31.505L30.1418 11.1418L36.8583 17.8583L16.4665 38.25Z" fill="white"/>
</svg>
