<svg width="56" height="56" viewBox="0 0 56 56" fill="none" xmlns="http://www.w3.org/2000/svg">
<g clip-path="url(#clip0_1087_811)">
<path d="M46.2 0H9.8C4.38761 0 0 4.53891 0 10.1379V45.8621C0 51.4611 4.38761 56 9.8 56H46.2C51.6124 56 56 51.4611 56 45.8621V10.1379C56 4.53891 51.6124 0 46.2 0Z" fill="#330000"/>
<path d="M39.2538 18.953C40.7639 18.953 42.0002 17.6776 42.0002 16.1144C42.0002 14.5513 40.7639 13.2759 39.2538 13.2759C37.7438 13.2759 36.5075 14.5513 36.5075 16.1144C36.5075 17.6889 37.7308 18.953 39.2538 18.953ZM36.5705 21.4381H41.8763V42.2414H36.5705V21.4381ZM19.6884 35.2662H26.8671L28.8074 42.2346H34.2414L26.35 14.9002H19.7536V17.5983L12.8335 42.2346H17.7482L19.6884 35.2662ZM23.2452 19.764L25.8981 30.4862H20.5945L23.2452 19.764Z" fill="#FF9A00"/>
</g>
<defs>
<clipPath id="clip0_1087_811">
<rect width="56" height="56" fill="white"/>
</clipPath>
</defs>
</svg>
