<svg width="48" height="48" viewBox="0 0 48 48" fill="none" xmlns="http://www.w3.org/2000/svg">
<path d="M21.8305 0.60936C23.0155 -0.0689376 24.559 -0.0720014 25.743 0.60936C31.6996 3.97515 37.658 7.33566 43.6136 10.7035C44.7338 11.3345 45.4831 12.5811 45.4717 13.8718V34.1217C45.48 35.4659 44.6567 36.7423 43.4749 37.359C37.5379 40.7062 31.6039 44.0575 25.6679 47.4048C24.4584 48.0963 22.8839 48.0431 21.7122 47.2948C19.9323 46.263 18.1493 45.2363 16.3692 44.2054C16.0054 43.9886 15.5954 43.816 15.3386 43.4633C15.5656 43.1573 15.9716 43.1191 16.3014 42.9855C17.0444 42.7493 17.7268 42.37 18.4094 42.002C18.582 41.8839 18.7927 41.9292 18.9581 42.0349C20.4802 42.9076 21.9888 43.8056 23.5159 44.67C23.8417 44.858 24.1716 44.6083 24.45 44.4531C30.2761 41.1603 36.1093 37.88 41.9343 34.5862C42.1501 34.4824 42.2694 34.2533 42.2519 34.0168C42.256 27.3368 42.2529 20.6557 42.254 13.9757C42.2786 13.7074 42.1234 13.4608 41.8808 13.351C35.9644 10.0191 30.0511 6.68204 24.1357 3.34928C24.0332 3.27882 23.9118 3.24101 23.7874 3.24083C23.663 3.24065 23.5415 3.2781 23.4388 3.34825C17.5234 6.68204 11.6111 10.0221 5.69566 13.3539C5.45396 13.4638 5.29174 13.7064 5.32051 13.9757C5.32153 20.6557 5.32051 27.3368 5.32051 34.0179C5.31025 34.1332 5.33559 34.249 5.39311 34.3495C5.45062 34.45 5.53756 34.5305 5.64221 34.5801C7.22076 35.4752 8.80136 36.3641 10.3809 37.2562C11.2708 37.7351 12.3634 38.0197 13.3438 37.6528C14.209 37.3425 14.8155 36.4596 14.799 35.5409C14.8071 28.8999 14.7949 22.2579 14.8051 15.6179C14.7835 15.3231 15.0631 15.0795 15.3498 15.1072C16.1083 15.1021 16.8677 15.097 17.6262 15.1093C17.9428 15.1021 18.1607 15.4196 18.1215 15.7166C18.1185 22.3997 18.1297 29.0829 18.1164 35.766C18.1185 37.5471 17.3867 39.4851 15.7392 40.3566C13.7096 41.408 11.201 41.185 9.19591 40.1768C7.46008 39.3105 5.80357 38.288 4.09855 37.3598C2.9137 36.7465 2.09447 35.465 2.10281 34.1219V13.8718C2.09038 12.5544 2.86945 11.2851 4.02451 10.6633C9.96051 7.31336 15.8955 3.96085 21.8305 0.60936Z" fill="#8CC84B"/>
<path d="M27.009 14.6366C29.598 14.47 32.3695 14.5379 34.6993 15.8133C36.503 16.7906 37.503 18.8419 37.5348 20.8458C37.4844 21.1161 37.2019 21.2652 36.9438 21.2466C36.1927 21.2456 35.4414 21.2569 34.6902 21.2415C34.3716 21.2538 34.1864 20.96 34.1464 20.6783C33.9306 19.7195 33.4077 18.7699 32.5052 18.3074C31.1198 17.6138 29.5135 17.6487 28.0029 17.6632C26.9001 17.7217 25.7142 17.8172 24.7799 18.4657C24.0627 18.9569 23.8448 19.9486 24.1008 20.7472C24.3421 21.3207 25.0041 21.5057 25.5457 21.6763C28.6657 22.4923 31.9719 22.4111 35.0324 23.4849C36.2994 23.9227 37.5389 24.7738 37.9726 26.1004C38.5399 27.8785 38.2913 30.0037 37.0262 31.4311C36.0004 32.6058 34.5062 33.2451 33.016 33.5923C31.0335 34.0344 28.9762 34.0456 26.9629 33.8494C25.0698 33.6335 23.0998 33.1362 21.6383 31.8463C20.3886 30.7612 19.7782 29.0705 19.8388 27.4386C19.8533 27.1631 20.1277 26.9709 20.3917 26.9935C21.1481 26.9874 21.9045 26.9854 22.661 26.9946C22.9631 26.9729 23.1871 27.234 23.2026 27.5188C23.3421 28.4323 23.6855 29.3911 24.4821 29.9328C26.0194 30.9246 27.9484 30.8567 29.7088 30.8844C31.1672 30.8197 32.8043 30.8002 33.9944 29.8363C34.6223 29.2865 34.8084 28.3666 34.6387 27.5753C34.4548 26.9072 33.7559 26.5959 33.1558 26.3923C30.0758 25.418 26.7326 25.7716 23.6824 24.6698C22.4441 24.2322 21.2467 23.4048 20.7709 22.1326C20.1071 20.3321 20.4112 18.105 21.8089 16.7258C23.1716 15.3539 25.1387 14.8257 27.009 14.6366Z" fill="#8CC84B"/>
</svg>
