<svg width="72" height="72" viewBox="0 0 72 72" fill="none" xmlns="http://www.w3.org/2000/svg">
<path d="M33.2106 5.92632C34.7342 5.05422 36.7187 5.05028 38.241 5.92632C45.8995 10.2538 53.5604 14.5744 61.2175 18.9045C62.6578 19.7157 63.6211 21.3186 63.6064 22.9781V49.0136C63.6172 50.7418 62.5586 52.3829 61.0392 53.1758C53.4059 57.4794 45.7765 61.7882 38.1445 66.0918C36.5894 66.981 34.5651 66.9125 33.0585 65.9505C30.7701 64.6238 28.4777 63.3037 26.189 61.9784C25.7213 61.6996 25.1941 61.4777 24.8639 61.0243C25.1558 60.6308 25.6778 60.5818 26.1019 60.41C27.0571 60.1062 27.9345 59.6186 28.8121 59.1455C29.034 58.9936 29.3049 59.0518 29.5176 59.1877C31.4745 60.3097 33.4142 61.4644 35.3776 62.5757C35.7965 62.8175 36.2206 62.4964 36.5787 62.2968C44.0693 58.0633 51.5691 53.8457 59.0584 49.6108C59.3359 49.4773 59.4893 49.1828 59.4668 48.8788C59.472 40.2902 59.4681 31.7001 59.4694 23.1116C59.5011 22.7667 59.3016 22.4496 58.9897 22.3084C51.3829 18.0245 43.78 13.7341 36.1745 9.44907C36.0427 9.35848 35.8866 9.30987 35.7267 9.30963C35.5668 9.3094 35.4105 9.35755 35.2785 9.44775C27.673 13.7341 20.0714 18.0284 12.4659 22.3121C12.1551 22.4535 11.9466 22.7653 11.9835 23.1116C11.9849 31.7001 11.9835 40.2902 11.9835 48.8801C11.9704 49.0284 12.0029 49.1772 12.0769 49.3065C12.1508 49.4357 12.2626 49.5392 12.3972 49.603C14.4267 50.7539 16.4589 51.8967 18.4898 53.0436C19.6339 53.6595 21.0387 54.0254 22.2992 53.5536C23.4116 53.1546 24.1914 52.0194 24.1701 50.8383C24.1807 42.2999 24.1649 33.7601 24.178 25.223C24.1502 24.8439 24.5098 24.5308 24.8783 24.5664C25.8535 24.5599 26.83 24.5533 27.8052 24.5691C28.2122 24.5599 28.4923 24.968 28.442 25.3499C28.4381 33.9424 28.4525 42.5351 28.4354 51.1277C28.4381 53.4176 27.4972 55.9094 25.379 57.0299C22.7695 58.3817 19.5442 58.095 16.9662 56.7988C14.7344 55.6849 12.6046 54.3703 10.4125 53.1769C8.88908 52.3884 7.83578 50.7407 7.8465 49.0138V22.9781C7.83053 21.2842 8.83218 19.6523 10.3173 18.8528C17.9493 14.5457 25.5799 10.2354 33.2106 5.92632Z" fill="#C0C4C7"/>
<path d="M39.8688 23.9613C43.1974 23.7471 46.7609 23.8344 49.7562 25.4742C52.0753 26.7308 53.361 29.3681 53.4019 31.9446C53.3372 32.2921 52.9739 32.4838 52.6421 32.46C51.6763 32.4586 50.7104 32.4731 49.7446 32.4534C49.3349 32.4691 49.0968 32.0914 49.0454 31.7292C48.7679 30.4965 48.0956 29.2755 46.9353 28.6809C45.1541 27.7891 43.0889 27.834 41.1466 27.8526C39.7287 27.9279 38.204 28.0507 37.0028 28.8845C36.0806 29.5161 35.8004 30.791 36.1296 31.8179C36.4399 32.5552 37.291 32.793 37.9874 33.0123C41.9988 34.0615 46.2496 33.9571 50.1845 35.3378C51.8136 35.9006 53.4072 36.9949 53.9648 38.7005C54.6942 40.9866 54.3745 43.7191 52.748 45.5543C51.429 47.0646 49.508 47.8866 47.592 48.333C45.0431 48.9013 42.398 48.9158 39.8095 48.6635C37.3755 48.386 34.8426 47.7465 32.9636 46.0881C31.3568 44.693 30.572 42.5192 30.6499 40.4211C30.6685 40.0668 31.0213 39.8197 31.3607 39.8488C32.3333 39.8409 33.3058 39.8383 34.2784 39.8501C34.6668 39.8223 34.9548 40.158 34.9747 40.5242C35.1542 41.6987 35.5956 42.9315 36.6198 43.6278C38.5964 44.903 41.0766 44.8157 43.3399 44.8514C45.2149 44.7682 47.3198 44.7431 48.85 43.5037C49.6573 42.7969 49.8965 41.6142 49.6783 40.5968C49.4419 39.7379 48.5434 39.3376 47.7717 39.0759C43.8117 37.8232 39.5134 38.2777 35.5917 36.8611C33.9996 36.2985 32.46 35.2347 31.8483 33.599C30.9948 31.2841 31.3859 28.4207 33.1828 26.6474C34.9349 24.8835 37.4641 24.2045 39.8688 23.9613Z" fill="#C0C4C7"/>
</svg>
