<svg width="56" height="56" viewBox="0 0 56 56" fill="none" xmlns="http://www.w3.org/2000/svg">
<g clip-path="url(#clip0_1087_1082)">
<path d="M46.2 0H9.8C4.38761 0 0 4.53891 0 10.1379V45.8621C0 51.4611 4.38761 56 9.8 56H46.2C51.6124 56 56 51.4611 56 45.8621V10.1379C56 4.53891 51.6124 0 46.2 0Z" fill="#001E36"/>
<path d="M11.6665 41.2471V14.9657C11.6469 14.8085 11.776 14.6748 11.9279 14.6953C13.8202 14.6446 16.0532 14.4829 18.9652 14.4829C22.3999 14.4829 24.9199 15.2239 26.5252 16.8195C28.1023 18.3459 28.9778 20.4942 28.9332 22.7284C28.9332 25.6395 27.9376 27.8022 25.9465 29.2167C23.9553 30.6312 21.4509 31.3392 18.4332 31.3408L16.3332 31.3795V41.2084C16.3584 41.3887 16.2088 41.5432 16.0345 41.5174H11.9652C11.7669 41.5174 11.6665 41.4281 11.6665 41.2471ZM16.3332 18.2533V27.7588C16.3332 27.7588 17.3972 27.7153 18.6665 27.7153C20.3356 27.7153 21.6859 27.3354 22.7172 26.576C23.7485 25.8164 24.2649 24.5726 24.2665 22.8443C24.2665 21.325 23.8122 20.1536 22.9039 19.3298C21.9953 18.5057 20.6825 18.0971 18.9652 18.1036C18.5429 18.1036 18.1252 18.1036 17.7145 18.1229C17.3039 18.1422 16.9679 18.1422 16.7065 18.1422C16.4452 18.1422 16.3052 18.1326 16.3332 18.2533ZM44.3332 35.2415C44.3332 38.1984 42.4665 39.5864 42.4665 39.5864V39.5719C42.3545 39.6853 42.2332 39.7915 42.1142 39.8953C40.8292 40.9767 39.0925 41.5174 36.9039 41.5174C34.7152 41.5174 32.9262 41.1005 31.5372 40.267C31.3788 40.2098 31.2812 40.0455 31.3039 39.8736V36.236C31.2966 36.1525 31.3321 36.0712 31.3972 36.0212C31.4497 35.9818 31.5223 35.9903 31.5652 36.0405C33.0459 37.244 34.8713 37.9047 36.7545 37.9184C37.6239 37.9184 38.2899 37.7574 38.7519 37.4357C39.1849 37.1682 39.4507 36.6852 39.4519 36.1636C39.4619 35.64 39.2587 35.1363 38.8919 34.7757C38.5185 34.3957 37.7842 33.9847 36.6892 33.5422C34.6965 32.7375 33.3089 31.8702 32.5265 30.9402C31.6982 30.0082 31.2474 28.7829 31.2665 27.5174C31.2675 25.9243 31.9346 24.4094 33.0959 23.3633C34.2639 22.2674 35.9316 21.7195 38.0985 21.7195C40.1206 21.7195 41.6762 22.0067 42.7652 22.5812C42.8889 22.6584 42.9519 22.8226 42.9519 23.0881V26.3346C42.9519 26.6484 42.8399 26.7257 42.6159 26.576C41.3178 25.6938 39.8009 25.2185 38.2479 25.2074C37.3752 25.2074 36.7359 25.3788 36.3252 25.7167C35.946 25.9948 35.7176 26.4428 35.7092 26.9236C35.7078 27.3924 35.8975 27.8401 36.2319 28.157C36.5802 28.5095 37.3145 28.9198 38.4345 29.3881C40.3882 30.1781 41.7882 31.0085 42.6345 31.8791L42.6555 31.9008C43.5259 32.7288 44.3332 33.8681 44.3332 35.2415Z" fill="#31A8FF"/>
</g>
<defs>
<clipPath id="clip0_1087_1082">
<rect width="56" height="56" fill="white"/>
</clipPath>
</defs>
</svg>
