<svg width="72" height="72" viewBox="0 0 72 72" fill="none" xmlns="http://www.w3.org/2000/svg">
<g style="mix-blend-mode:luminosity">
<path d="M0.00435517 64.9868V7.06397C-0.0388422 6.71765 0.245546 6.42292 0.580326 6.46814C4.75093 6.35643 9.67235 6 16.0902 6C23.6601 6 29.214 7.6332 32.7521 11.1496C36.2279 14.5139 38.1574 19.2486 38.0592 24.1727C38.0592 30.5885 35.8649 35.3551 31.4767 38.4725C27.0881 41.59 21.5686 43.1503 14.9177 43.154L10.2895 43.2391V64.9016C10.345 65.299 10.0154 65.6395 9.63121 65.5826H0.6626C0.225484 65.5826 0.00435517 65.3858 0.00435517 64.9868ZM10.2895 14.3096V35.2593C10.2895 35.2593 12.6345 35.1635 15.432 35.1635C19.1105 35.1635 22.0864 34.3262 24.3595 32.6526C26.6325 30.9784 27.7705 28.2371 27.7741 24.428C27.7741 21.0797 26.7729 18.498 24.7709 16.6823C22.7684 14.8661 19.8752 13.9654 16.0902 13.9798C15.1594 13.9798 14.2389 13.9798 13.3338 14.0224C12.4287 14.0649 11.6882 14.0649 11.1122 14.0649C10.5363 14.0649 10.2277 14.0436 10.2895 14.3096ZM72 51.7509C72 58.2678 67.886 61.3267 67.886 61.3267V61.2948C67.6391 61.5448 67.3717 61.7789 67.1094 62.0076C64.2774 64.3909 60.4498 65.5826 55.6261 65.5826C50.8024 65.5826 46.8596 64.6638 43.7983 62.8269C43.4491 62.7008 43.2341 62.3385 43.284 61.9598V53.9427C43.2681 53.7586 43.3463 53.5794 43.4897 53.4692C43.6054 53.3825 43.7654 53.4011 43.86 53.5118C47.1235 56.1643 51.1465 57.6203 55.297 57.6507C57.2131 57.6507 58.6808 57.2958 59.699 56.5867C60.6535 55.9972 61.2392 54.9327 61.2418 53.7831C61.2639 52.6292 60.816 51.519 60.0076 50.7242C59.1848 49.8868 57.5664 48.9809 55.153 48.0057C50.7613 46.2321 47.703 44.3206 45.9787 42.2709C44.1531 40.2169 43.1596 37.5165 43.2017 34.7273C43.2038 31.2162 44.6741 27.8774 47.2335 25.5718C49.8079 23.1566 53.4832 21.949 58.2591 21.949C62.7157 21.949 66.1442 22.582 68.5442 23.8482C68.8168 24.0184 68.9556 24.3802 68.9556 24.9653V32.1206C68.9556 32.8122 68.7088 32.9824 68.2151 32.6526C65.3543 30.7082 62.0111 29.6607 58.5882 29.6362C56.6649 29.6362 55.2559 30.0139 54.3508 30.7587C53.5151 31.3715 53.0117 32.3589 52.9931 33.4186C52.9901 34.4517 53.4082 35.4386 54.1451 36.1371C54.9129 36.9138 56.5312 37.8182 58.9996 38.8502C63.3055 40.5914 66.391 42.4215 68.2562 44.3403L68.3025 44.3882C70.2207 46.2129 72 48.7239 72 51.7509Z" fill="#C0C4C7"/>
</g>
</svg>
