<svg width="48" height="48" viewBox="0 0 48 48" fill="none" xmlns="http://www.w3.org/2000/svg">
<path d="M37.6906 16.9383C37.2397 16.7836 36.7849 16.6403 36.3268 16.5085C36.4027 16.1998 36.473 15.8897 36.5375 15.5784C37.5698 10.5671 36.8949 6.53 34.5898 5.20106C32.3799 3.92648 28.7654 5.25543 25.1149 8.43211C24.7552 8.74585 24.4035 9.06862 24.0601 9.40013C23.8301 9.1797 23.5961 8.96355 23.3581 8.75178C19.5323 5.3548 15.6976 3.92348 13.395 5.25637C11.1871 6.5345 10.5331 10.3299 11.4625 15.0791C11.555 15.5494 11.6594 16.0173 11.7756 16.4823C11.233 16.6364 10.709 16.8006 10.2076 16.9754C5.72242 18.5391 2.85791 20.99 2.85791 23.532C2.85791 26.1576 5.93278 28.7911 10.6047 30.3878C10.9835 30.5167 11.3655 30.6361 11.7503 30.7459C11.6253 31.2469 11.5143 31.7513 11.4175 32.2584C10.5314 36.9251 11.2234 40.6305 13.4255 41.9008C15.7 43.2123 19.5173 41.8642 23.2346 38.615C23.5284 38.3581 23.8233 38.0857 24.1186 37.8001C24.4905 38.159 24.8724 38.5074 25.2638 38.845C28.8644 41.9433 32.4204 43.1945 34.6206 41.9208C36.893 40.6054 37.6313 36.6247 36.6725 31.7816C36.5994 31.4117 36.5141 31.0339 36.4184 30.6492C36.6866 30.5701 36.9496 30.4883 37.2063 30.4032C42.0631 28.7941 45.2229 26.1927 45.2229 23.532C45.2229 20.9808 42.2661 18.5134 37.6906 16.9383Z" fill="#53C1DE"/>
<path d="M36.6371 28.6854C36.4055 28.7621 36.1678 28.8361 35.9255 28.9079C35.3893 27.2106 34.6656 25.4056 33.7803 23.541C34.6253 21.7204 35.3209 19.9387 35.8421 18.2522C36.2754 18.3778 36.6961 18.51 37.1015 18.6497C41.022 19.9991 43.4132 21.9945 43.4132 23.532C43.4132 25.1697 40.8303 27.2959 36.6371 28.6854ZM34.8972 32.1332C35.3211 34.2747 35.3816 36.2109 35.1008 37.7246C34.8484 39.0846 34.3411 39.9913 33.7137 40.3545C32.3786 41.1274 29.5233 40.1228 26.4443 37.4731C26.0912 37.1694 25.7355 36.845 25.3789 36.5019C26.5727 35.1962 27.7657 33.6783 28.93 31.9927C30.9782 31.8111 32.9131 31.5139 34.6679 31.1083C34.7541 31.4571 34.831 31.7989 34.8972 32.1332ZM17.301 40.221C15.9966 40.6817 14.9577 40.6948 14.3298 40.3328C12.9934 39.5622 12.438 36.5867 13.1957 32.5959C13.2858 32.1243 13.3889 31.6552 13.505 31.1893C15.2403 31.5731 17.1611 31.8493 19.2142 32.0158C20.3862 33.6652 21.6137 35.1812 22.8508 36.5089C22.5879 36.7632 22.3187 37.011 22.0436 37.2521C20.3999 38.689 18.7528 39.7082 17.3012 40.221H17.301ZM11.1901 28.6753C9.12429 27.9692 7.4183 27.0516 6.24891 26.0504C5.19821 25.1504 4.6676 24.257 4.6676 23.532C4.6676 21.9895 6.96757 20.0217 10.8035 18.6844C11.2849 18.5172 11.7712 18.3642 12.2616 18.2256C12.7918 19.9499 13.4872 21.7529 14.3265 23.576C13.4764 25.4264 12.771 27.258 12.2359 29.0026C11.8847 28.9021 11.536 28.7929 11.1901 28.6753ZM13.2386 14.7315C12.4423 10.6623 12.9711 7.59289 14.3017 6.82267C15.7191 6.00221 18.8531 7.17216 22.1563 10.1051C22.3674 10.2926 22.5795 10.4889 22.7919 10.6919C21.5612 12.0136 20.3449 13.5182 19.1831 15.158C17.1906 15.3427 15.2832 15.6393 13.5298 16.0366C13.4218 15.604 13.3247 15.169 13.2386 14.7315ZM31.5129 19.2438C31.0988 18.5285 30.6692 17.8221 30.2247 17.1252C31.5765 17.2958 32.8715 17.5227 34.0876 17.8003C33.7225 18.9705 33.2675 20.1941 32.7316 21.4484C32.3401 20.7055 31.9338 19.9705 31.5129 19.2438ZM24.0607 11.9853C24.8954 12.8895 25.7314 13.8994 26.5538 14.9949C24.8856 14.9161 23.2147 14.9157 21.5466 14.9938C22.3697 13.9084 23.2128 12.9 24.0607 11.9853ZM16.5606 19.2562C16.145 19.9771 15.7463 20.7076 15.3648 21.4471C14.8377 20.1971 14.3868 18.968 14.0186 17.7812C15.2273 17.5107 16.5164 17.2896 17.8594 17.1218C17.4098 17.823 16.9768 18.5347 16.5606 19.2562ZM17.898 30.0713C16.5105 29.9165 15.202 29.7067 13.9937 29.4436C14.3677 28.2358 14.8286 26.9803 15.3668 25.7035C15.75 26.4435 16.1504 27.1745 16.5679 27.8957C16.9939 28.6314 17.4374 29.3568 17.898 30.0713ZM24.1107 35.2065C23.253 34.2809 22.3974 33.2572 21.5618 32.1561C22.3729 32.1879 23.1999 32.2041 24.0404 32.2041C24.904 32.2041 25.7577 32.1847 26.5978 32.1472C25.7728 33.2684 24.9398 34.2936 24.1107 35.2065ZM32.7489 25.6385C33.3151 26.9291 33.7924 28.1778 34.1716 29.3652C32.9431 29.6455 31.617 29.8713 30.2196 30.0389C30.6674 29.329 31.101 28.6103 31.5202 27.8831C31.9464 27.1441 32.356 26.3957 32.7489 25.6385ZM29.9524 26.979C29.3107 28.0938 28.6328 29.1875 27.92 30.2583C26.6631 30.3481 25.3641 30.3944 24.0404 30.3944C22.7222 30.3944 21.4397 30.3533 20.2047 30.2733C19.4734 29.205 18.7827 28.1094 18.1342 26.989C17.4888 25.8744 16.8859 24.7358 16.3268 23.5755C16.8844 22.4148 17.4855 21.2756 18.1288 20.1601V20.1605C18.7719 19.0448 19.4571 17.9539 20.183 16.8903C21.4429 16.795 22.7347 16.7451 24.0406 16.7451C25.3523 16.7451 26.6458 16.7954 27.9054 16.8914C28.6239 17.9534 29.3048 19.0405 29.9466 20.1506C30.5921 21.2635 31.2012 22.3972 31.773 23.5498C31.2071 24.7141 30.5997 25.8579 29.9524 26.979ZM33.686 6.76886C35.1045 7.58708 35.6563 10.8864 34.765 15.2131C34.7065 15.495 34.643 15.7758 34.5745 16.0553C32.8169 15.6498 30.9083 15.3479 28.91 15.1604C27.7458 13.5028 26.5397 11.9956 25.3289 10.691C25.6462 10.3851 25.971 10.0872 26.3031 9.79742C29.4308 7.07541 32.354 6.00071 33.686 6.76886Z" fill="#424657"/>
<path d="M24.0405 19.7489C26.1299 19.7489 27.8235 21.4428 27.8235 23.532C27.8235 25.6214 26.1299 27.3152 24.0405 27.3152C21.9512 27.3152 20.2574 25.6214 20.2574 23.532C20.2574 21.4428 21.9512 19.7489 24.0405 19.7489Z" fill="#53C1DE"/>
</svg>
