<svg width="34" height="34" viewBox="0 0 34 34" fill="none" xmlns="http://www.w3.org/2000/svg">
<path d="M15.2088 5.60496C15.9442 4.12484 18.0556 4.12485 18.791 5.60496L21.2562 10.5665C21.5474 11.1526 22.107 11.5592 22.7544 11.655L28.2349 12.4663C29.8698 12.7084 30.5223 14.7164 29.3418 15.8732L25.3849 19.7509C24.9175 20.209 24.7037 20.8668 24.8126 21.5122L25.7346 26.9751C26.0096 28.6048 24.3015 29.8459 22.8365 29.0807L17.9259 26.5157C17.3458 26.2127 16.6541 26.2127 16.074 26.5157L11.1633 29.0807C9.69835 29.8459 7.99018 28.6048 8.26522 26.9751L9.18718 21.5122C9.2961 20.8668 9.08236 20.209 8.61491 19.7509L4.65798 15.8732C3.47756 14.7164 4.13003 12.7084 5.76495 12.4663L11.2454 11.655C11.8929 11.5592 12.4524 11.1526 12.7437 10.5665L15.2088 5.60496Z" fill="#54596C"/>
<path fill-rule="evenodd" clip-rule="evenodd" d="M24.374 7.85112L28.8211 8.50945C33.7258 9.23553 35.6832 15.2597 32.1419 18.7301L28.9311 21.8766L29.6793 26.3095C30.5044 31.1986 25.3799 34.9217 20.9851 32.6262L17.0003 30.5449L13.0156 32.6262C8.62079 34.9217 3.4963 31.1986 4.32141 26.3095L5.06953 21.8766L1.85872 18.7301C-1.68254 15.2597 0.274845 9.23553 5.17961 8.50945L9.62669 7.85112L11.627 3.82513C13.8332 -0.615212 20.1674 -0.61521 22.3736 3.82513L24.374 7.85112ZM18.7914 5.60496C18.056 4.12485 15.9446 4.12484 15.2092 5.60496L12.7441 10.5665C12.4529 11.1526 11.8933 11.5592 11.2458 11.655L5.76536 12.4663C4.13044 12.7084 3.47798 14.7164 4.6584 15.8732L8.61533 19.7509C9.08278 20.209 9.29652 20.8668 9.1876 21.5122L8.26564 26.9751C7.9906 28.6048 9.69876 29.8459 11.1637 29.0807L16.0744 26.5157C16.6545 26.2127 17.3462 26.2127 17.9263 26.5157L22.837 29.0807C24.3019 29.8459 26.0101 28.6048 25.735 26.9751L24.8131 21.5122C24.7041 20.8668 24.9179 20.209 25.3853 19.7509L29.3423 15.8732C30.5227 14.7164 29.8702 12.7084 28.2353 12.4663L22.7548 11.655C22.1074 11.5592 21.5478 11.1526 21.2566 10.5665L18.7914 5.60496Z" fill="#242734"/>
</svg>
