<svg width="48" height="48" viewBox="0 0 48 48" fill="none" xmlns="http://www.w3.org/2000/svg">
<path d="M25.3334 30.5385C25.3334 29.8162 24.7364 29.2308 24 29.2308C23.2636 29.2308 22.6667 29.8162 22.6667 30.5385C22.6667 31.2607 23.2636 31.8462 24 31.8462C24.7364 31.8462 25.3334 31.2607 25.3334 30.5385Z" fill="white"/>
<path d="M37.7467 35.7692H10.2533C8.59593 35.7658 7.00741 35.1185 5.83545 33.9691C4.66349 32.8197 4.00352 31.2617 4 29.6362V13.1331C4.00352 11.5075 4.66349 9.94958 5.83545 8.80015C7.00741 7.65073 8.59593 7.00345 10.2533 7H37.7467C39.4041 7.00345 40.9926 7.65073 42.1646 8.80015C43.3365 9.94958 43.9965 11.5075 44 13.1331V29.6362C43.9965 31.2617 43.3365 32.8197 42.1646 33.9691C40.9926 35.1185 39.4041 35.7658 37.7467 35.7692ZM10.2533 9.61538C9.30209 9.61538 8.38981 9.986 7.71718 10.6457C7.04455 11.3054 6.66667 12.2001 6.66667 13.1331V29.6362C6.66667 30.0981 6.75944 30.5555 6.93969 30.9823C7.11993 31.4091 7.38412 31.7969 7.71718 32.1235C8.05023 32.4502 8.44562 32.7093 8.88078 32.8861C9.31593 33.0629 9.78233 33.1538 10.2533 33.1538H37.7467C38.2177 33.1538 38.6841 33.0629 39.1192 32.8861C39.5544 32.7093 39.9498 32.4502 40.2828 32.1235C40.6159 31.7969 40.8801 31.4091 41.0603 30.9823C41.2406 30.5555 41.3333 30.0981 41.3333 29.6362V13.1331C41.3333 12.2001 40.9555 11.3054 40.2828 10.6457C39.6102 9.986 38.6979 9.61538 37.7467 9.61538H10.2533Z" fill="white"/>
<path d="M42.6666 25.3077H5.33331V27.9231H42.6666V25.3077Z" fill="white"/>
<path d="M30.3734 41H17.6267L15.6267 33.1539H32.3734L30.3734 41ZM19.7067 38.3846H28.2934L28.96 35.7692H19.04L19.7067 38.3846Z" fill="white"/>
<path d="M32 38.3846H16C15.2636 38.3846 14.6667 38.9701 14.6667 39.6923C14.6667 40.4145 15.2636 41 16 41H32C32.7364 41 33.3334 40.4145 33.3334 39.6923C33.3334 38.9701 32.7364 38.3846 32 38.3846Z" fill="white"/>
<path d="M42.6666 13.1331V26.6154H5.33331V13.1331C5.33331 11.8533 5.85167 10.626 6.77435 9.72102C7.69703 8.81608 8.94845 8.30769 10.2533 8.30769H37.7466C39.0515 8.30769 40.3029 8.81608 41.2256 9.72102C42.1483 10.626 42.6666 11.8533 42.6666 13.1331ZM30.3733 41H17.6266L15.6266 33.1538H32.3733L30.3733 41ZM19.7066 38.3846H28.2933L28.96 35.7692H19.04L19.7066 38.3846Z" fill="white"/>
</svg>
