<svg width="72" height="72" viewBox="0 0 72 72" fill="none" xmlns="http://www.w3.org/2000/svg">
<g style="mix-blend-mode:luminosity">
<path d="M17.9628 30.0747C17.9628 30.0747 17.0099 25.3391 22.0495 19.604C27.0896 13.869 30.871 11.7836 34.955 10.6973C34.955 10.6973 34.9515 10.6994 34.9479 10.7015C34.9531 10.7001 34.9583 10.6987 34.9634 10.6973C34.9634 10.6973 31.7552 12.5658 31.7552 15.3895C31.7552 16.2091 31.8859 16.7723 32.0669 17.1485C32.3072 17.6483 32.6877 17.8183 33.0293 17.8199C33.3171 17.8215 33.4856 17.7032 33.8498 17.5618V32.8549C33.8498 32.8549 33.8893 33.1014 34.1106 33.3935C34.4293 33.8137 34.9303 34.3264 35.8714 34.3316C37.4769 34.3213 39.4962 32.5078 39.4962 32.5078V20.1254C39.4962 18.8657 38.5947 17.345 37.6394 16.8232C37.6394 16.8232 37.7695 16.815 37.9803 16.8151C38.611 16.8149 39.9642 16.8871 40.7181 17.4631C40.9276 17.2204 44.308 13.3954 50.3231 12.2184C50.3231 12.2184 50.322 12.2196 50.3202 12.2217C50.3257 12.2207 50.3311 12.2195 50.3366 12.2184C50.3366 12.2184 47.0096 16.1359 45.9669 18.0786C45.7815 18.0897 45.7545 21.7644 45.7853 25.4363C45.8153 28.9808 45.8995 32.5233 45.9483 32.7683C45.9483 32.7683 46.3033 33.296 47.2072 33.3006C48.2269 33.3058 49.9451 32.6453 52.639 29.8136C52.639 29.8136 52.568 29.9749 52.425 30.2606C51.653 31.8032 48.7844 36.9745 43.689 39.9802L43.6887 39.9799C43.6885 39.98 43.6883 39.9801 43.6883 39.9802L40.3833 37.1849L40.2989 37.1144L36.6943 40.9364C36.6943 40.9364 36.6922 40.9363 36.6888 40.9359L36.6883 40.9364C36.6883 40.9364 28.4708 40.2413 25.0386 35.2886C25.0386 35.2886 25.0451 35.291 25.0548 35.2946C25.0533 35.2926 25.0519 35.2906 25.0505 35.2886C25.0505 35.2886 25.5703 35.4909 26.1568 35.5019C26.8442 35.5145 27.5659 35.2634 27.5659 34.115V22.4715C27.5659 21.8769 27.1565 21.2099 26.2579 21.2125C25.4498 21.2146 24.2895 21.7584 22.7052 23.3839C19.3598 26.8159 17.9705 30.0747 17.9705 30.0747C17.9705 30.0747 17.9696 30.0703 17.9682 30.0623C17.9649 30.07 17.9628 30.0747 17.9628 30.0747ZM36.2177 49.8151C42.6278 49.8151 48.6544 47.3188 53.187 42.7862C57.7197 38.2535 60.2159 32.227 60.2159 25.8169C60.2159 19.4067 57.7197 13.3803 53.187 8.84756C48.6544 4.31494 42.6278 1.81867 36.2177 1.81867C29.8075 1.81867 23.7811 4.31494 19.2484 8.84756C14.7157 13.3803 12.2195 19.4067 12.2195 25.8169C12.2195 32.227 14.7157 38.2535 19.2484 42.7862C23.7811 47.3188 29.8075 49.8151 36.2177 49.8151Z" fill="#C0C4C7"/>
<path d="M36.2179 0.713644C50.0818 0.713644 61.3208 11.9527 61.3208 25.8166C61.3208 39.6806 50.0818 50.9196 36.2179 50.9196C22.3539 50.9196 11.1149 39.6806 11.1149 25.8166C11.1149 11.9527 22.3539 0.713644 36.2179 0.713644ZM36.2179 51.6333C43.1138 51.6333 49.5969 48.9479 54.473 44.0718C59.3491 39.1956 62.0345 32.7125 62.0345 25.8166C62.0345 18.9208 59.3491 12.4376 54.473 7.56148C49.5969 2.68534 43.1138 9.18097e-06 36.2179 9.18097e-06C29.3219 9.18097e-06 22.8388 2.68534 17.9627 7.56148C13.0866 12.4376 10.4012 18.9208 10.4012 25.8166C10.4012 32.7125 13.0866 39.1956 17.9627 44.0718C22.8388 48.9479 29.3219 51.6333 36.2179 51.6333Z" fill="#C0C4C7"/>
<path d="M34.8293 70.0913H35.7711H36.6585C36.7038 70.5736 36.5617 70.8173 36.1674 70.8551C35.7764 70.8925 35.3831 70.9243 34.9908 70.9252C33.3603 70.9292 33.1856 70.7383 33.2844 69.11C33.2862 69.0796 33.287 69.0493 33.2901 69.0192C33.3511 68.412 33.5748 68.1823 34.1834 68.1541C34.6524 68.1324 35.123 68.146 35.5929 68.1421C36.0823 68.138 36.5491 68.1727 36.6681 68.7455H37.8701C38.0395 67.784 37.7243 67.2605 36.8008 67.2063C35.6116 67.1365 34.4123 67.1474 33.2224 67.2142C32.4227 67.2591 32.0119 67.7305 31.9653 68.5137C31.9249 69.1927 31.927 69.8776 31.9647 70.5569C32.0048 71.2812 32.3434 71.6432 33.0519 71.8244C33.3132 71.8913 33.5787 71.9419 33.8424 72H36.2102C36.4006 71.9596 36.5906 71.9169 36.7816 71.8791C37.293 71.778 37.7957 71.6133 37.8985 71.0338C37.9999 70.4622 37.9951 69.8716 38.0393 69.2567H34.8293V70.0913Z" fill="#C0C4C7"/>
<path d="M25.4124 64.3139V55.9907H23.0059V62.347C21.2868 60.1212 19.6589 58.0136 18.0666 55.9519H14.2964V64.3246H16.6923V58.0995L16.8039 58.0714C18.4435 60.1664 20.0831 62.2614 21.6895 64.3139H25.4124Z" fill="#C0C4C7"/>
<path d="M29.7454 60.1579V57.7606C30.8571 57.7606 31.942 57.7604 33.0269 57.7609C33.1783 57.761 33.3296 57.7652 33.4809 57.7662C34.8289 57.7754 34.9702 58.1689 34.8348 59.4947C34.7907 59.9262 34.4638 60.1416 34.0783 60.1481C32.6457 60.1725 31.2124 60.1579 29.7454 60.1579ZM34.8857 63.2002C34.9182 63.5702 34.9356 63.9416 34.9604 64.3205H37.3638C37.3638 63.796 37.3838 63.313 37.3597 62.8324C37.3068 61.7749 37.1513 61.3082 36.1213 61.1296C36.0673 61.1202 36.0198 61.0737 35.893 61.0004C36.9284 60.7699 37.2993 60.0706 37.3484 59.1605C37.3728 58.7088 37.3645 58.2483 37.3044 57.8007C37.1583 56.7124 36.7586 56.2822 35.6868 56.0808C35.1536 55.9805 34.6045 55.9269 34.0619 55.9222C31.9838 55.9043 29.9055 55.9141 27.8273 55.9162C27.6652 55.9164 27.5032 55.9364 27.3131 55.949V64.317H29.7297V62.0083C30.2798 62.0083 30.7778 61.9982 31.2753 62.0106C32.1536 62.0325 33.037 62.0185 33.908 62.1134C34.6213 62.1912 34.8225 62.4819 34.8857 63.2002Z" fill="#C0C4C7"/>
<path d="M41.5457 60.9458H47.8102V59.2551H41.5354V57.7447H48.1702V55.9673H39.0822V64.3225H48.282V62.4835H41.5457V60.9458Z" fill="#C0C4C7"/>
<path d="M12.484 56.2067C12.4844 56.1231 12.4327 56.0392 12.4069 55.9601H10.008C10.008 57.4445 10.0128 58.8838 10.0048 60.3232C10.0025 60.7162 9.97654 61.1105 9.93446 61.5013C9.8739 62.0624 9.51991 62.4156 8.98623 62.4424C7.88445 62.498 6.77475 62.5386 5.67606 62.4667C4.79112 62.4088 4.5037 62.0117 4.49359 61.1102C4.47629 59.5622 4.48421 58.0139 4.47647 56.4658C4.47565 56.2932 4.44141 56.1207 4.42274 55.9493H2.02565C2.02565 58.03 1.95398 60.0494 2.05024 62.0608C2.11718 63.4588 2.69694 64.0097 4.10754 64.2458C6.15501 64.5887 8.22351 64.5745 10.2711 64.2701C11.8346 64.0376 12.3652 63.4571 12.4343 61.8959C12.518 60.0025 12.4765 58.1034 12.484 56.2067Z" fill="#C0C4C7"/>
<path d="M53.2772 61.0673C53.8607 59.9203 54.4268 58.8075 55.0545 57.5736C55.6816 58.7934 56.2492 59.8973 56.8507 61.0673H53.2772ZM53.5322 55.9394C52.0239 58.7202 50.5198 61.4932 48.981 64.3301H51.6095C51.8731 63.8276 52.1244 63.3489 52.3695 62.8816H57.7731C58.0344 63.3763 58.2881 63.856 58.5358 64.3248H61.1919C59.6261 61.4557 58.1127 58.6824 56.6157 55.9394H53.5322Z" fill="#C0C4C7"/>
<path d="M29.4057 70.6338C29.3683 70.6426 29.3308 70.6515 29.2934 70.6604C28.3697 69.4695 27.4459 68.2786 26.5595 67.136H24.4285V71.8654H25.7428V68.4149C25.7875 68.399 25.8321 68.3832 25.8768 68.3673C26.8057 69.5478 27.7346 70.7282 28.635 71.8725H30.763V67.1468H29.4057V70.6338Z" fill="#C0C4C7"/>
<path d="M46.5268 70.6362C46.4906 70.6456 46.4544 70.6551 46.4182 70.6644C45.5139 69.4975 44.6097 68.3306 43.7338 67.2002H41.6115V71.8558H42.9572V68.2858C43.9614 69.5676 44.8756 70.7347 45.7703 71.8767H47.8658V67.2149H46.5268V70.6362Z" fill="#C0C4C7"/>
<path d="M19.6388 69.9728H23.2066V68.9968H19.639V68.1182H23.4022V67.1322H18.2793V71.8616H23.498V70.8563H19.6388V69.9728Z" fill="#C0C4C7"/>
<path d="M50.5038 69.9712H54.0059V69.0204H50.5172V68.1429H54.2118V67.2049H49.1266V71.8583H54.2942V70.8609H50.5038V69.9712Z" fill="#C0C4C7"/>
<path d="M39.0939 71.871H40.3963V67.2092H39.0939V71.871Z" fill="#C0C4C7"/>
<path d="M64.6876 62.4375V55.966H62.2386V64.35H70.4528V62.4375H64.6876Z" fill="#C0C4C7"/>
</g>
</svg>
