<svg width="48" height="48" viewBox="0 0 48 48" fill="none" xmlns="http://www.w3.org/2000/svg">
<path d="M24.0001 4C19.251 4.0002 14.657 5.73298 11.04 8.88828C7.42299 12.0436 5.01906 16.4155 4.25832 21.2218C3.49759 26.0281 4.42969 30.9551 6.88785 35.1212C9.34602 39.2873 13.1698 42.4207 17.6751 43.9607C18.6751 44.1402 19.0501 43.5251 19.0501 42.9867C19.0501 42.4997 19.0251 40.8849 19.0251 39.1675C14.0001 40.1159 12.7001 37.9116 12.3001 36.7581C11.8562 35.6363 11.1526 34.6422 10.2501 33.8616C9.55005 33.4772 8.55005 32.5288 10.225 32.5032C10.8646 32.5743 11.478 32.8025 12.0133 33.1684C12.5486 33.5342 12.99 34.027 13.3001 34.605C13.5736 35.1088 13.9414 35.5523 14.3824 35.9101C14.8235 36.268 15.329 36.5331 15.8701 36.6902C16.4112 36.8474 16.9773 36.8935 17.5358 36.826C18.0943 36.7584 18.6344 36.5786 19.125 36.2967C19.2116 35.2542 19.6647 34.2795 20.4001 33.5541C15.9501 33.0415 11.3001 31.2728 11.3001 23.4294C11.2719 21.3914 12.0054 19.4196 13.3501 17.9184C12.7386 16.1471 12.8102 14.2033 13.5501 12.4844C13.5501 12.4844 15.225 11.9461 19.0501 14.5862C22.3226 13.6634 25.7775 13.6634 29.0501 14.5862C32.875 11.9204 34.5501 12.4844 34.5501 12.4844C35.29 14.2033 35.3616 16.1472 34.7501 17.9184C36.0987 19.417 36.8328 21.3905 36.8001 23.4294C36.8001 31.2984 32.125 33.0415 27.6751 33.5541C28.1524 34.0501 28.52 34.6456 28.7529 35.3002C28.9858 35.9548 29.0787 36.6531 29.0251 37.3477C29.0251 40.0904 29 42.2947 29 42.9868C29 43.5251 29.375 44.1659 30.375 43.9608C34.8724 42.4083 38.6852 39.2675 41.1329 35.0993C43.5806 30.931 44.5038 26.0065 43.7378 21.2049C42.9718 16.4033 40.5664 12.037 36.951 8.88554C33.3356 5.73408 28.7455 4.00253 24.0001 4Z" fill="white"/>
</svg>
