<svg width="24" height="24" viewBox="0 0 24 24" xmlns="http://www.w3.org/2000/svg">
<path d="M14.4305 5.1799C14.6205 5.1799 14.8105 5.2499 14.9605 5.3999L21.0305 11.4699C21.3205 11.7599 21.3205 12.2399 21.0305 12.5299L14.9605 18.5999C14.6705 18.8899 14.1905 18.8899 13.9005 18.5999C13.6105 18.3099 13.6105 17.8299 13.9005 17.5399L19.4405 11.9999L13.9005 6.4599C13.6105 6.1699 13.6105 5.6899 13.9005 5.3999C14.0405 5.2499 14.2405 5.1799 14.4305 5.1799Z"/>
<path d="M3.5001 11.25L20.3301 11.25C20.7401 11.25 21.0801 11.59 21.0801 12C21.0801 12.41 20.7401 12.75 20.3301 12.75L3.5001 12.75C3.0901 12.75 2.7501 12.41 2.7501 12C2.7501 11.59 3.0901 11.25 3.5001 11.25Z"/>
</svg>
