<svg width="24" height="24" viewBox="0 0 24 24" xmlns="http://www.w3.org/2000/svg">
<path d="M21 5.25H14C13.59 5.25 13.25 4.91 13.25 4.5C13.25 4.09 13.59 3.75 14 3.75H21C21.41 3.75 21.75 4.09 21.75 4.5C21.75 4.91 21.41 5.25 21 5.25Z"/>
<path d="M21 10.25H14C13.59 10.25 13.25 9.91 13.25 9.5C13.25 9.09 13.59 8.75 14 8.75H21C21.41 8.75 21.75 9.09 21.75 9.5C21.75 9.91 21.41 10.25 21 10.25Z"/>
<path d="M21 15.25H14C13.59 15.25 13.25 14.91 13.25 14.5C13.25 14.09 13.59 13.75 14 13.75H21C21.41 13.75 21.75 14.09 21.75 14.5C21.75 14.91 21.41 15.25 21 15.25Z"/>
<path d="M21 20.25H14C13.59 20.25 13.25 19.91 13.25 19.5C13.25 19.09 13.59 18.75 14 18.75H21C21.41 18.75 21.75 19.09 21.75 19.5C21.75 19.91 21.41 20.25 21 20.25Z"/>
<path fill-rule="evenodd" clip-rule="evenodd" d="M6.505 9.53502C7.7504 9.53502 8.76 8.52543 8.76 7.28002C8.76 6.03462 7.7504 5.02502 6.505 5.02502C5.2596 5.02502 4.25 6.03462 4.25 7.28002C4.25 8.52543 5.2596 9.53502 6.505 9.53502ZM6.505 11.035C8.57883 11.035 10.26 9.35385 10.26 7.28002C10.26 5.2062 8.57883 3.52502 6.505 3.52502C4.43117 3.52502 2.75 5.2062 2.75 7.28002C2.75 9.35385 4.43117 11.035 6.505 11.035Z"/>
<path fill-rule="evenodd" clip-rule="evenodd" d="M6.505 19.535C7.7504 19.535 8.76 18.5254 8.76 17.28C8.76 16.0346 7.7504 15.025 6.505 15.025C5.2596 15.025 4.25 16.0346 4.25 17.28C4.25 18.5254 5.2596 19.535 6.505 19.535ZM6.505 21.035C8.57883 21.035 10.26 19.3539 10.26 17.28C10.26 15.2062 8.57883 13.525 6.505 13.525C4.43117 13.525 2.75 15.2062 2.75 17.28C2.75 19.3539 4.43117 21.035 6.505 21.035Z"/>
</svg>
