<svg width="48" height="48" viewBox="0 0 48 48" fill="none" xmlns="http://www.w3.org/2000/svg">
<path d="M44 45.5H4C3.18 45.5 2.5 44.82 2.5 44C2.5 43.18 3.18 42.5 4 42.5H44C44.82 42.5 45.5 43.18 45.5 44C45.5 44.82 44.82 45.5 44 45.5Z" fill="#24C8CA"/>
<path d="M41.7797 45.5C40.9597 45.5 40.2797 44.82 40.2797 44V26C40.2797 23.52 37.9597 21.5 35.1197 21.5H12.8797C10.0397 21.5 7.71973 23.52 7.71973 26V44C7.71973 44.82 7.03973 45.5 6.21973 45.5C5.39973 45.5 4.71973 44.82 4.71973 44V26C4.71973 21.86 8.37973 18.5 12.8797 18.5H35.0997C39.5997 18.5 43.2597 21.86 43.2597 26V44C43.2797 44.82 42.5997 45.5 41.7797 45.5Z" fill="#24C8CA"/>
<path d="M36.8801 21.5C36.0601 21.5 35.3801 20.82 35.3801 20V14.34C35.3801 12.78 33.8801 11.5 32.0601 11.5H15.9601C14.1201 11.5 12.6401 12.78 12.6401 14.34V20C12.6401 20.82 11.9601 21.5 11.1401 21.5C10.3201 21.5 9.62012 20.82 9.62012 20V14.34C9.62012 11.12 12.4601 8.5 15.9401 8.5H32.0401C35.5201 8.5 38.3601 11.12 38.3601 14.34V20C38.3801 20.82 37.7001 21.5 36.8801 21.5Z" fill="#24C8CA"/>
<path d="M34.6604 35.5C32.3404 35.5 30.4604 33.62 30.4604 31.3V30.68C30.4604 30.02 29.9204 29.48 29.2604 29.48C28.6004 29.48 28.0604 30.02 28.0604 30.68V31.3C28.0604 33.62 26.1804 35.5 23.8604 35.5C21.5404 35.5 19.6604 33.62 19.6604 31.3V30.68C19.6604 30.02 19.1204 29.48 18.4604 29.48C17.8004 29.48 17.2604 30.02 17.2604 30.68V31.3C17.2604 33.62 15.3804 35.5 13.0604 35.5C10.7404 35.5 8.86039 33.62 8.86039 31.3V30.64C8.86039 30 8.34039 29.46 7.68039 29.44H6.94039C6.12039 29.42 5.44039 28.74 5.46039 27.92C5.48039 27.1 6.14039 26.44 6.96039 26.44H6.98039H7.72039C10.0004 26.48 11.8604 28.36 11.8604 30.64V31.3C11.8604 31.96 12.4004 32.5 13.0604 32.5C13.7204 32.5 14.2604 31.96 14.2604 31.3V30.68C14.2604 28.36 16.1404 26.48 18.4604 26.48C20.7804 26.48 22.6604 28.36 22.6604 30.68V31.3C22.6604 31.96 23.2004 32.5 23.8604 32.5C24.5204 32.5 25.0604 31.96 25.0604 31.3V30.68C25.0604 28.36 26.9404 26.48 29.2604 26.48C31.5804 26.48 33.4604 28.36 33.4604 30.68V31.3C33.4604 31.96 34.0004 32.5 34.6604 32.5C35.3204 32.5 35.8604 31.96 35.8604 31.3V30.68C35.8604 28.36 37.7404 26.48 40.0604 26.48H40.9604C41.7804 26.48 42.4604 27.16 42.4604 27.98C42.4604 28.8 41.7804 29.48 40.9604 29.48H40.0604C39.4004 29.48 38.8604 30.02 38.8604 30.68V31.3C38.8604 33.62 36.9804 35.5 34.6604 35.5Z" fill="#24C8CA"/>
<path d="M16 11.5C15.18 11.5 14.5 10.82 14.5 10V6C14.5 5.18 15.18 4.5 16 4.5C16.82 4.5 17.5 5.18 17.5 6V10C17.5 10.82 16.82 11.5 16 11.5Z" fill="#24C8CA"/>
<path d="M32 11.5C31.18 11.5 30.5 10.82 30.5 10V6C30.5 5.18 31.18 4.5 32 4.5C32.82 4.5 33.5 5.18 33.5 6V10C33.5 10.82 32.82 11.5 32 11.5Z" fill="#24C8CA"/>
<path d="M24 11.5C23.18 11.5 22.5 10.82 22.5 10V4C22.5 3.18 23.18 2.5 24 2.5C24.82 2.5 25.5 3.18 25.5 4V10C25.5 10.82 24.82 11.5 24 11.5Z" fill="#24C8CA"/>
</svg>
