<svg width="24" height="24" viewBox="0 0 24 24" xmlns="http://www.w3.org/2000/svg">
<path d="M21.7552 5.24522L22.1094 4.89236L22.1086 4.89148C22.2326 5.01527 22.331 5.16231 22.3982 5.32417C22.4654 5.48615 22.5 5.6598 22.5 5.83517C22.5 6.01054 22.4654 6.18419 22.3982 6.34616C22.331 6.50814 22.2325 6.65527 22.1083 6.77912L10.5947 18.2902C10.0311 18.8528 9.26691 19.1691 8.47051 19.1691C7.67412 19.1691 6.91027 18.8531 6.34661 18.2905L1.89236 13.8371C1.76814 13.7133 1.66927 13.5659 1.60199 13.4039C1.53466 13.2418 1.5 13.068 1.5 12.8925C1.5 12.7169 1.53466 12.5431 1.60199 12.381C1.6692 12.2192 1.76765 12.0723 1.8917 11.9485C2.01542 11.8245 2.16237 11.7261 2.32415 11.6589C2.48626 11.5915 2.66006 11.5569 2.83559 11.5569C3.01111 11.5569 3.18491 11.5915 3.34702 11.6589C3.50899 11.7262 3.65639 11.825 3.7802 11.9493L8.23262 16.4058C8.26358 16.4369 8.30091 16.4621 8.34143 16.4789C8.38195 16.4958 8.42539 16.5044 8.46926 16.5044C8.51314 16.5044 8.55658 16.4958 8.5971 16.4789C8.63762 16.4621 8.67442 16.4375 8.70538 16.4064L8.70609 16.4057L20.2202 4.89236C20.344 4.76817 20.4915 4.66926 20.6534 4.60199C20.8155 4.53466 20.9893 4.5 21.1648 4.5C21.3404 4.5 21.5142 4.53466 21.6763 4.60199C21.838 4.66916 21.9849 4.76753 22.1086 4.89148L21.7552 5.24522Z"/>
</svg>
