<svg width="24" height="24" viewBox="0 0 24 24" xmlns="http://www.w3.org/2000/svg">
<path fill-rule="evenodd" clip-rule="evenodd" d="M8 1C5.84601 1 4.04665 1.53914 2.79289 2.79289C1.53914 4.04665 1 5.84601 1 8V13C1 15.586 1.50837 17.4611 2.8415 18.6276C4.14145 19.765 5.98214 20 8 20H8.46532C8.47357 20.0029 8.48462 20.0073 8.4971 20.0135C8.50615 20.0179 8.51359 20.0222 8.51928 20.0257L10 22C10.4909 22.6545 11.2064 23.06 12 23.06C12.7936 23.06 13.5091 22.6545 14 22L15.4962 20.005L15.4985 20.003L15.5021 20.0007L15.5038 20H16C18.154 20 19.9534 19.4609 21.2071 18.2071C22.4609 16.9534 23 15.154 23 13V8C23 5.84601 22.4609 4.04665 21.2071 2.79289C19.9534 1.53914 18.154 1 16 1H8ZM4.20711 4.20711C4.95353 3.46069 6.15434 3 8 3H16C17.8457 3 19.0465 3.46069 19.7929 4.20711C20.5393 4.95353 21 6.15434 21 8V13C21 14.8457 20.5393 16.0465 19.7929 16.7929C19.0465 17.5393 17.8457 18 16 18H15.5C14.8727 18 14.2796 18.3005 13.9034 18.7955L13.9 18.8L12.4 20.8C12.2318 21.0243 12.0777 21.06 12 21.06C11.9223 21.06 11.7682 21.0243 11.6 20.8L10.1032 18.8043C9.89944 18.5275 9.62157 18.3386 9.3854 18.2215C9.14567 18.1027 8.83213 18 8.5 18H8C6.01745 18 4.8584 17.7348 4.1585 17.1224C3.49145 16.5388 3 15.4135 3 13V8C3 6.15434 3.46069 4.95353 4.20711 4.20711Z"/>
</svg>
