<svg width="24" height="24" viewBox="0 0 24 24" xmlns="http://www.w3.org/2000/svg">
<path fill-rule="evenodd" clip-rule="evenodd" d="M3.69803 20.4938C4.10803 20.8838 4.67803 21.0938 5.28803 21.0938C5.39059 21.0938 5.48904 21.0856 5.59128 21.077C5.64855 21.0722 5.707 21.0674 5.76803 21.0638L8.98803 20.5138C9.59803 20.4138 10.378 19.9938 10.798 19.5438L19.008 10.8538C21.058 8.68378 20.998 6.54378 18.828 4.49378C16.658 2.44378 14.518 2.50378 12.468 4.67378L11.1246 6.09581C11.113 6.10728 11.1018 6.1191 11.0911 6.13126L4.25803 13.3638C3.82803 13.8038 3.45803 14.6138 3.38803 15.2238L3.01803 18.4638C2.92803 19.2638 3.17803 20.0038 3.69803 20.4938ZM11.2665 8.11211L5.34803 14.3838C5.14803 14.5938 4.91803 15.0938 4.87803 15.3838L4.50803 18.6238C4.46803 18.9538 4.54803 19.2238 4.72803 19.3938C4.90803 19.5638 5.17803 19.6238 5.50803 19.5738L8.72803 19.0238C9.01803 18.9738 9.49803 18.7138 9.69803 18.5038L15.619 12.2367C13.6138 11.603 12.0061 10.0812 11.2665 8.11211ZM16.803 10.9834L17.908 9.81378C19.148 8.49378 19.598 7.27378 17.788 5.57378C16.988 4.80378 16.298 4.48378 15.678 4.48378C14.908 4.48378 14.238 4.96378 13.558 5.68378L12.461 6.84633C12.9336 8.97999 14.6499 10.6182 16.803 10.9834Z"/>
</svg>
