<svg width="20" height="20" viewBox="0 0 20 20" xmlns="http://www.w3.org/2000/svg">
<path d="M9.99992 13.6083C8.00827 13.6083 6.3916 11.9916 6.3916 9.99992C6.3916 8.00827 8.00827 6.3916 9.99992 6.3916C11.9916 6.3916 13.6083 8.00827 13.6083 9.99992C13.6083 11.9916 11.9916 13.6083 9.99992 13.6083ZM9.99992 7.6416C8.69992 7.6416 7.6416 8.69992 7.6416 9.99992C7.6416 11.2999 8.69992 12.3583 9.99992 12.3583C11.2999 12.3583 12.3583 11.2999 12.3583 9.99992C12.3583 8.69992 11.2999 7.6416 9.99992 7.6416Z"/>
<path d="M9.99992 17.5167C6.86657 17.5167 3.90824 15.6834 1.8749 12.5C0.991569 11.125 0.991569 8.88335 1.8749 7.5C3.91657 4.31667 6.8749 2.48334 9.99992 2.48334C13.1249 2.48334 16.0833 4.31667 18.1166 7.5C18.9999 8.87502 18.9999 11.1167 18.1166 12.5C16.0833 15.6834 13.1249 17.5167 9.99992 17.5167ZM9.99992 3.73334C7.30824 3.73334 4.73324 5.35 2.93324 8.175C2.30824 9.15002 2.30824 10.85 2.93324 11.825C4.73324 14.65 7.30824 16.2667 9.99992 16.2667C12.6916 16.2667 15.2666 14.65 17.0666 11.825C17.6916 10.85 17.6916 9.15002 17.0666 8.175C15.2666 5.35 12.6916 3.73334 9.99992 3.73334Z"/>
</svg>
