<svg width="48" height="48" viewBox="0 0 48 48" xmlns="http://www.w3.org/2000/svg">
<path d="M45.8997 32.3288C45.8983 32.3208 45.8968 32.3128 45.8952 32.3048L42.8976 16.9775C42.8954 16.966 42.8917 16.9552 42.8892 16.9438C42.4254 14.4358 41.0891 12.1679 39.1125 10.534C37.1359 8.9002 34.6438 8.00361 32.0691 8.00001H32.0648L15.9332 8.04716C13.3453 8.04207 10.8388 8.94272 8.85627 10.5901C6.87379 12.2374 5.54286 14.5255 5.09851 17.0502C5.09618 17.0633 5.09404 17.0766 5.09207 17.0898L2.10483 32.3038C2.10322 32.3121 2.1017 32.3204 2.10018 32.3288C1.85659 33.6976 2.05993 35.1076 2.68067 36.3541C3.30141 37.6007 4.30723 38.6188 5.55208 39.2607C6.79693 39.9026 8.216 40.1349 9.60321 39.9237C10.9904 39.7126 12.2735 39.069 13.2663 38.0865C13.2929 38.0603 13.3183 38.0332 13.3425 38.0053L20.8095 29.831L27.1987 29.8057L34.6551 38.0027C34.68 38.0314 34.7062 38.0594 34.7336 38.0865C35.7263 39.0692 37.0094 39.7129 38.3967 39.9241C39.784 40.1353 41.2031 39.9031 42.448 39.2612C43.6929 38.6192 44.6988 37.601 45.3195 36.3544C45.9402 35.1077 46.1435 33.6976 45.8997 32.3288ZM19.5991 20.3928H18.1324V21.8453C18.1324 22.2305 17.9779 22.5999 17.7028 22.8723C17.4278 23.1447 17.0547 23.2977 16.6657 23.2977C16.2768 23.2977 15.9037 23.1447 15.6286 22.8723C15.3536 22.5999 15.1991 22.2305 15.1991 21.8453V20.3928H13.7324C13.3434 20.3928 12.9704 20.2398 12.6953 19.9674C12.4202 19.695 12.2657 19.3256 12.2657 18.9404C12.2657 18.5552 12.4202 18.1858 12.6953 17.9134C12.9704 17.641 13.3434 17.488 13.7324 17.488H15.1991V16.0355C15.1991 15.6503 15.3536 15.2809 15.6286 15.0085C15.9037 14.7361 16.2768 14.5831 16.6657 14.5831C17.0547 14.5831 17.4278 14.7361 17.7028 15.0085C17.9779 15.2809 18.1324 15.6503 18.1324 16.0355V17.488H19.5991C19.9881 17.488 20.3611 17.641 20.6362 17.9134C20.9112 18.1858 21.0658 18.5552 21.0658 18.9404C21.0658 19.3256 20.9112 19.695 20.6362 19.9674C20.3611 20.2398 19.9881 20.3928 19.5991 20.3928ZM26.9324 18.9404C26.9324 18.5552 27.087 18.1858 27.362 17.9134C27.6371 17.641 28.0101 17.488 28.3991 17.488H34.2658C34.6548 17.488 35.0278 17.641 35.3029 17.9134C35.5779 18.1858 35.7325 18.5552 35.7325 18.9404C35.7325 19.3256 35.5779 19.695 35.3029 19.9674C35.0278 20.2398 34.6548 20.3928 34.2658 20.3928H28.3991C28.0101 20.3928 27.6371 20.2398 27.362 19.9674C27.087 19.695 26.9324 19.3256 26.9324 18.9404ZM40.0367 37.0398C39.4631 37.1395 38.8737 37.1027 38.3172 36.9324C37.7608 36.7621 37.2532 36.4632 36.8364 36.0604L31.1326 29.7902L32.0691 29.7865C33.9392 29.7854 35.7782 29.3122 37.4123 28.4116C39.0464 27.511 40.4217 26.2128 41.4083 24.6395L43.0129 32.8444C43.1774 33.7912 42.9567 34.7641 42.399 35.5502C41.8413 36.3364 40.992 36.8719 40.0367 37.0398Z"/>
</svg>
