<svg width="21" height="20" viewBox="0 0 21 20" fill="none" xmlns="http://www.w3.org/2000/svg">
<path d="M18.1623 10.1998C18.1623 9.637 18.1089 9.05604 18.02 8.51138H10.3223V11.7248H14.7312C14.5534 12.7597 13.9667 13.6674 13.0956 14.2484L15.7267 16.3362C17.2734 14.8657 18.1623 12.7234 18.1623 10.1998Z" fill="#4280EF"/>
<path d="M10.3221 18.3332C12.5265 18.3332 14.3754 17.5889 15.7265 16.318L13.0954 14.2483C12.3665 14.7567 11.4243 15.0472 10.3221 15.0472C8.18876 15.0472 6.3932 13.5766 5.73542 11.6158L3.0332 13.74C4.41987 16.554 7.22876 18.3332 10.3221 18.3332Z" fill="#34A353"/>
<path d="M5.73539 11.5978C5.39761 10.5629 5.39761 9.43733 5.73539 8.40249L3.03317 6.26019C1.87762 8.62035 1.87762 11.3981 3.03317 13.7401L5.73539 11.5978Z" fill="#F6B704"/>
<path d="M10.3221 4.9712C11.4776 4.95304 12.6154 5.40692 13.451 6.2239L15.7799 3.82743C14.3043 2.41133 12.3488 1.64882 10.3221 1.66697C7.22876 1.66697 4.41987 3.44617 3.0332 6.26021L5.73542 8.4025C6.3932 6.4236 8.18876 4.9712 10.3221 4.9712Z" fill="#E54335"/>
</svg>
