<svg width="32" height="32" viewBox="0 0 32 32" xmlns="http://www.w3.org/2000/svg">
    <path d="M16.0003 2.66666C13.3632 2.66666 10.7854 3.44864 8.59273 4.91373C6.40007 6.37881 4.69111 8.4612 3.68194 10.8975C2.67277 13.3339 2.40872 16.0148 2.92319 18.6012C3.43766 21.1876 4.70754 23.5634 6.57224 25.4281C8.43694 27.2928 10.8127 28.5627 13.3991 29.0771C15.9855 29.5916 18.6664 29.3276 21.1028 28.3184C23.5391 27.3092 25.6215 25.6003 27.0866 23.4076C28.5517 21.2149 29.3337 18.6371 29.3337 16C29.3298 12.4649 27.9239 9.07578 25.4242 6.57612C22.9245 4.07647 19.5354 2.67048 16.0003 2.66666V2.66666ZM16.0003 27.1111C13.8028 27.1111 11.6545 26.4594 9.82733 25.2385C8.00012 24.0176 6.57598 22.2823 5.735 20.252C4.89403 18.2217 4.67399 15.9877 5.10272 13.8323C5.53144 11.677 6.58967 9.69717 8.14359 8.14325C9.69751 6.58933 11.6773 5.5311 13.8327 5.10238C15.988 4.67365 18.2221 4.89369 20.2524 5.73466C22.2827 6.57564 24.018 7.99978 25.2389 9.82699C26.4598 11.6542 27.1114 13.8024 27.1114 16C27.1082 18.9458 25.9365 21.7701 23.8535 23.8532C21.7705 25.9362 18.9462 27.1079 16.0003 27.1111V27.1111Z"/>
    <path d="M16.0005 13.7781H14.8894C14.5947 13.7781 14.3121 13.8952 14.1038 14.1035C13.8954 14.3119 13.7783 14.5945 13.7783 14.8892C13.7783 15.1839 13.8954 15.4665 14.1038 15.6749C14.3121 15.8833 14.5947 16.0003 14.8894 16.0003H16.0005V22.667C16.0005 22.9617 16.1176 23.2443 16.326 23.4527C16.5343 23.661 16.817 23.7781 17.1116 23.7781C17.4063 23.7781 17.6889 23.661 17.8973 23.4527C18.1057 23.2443 18.2228 22.9617 18.2228 22.667V16.0003C18.2228 15.411 17.9886 14.8457 17.5719 14.429C17.1551 14.0122 16.5899 13.7781 16.0005 13.7781Z"/>
    <path d="M16.0007 11.5552C16.9211 11.5552 17.6673 10.809 17.6673 9.88853C17.6673 8.96805 16.9211 8.22186 16.0007 8.22186C15.0802 8.22186 14.334 8.96805 14.334 9.88853C14.334 10.809 15.0802 11.5552 16.0007 11.5552Z"/>
</svg>
