<svg width="16" height="16" viewBox="0 0 16 16" xmlns="http://www.w3.org/2000/svg">
<path fill-rule="evenodd" clip-rule="evenodd" d="M0.833374 8.00004C0.833374 4.042 4.042 0.833374 8.00004 0.833374C11.9581 0.833374 15.1667 4.042 15.1667 8.00004C15.1667 11.9581 11.9581 15.1667 8.00004 15.1667C4.042 15.1667 0.833374 11.9581 0.833374 8.00004ZM8.00004 1.83337C7.48258 1.83337 6.98001 1.89711 6.49975 2.01716C6.49813 2.06466 6.48972 2.11222 6.4743 2.1584C6.20155 2.97526 5.98757 3.8066 5.83237 4.64617C7.27288 4.48466 8.72721 4.48466 10.1677 4.64617C10.0125 3.8066 9.79854 2.97526 9.52578 2.1584C9.51015 2.11157 9.50183 2.06407 9.5002 2.01712C9.01998 1.8971 8.51745 1.83337 8.00004 1.83337ZM10.3277 5.67241C8.78227 5.47592 7.21781 5.47592 5.67241 5.67241C5.47592 7.21781 5.47592 8.78227 5.67241 10.3277C7.21781 10.5242 8.78227 10.5242 10.3277 10.3277C10.5242 8.78227 10.5242 7.21781 10.3277 5.67241ZM4.79146 4.79146C4.92044 4.0202 5.09627 3.25488 5.31893 2.49984C5.28838 2.49897 5.25851 2.49536 5.22957 2.48925C4.01227 3.10243 3.02598 4.10709 2.43603 5.33786C3.21176 5.10622 3.99846 4.92408 4.79146 4.79146ZM2.01712 6.49988C2.06407 6.49825 2.11157 6.48994 2.1584 6.4743C2.97526 6.20155 3.8066 5.98757 4.64617 5.83237C4.48466 7.27288 4.48466 8.72721 4.64617 10.1677C3.8066 10.0125 2.97526 9.79854 2.1584 9.52578C2.11222 9.51036 2.06466 9.50196 2.01716 9.50033C1.89711 9.02007 1.83337 8.5175 1.83337 8.00004C1.83337 7.48263 1.8971 6.9801 2.01712 6.49988ZM11.3539 5.83237C12.1935 5.98757 13.0248 6.20155 13.8417 6.4743C13.8885 6.48994 13.936 6.49825 13.983 6.49988C14.103 6.9801 14.1667 7.48263 14.1667 8.00004C14.1667 8.5175 14.103 9.02007 13.9829 9.50033C13.9354 9.50196 13.8879 9.51036 13.8417 9.52578C13.0248 9.79854 12.1935 10.0125 11.3539 10.1677C11.5154 8.72721 11.5154 7.27288 11.3539 5.83237ZM13.5641 5.33786C12.7883 5.10622 12.0016 4.92408 11.2086 4.79146C11.076 3.99846 10.8939 3.21176 10.6622 2.43603C11.9293 3.04338 12.9567 4.07079 13.5641 5.33786ZM2.49984 10.6812C2.49897 10.7117 2.49536 10.7416 2.48925 10.7705C3.08435 11.9519 4.04817 12.9157 5.22958 13.5108C5.25852 13.5047 5.28838 13.5011 5.31893 13.5002C5.09627 12.7452 4.92044 11.9799 4.79146 11.2086C4.0202 11.0796 3.25488 10.9038 2.49984 10.6812ZM9.52578 13.8417C9.79854 13.0248 10.0125 12.1935 10.1677 11.3539C8.72721 11.5154 7.27288 11.5154 5.83237 11.3539C5.98757 12.1935 6.20155 13.0248 6.4743 13.8417C6.48972 13.8879 6.49813 13.9354 6.49975 13.9829C6.98001 14.103 7.48258 14.1667 8.00004 14.1667C8.51745 14.1667 9.01998 14.103 9.5002 13.983C9.50183 13.936 9.51015 13.8885 9.52578 13.8417ZM10.6622 13.5641C10.8939 12.7883 11.076 12.0016 11.2086 11.2086C11.9799 11.0796 12.7452 10.9038 13.5002 10.6812C13.5011 10.7117 13.5047 10.7416 13.5108 10.7705C12.8977 11.9878 11.893 12.9741 10.6622 13.5641Z"/>
</svg>
