<svg width="24" height="24" viewBox="0 0 24 24" xmlns="http://www.w3.org/2000/svg">
<path fill-rule="evenodd" clip-rule="evenodd" d="M9 23H15C17.7437 23 19.7612 22.4148 21.088 21.088C22.4148 19.7612 23 17.7437 23 15V9C23 6.2563 22.4148 4.23879 21.088 2.91197C19.7612 1.58516 17.7437 1 15 1H9C6.2563 1 4.23879 1.58516 2.91197 2.91197C1.58516 4.23879 1 6.2563 1 9V15C1 17.7437 1.58516 19.7612 2.91197 21.088C4.23879 22.4148 6.2563 23 9 23ZM3 9C3 6.71264 3.40946 5.23659 4.32303 4.32303C5.23659 3.40946 6.71264 3 9 3H15C17.2874 3 18.7634 3.40946 19.677 4.32303C20.5905 5.23659 21 6.71264 21 9V15C21 17.2874 20.5905 18.7634 19.677 19.677C18.7634 20.5905 17.2874 21 15 21H9C6.71264 21 5.23659 20.5905 4.32303 19.677C3.40946 18.7634 3 17.2874 3 15V9Z"/>
<path fill-rule="evenodd" clip-rule="evenodd" d="M7.99758 11.0597C7.44939 11.0597 6.99805 11.5111 6.99805 12.0593C6.99805 12.3412 7.11177 12.5877 7.29047 12.7664C7.4644 12.9403 7.71798 13.0671 8.00154 13.0588L13.5883 13.0588L12.2898 14.3572C11.9023 14.7448 11.9023 15.3839 12.2898 15.7714C12.6774 16.159 13.3165 16.159 13.7041 15.7714L16.7022 12.7733C16.7501 12.7254 16.7922 12.6735 16.8283 12.6186C16.937 12.4592 17.0016 12.2662 17.0016 12.0593C17.0016 11.7401 16.8485 11.4553 16.6161 11.273L13.704 8.36097C13.3165 7.97343 12.6774 7.97343 12.2898 8.36097C11.9023 8.74852 11.9023 9.38764 12.2898 9.77518L13.5744 11.0597L7.99758 11.0597Z"/>
</svg>
