<svg width="48" height="48" viewBox="0 0 48 48" fill="none" xmlns="http://www.w3.org/2000/svg">
<path d="M21.84 39.4999C21.26 39.4999 20.7 39.4199 20.24 39.2399C13.4 36.8999 2.5 28.5399 2.5 16.1799C2.5 9.83993 7.61998 4.69995 13.92 4.69995C16.94 4.69995 19.76 5.85992 21.86 7.91992C23.98 5.85992 26.78 4.69995 29.8 4.69995C36.1 4.69995 41.22 9.83993 41.22 16.1799C41.22 17.0399 41.16 17.9199 41.04 18.8199C40.98 19.2799 40.7 19.6999 40.3 19.9399C39.9 20.1799 39.4 20.2 38.96 20.02C36.5 18.96 33.44 19.76 31.84 21.9C31.56 22.28 31.02 22.4799 30.64 22.4999C30.16 22.4999 29.72 22.28 29.44 21.9C28.3 20.38 26.56 19.52 24.68 19.52C21.42 19.52 18.76 22.1999 18.76 25.4999C18.76 30.6999 21.74 34.3999 24.26 36.6199C24.62 36.9399 24.8 37.3999 24.76 37.8799C24.72 38.3599 24.46 38.7799 24.04 39.0399C23.82 39.1599 23.64 39.2399 23.54 39.2599C23.02 39.4199 22.44 39.4999 21.84 39.4999ZM13.92 7.69995C9.27998 7.69995 5.5 11.4999 5.5 16.1799C5.5 26.6399 14.2 33.0799 19.2 35.5599C17.3 33.0199 15.74 29.6599 15.74 25.4799C15.74 20.5199 19.74 16.4999 24.66 16.4999C26.9 16.4999 29 17.32 30.62 18.78C32.64 16.98 35.52 16.1599 38.2 16.6599C38.2 16.4999 38.2 16.34 38.2 16.2C38.2 11.52 34.42 7.71991 29.78 7.71991C27.12 7.71991 24.66 8.95991 23.04 11.0999C22.76 11.4799 22.32 11.7 21.84 11.7C21.36 11.7 20.92 11.4799 20.64 11.0999C19.06 8.93991 16.6 7.69995 13.92 7.69995Z" fill="#24C8CA"/>
<path d="M30.6403 43.3C30.1803 43.3 29.7003 43.24 29.3203 43.1C27.6003 42.52 24.8203 41.1 22.2803 38.84C19.3203 36.22 15.7803 31.78 15.7803 25.48C15.7803 20.52 19.7803 16.5 24.7003 16.5C26.9403 16.5 29.0402 17.32 30.6602 18.78C33.1802 16.52 37.0202 15.88 40.1802 17.26C43.4202 18.7 45.5203 21.94 45.5203 25.5C45.5203 34.98 37.2003 41.34 31.9603 43.12C31.5603 43.24 31.1003 43.3 30.6403 43.3ZM24.6802 19.5C21.4202 19.5 18.7603 22.18 18.7603 25.48C18.7603 30.68 21.7403 34.38 24.2603 36.6C26.4803 38.56 28.8203 39.78 30.2803 40.26C30.4403 40.32 30.8203 40.32 30.9603 40.26C33.9603 39.24 42.5002 34.34 42.5002 25.48C42.5002 23.1 41.1003 20.94 38.9603 20C36.5403 18.94 33.4403 19.74 31.8403 21.88C31.5603 22.26 31.0203 22.46 30.6403 22.48C30.1603 22.48 29.7202 22.26 29.4402 21.88C28.3002 20.36 26.5602 19.5 24.6802 19.5Z" fill="#24C8CA"/>
</svg>
