<svg width="24" height="24" viewBox="0 0 24 24" xmlns="http://www.w3.org/2000/svg">
<path d="M21 10.9997H2.99999C2.44771 10.9997 1.99999 11.4474 1.99999 11.9997C1.99999 12.552 2.44771 12.9997 2.99999 12.9997H21C21.5523 12.9997 22 12.552 22 11.9997C22 11.4474 21.5523 10.9997 21 10.9997Z"/>
<path d="M21 4.00031H2.99999C2.44771 4.00031 1.99999 4.44802 1.99999 5.0003C1.99999 5.55259 2.44771 6.0003 2.99999 6.0003H21C21.5523 6.0003 22 5.55259 22 5.0003C22 4.44802 21.5523 4.00031 21 4.00031Z"/>
<path d="M21 18H2.99999C2.44771 18 1.99999 18.4477 1.99999 19C1.99999 19.5523 2.44771 20 2.99999 20H21C21.5523 20 22 19.5523 22 19C22 18.4477 21.5523 18 21 18Z"/>
</svg>
