<svg width="32" height="32" viewBox="0 0 32 32" xmlns="http://www.w3.org/2000/svg">
<path d="M15.9998 30.4132C15.0798 30.4132 14.2132 29.9465 13.5998 29.1332L11.5998 26.4665C11.5598 26.4132 11.3998 26.3465 11.3332 26.3332H10.6665C5.1065 26.3332 1.6665 24.8265 1.6665 17.3332V10.6665C1.6665 4.77317 4.77317 1.6665 10.6665 1.6665H21.3332C27.2265 1.6665 30.3332 4.77317 30.3332 10.6665V17.3332C30.3332 23.2265 27.2265 26.3332 21.3332 26.3332H20.6665C20.5598 26.3332 20.4665 26.3865 20.3998 26.4665L18.3998 29.1332C17.7865 29.9465 16.9198 30.4132 15.9998 30.4132ZM10.6665 3.6665C5.89317 3.6665 3.6665 5.89317 3.6665 10.6665V17.3332C3.6665 23.3598 5.73317 24.3332 10.6665 24.3332H11.3332C12.0132 24.3332 12.7865 24.7198 13.1998 25.2665L15.1998 27.9332C15.6665 28.5465 16.3332 28.5465 16.7998 27.9332L18.7998 25.2665C19.2398 24.6798 19.9332 24.3332 20.6665 24.3332H21.3332C26.1065 24.3332 28.3332 22.1065 28.3332 17.3332V10.6665C28.3332 5.89317 26.1065 3.6665 21.3332 3.6665H10.6665Z"/>
</svg>
