<svg width="32" height="32" viewBox="0 0 32 32" xmlns="http://www.w3.org/2000/svg">
<path d="M25.493 12.1591C24.973 12.1591 24.5597 12.5725 24.5597 13.0925V15.1992C24.5597 19.9192 20.7197 23.7592 15.9997 23.7592C11.2797 23.7592 7.43966 19.9192 7.43966 15.1992V13.0791C7.43966 12.5591 7.02633 12.1458 6.50633 12.1458C5.98633 12.1458 5.573 12.5591 5.573 13.0791V15.1858C5.573 20.6125 9.74633 25.0792 15.0663 25.5592V28.3992C15.0663 28.9192 15.4797 29.3325 15.9997 29.3325C16.5197 29.3325 16.933 28.9192 16.933 28.3992V25.5592C22.2397 25.0925 26.4263 20.6125 26.4263 15.1858V13.0791C26.413 12.5725 25.9997 12.1591 25.493 12.1591Z"/>
<path d="M15.9976 2.66669C12.7443 2.66669 10.1042 5.30669 10.1042 8.56002V15.3867C10.1042 18.64 12.7443 21.28 15.9976 21.28C19.2509 21.28 21.8909 18.64 21.8909 15.3867V8.56002C21.8909 5.30669 19.2509 2.66669 15.9976 2.66669ZM17.7442 11.9334C17.6509 12.28 17.3442 12.5067 16.9976 12.5067C16.9309 12.5067 16.8642 12.4934 16.7976 12.48C16.2776 12.3334 15.7309 12.3334 15.2109 12.48C14.7842 12.6 14.3709 12.3467 14.2642 11.9334C14.1442 11.52 14.3976 11.0934 14.8109 10.9867C15.5976 10.7734 16.4242 10.7734 17.2109 10.9867C17.6109 11.0934 17.8509 11.52 17.7442 11.9334ZM18.4509 9.34669C18.3309 9.66669 18.0376 9.85335 17.7176 9.85335C17.6242 9.85335 17.5442 9.84002 17.4509 9.81335C16.5176 9.46669 15.4776 9.46669 14.5442 9.81335C14.1442 9.96002 13.6909 9.74669 13.5442 9.34669C13.3976 8.94669 13.6109 8.49335 14.0109 8.36002C15.2909 7.89335 16.7042 7.89335 17.9842 8.36002C18.3842 8.50669 18.5976 8.94669 18.4509 9.34669Z"/>
</svg>
