<svg width="24" height="24" viewBox="0 0 24 24" xmlns="http://www.w3.org/2000/svg">
<path d="M21 5.25H14C13.59 5.25 13.25 4.91 13.25 4.5C13.25 4.09 13.59 3.75 14 3.75H21C21.41 3.75 21.75 4.09 21.75 4.5C21.75 4.91 21.41 5.25 21 5.25Z"/>
<path d="M21 10.25H14C13.59 10.25 13.25 9.91 13.25 9.5C13.25 9.09 13.59 8.75 14 8.75H21C21.41 8.75 21.75 9.09 21.75 9.5C21.75 9.91 21.41 10.25 21 10.25Z"/>
<path d="M21 15.25H14C13.59 15.25 13.25 14.91 13.25 14.5C13.25 14.09 13.59 13.75 14 13.75H21C21.41 13.75 21.75 14.09 21.75 14.5C21.75 14.91 21.41 15.25 21 15.25Z"/>
<path d="M21 20.25H14C13.59 20.25 13.25 19.91 13.25 19.5C13.25 19.09 13.59 18.75 14 18.75H21C21.41 18.75 21.75 19.09 21.75 19.5C21.75 19.91 21.41 20.25 21 20.25Z"/>
<path d="M6.75595 4.42401C6.67595 5.99201 6.63595 7.24001 6.63595 8.16801C6.63595 8.64801 6.64795 9.10401 6.67195 9.53601C6.73595 9.58401 6.85995 9.60801 7.04395 9.60801L7.31995 9.59601C7.43195 9.58001 7.53595 9.57201 7.63195 9.57201C7.83995 9.57201 7.99995 9.60801 8.11195 9.68001C8.23195 9.75201 8.29195 9.89201 8.29195 10.1C8.29195 10.3 8.23195 10.456 8.11195 10.568C7.99995 10.68 7.76395 10.736 7.40395 10.736C7.09995 10.736 6.73195 10.712 6.29995 10.664C6.19595 10.656 6.09595 10.648 5.99995 10.64C5.90395 10.632 5.81595 10.628 5.73595 10.628C5.29595 10.636 4.96795 10.652 4.75195 10.676C4.53595 10.7 4.29195 10.712 4.01995 10.712C3.77195 10.712 3.64795 10.524 3.64795 10.148C3.64795 9.78801 3.87995 9.60801 4.34395 9.60801C4.41595 9.60801 4.53195 9.61601 4.69195 9.63201C4.82795 9.65601 4.97195 9.66801 5.12395 9.66801C5.21195 9.66801 5.28395 9.66401 5.33995 9.65601C5.34795 9.12001 5.37595 8.34001 5.42395 7.31601C5.47195 6.11601 5.49595 5.22801 5.49595 4.65201C5.45595 4.66001 5.31595 4.71601 5.07595 4.82001C4.70795 5.00401 4.43595 5.09601 4.25995 5.09601C4.16395 5.09601 4.07595 5.04801 3.99595 4.95201C3.91595 4.84801 3.87595 4.72801 3.87595 4.59201C3.87595 4.45601 3.95995 4.32401 4.12795 4.19601C4.29595 4.06801 4.56795 3.90001 4.94395 3.69201C5.15195 3.58801 5.35195 3.47201 5.54395 3.34401C5.59195 3.31201 5.65995 3.28001 5.74795 3.24801C5.84395 3.21601 5.91595 3.20001 5.96395 3.20001C6.17195 3.20001 6.35995 3.24401 6.52795 3.33201C6.70395 3.41201 6.79195 3.52001 6.79195 3.65601L6.75595 4.42401Z"/>
<path d="M5.29197 19.464C5.56396 19.48 5.74396 19.488 5.83196 19.488C6.10396 19.488 6.34396 19.484 6.55196 19.476C6.76796 19.468 6.95196 19.46 7.10396 19.452C7.49597 19.428 7.84797 19.416 8.15997 19.416C8.46397 19.416 8.68796 19.496 8.83196 19.656C8.97596 19.816 9.04797 20.028 9.04797 20.292C9.04797 20.42 8.96396 20.524 8.79596 20.604C8.62796 20.676 8.45596 20.712 8.27996 20.712C8.12796 20.712 7.81197 20.696 7.33197 20.664C6.75596 20.616 6.30396 20.592 5.97597 20.592C5.79997 20.592 5.59196 20.604 5.35196 20.628C5.25596 20.636 5.13996 20.644 5.00396 20.652C4.86796 20.66 4.71596 20.664 4.54796 20.664C4.22796 20.664 3.98396 20.62 3.81596 20.532C3.64796 20.444 3.56396 20.284 3.56396 20.052C3.56396 19.852 3.64396 19.648 3.80396 19.44C3.96396 19.232 4.18796 18.984 4.47596 18.696L4.76396 18.408C4.89196 18.272 5.12796 18.04 5.47196 17.712C6.03996 17.2 6.47996 16.748 6.79197 16.356C7.11196 15.964 7.27196 15.576 7.27196 15.192C7.27196 14.944 7.15196 14.744 6.91196 14.592C6.67997 14.432 6.41196 14.352 6.10796 14.352C5.64396 14.352 5.30796 14.456 5.09996 14.664C4.89996 14.864 4.79996 15.156 4.79996 15.54C4.79996 15.636 4.74396 15.724 4.63196 15.804C4.52796 15.876 4.39596 15.912 4.23596 15.912C4.01196 15.912 3.85596 15.832 3.76796 15.672C3.67996 15.512 3.63596 15.316 3.63596 15.084C3.63596 14.716 3.74796 14.392 3.97196 14.112C4.19596 13.824 4.49996 13.6 4.88396 13.44C5.27596 13.28 5.70797 13.2 6.17997 13.2C6.51596 13.2 6.86397 13.284 7.22397 13.452C7.59197 13.612 7.89597 13.832 8.13597 14.112C8.38397 14.384 8.50797 14.684 8.50797 15.012C8.50797 15.508 8.38397 15.98 8.13597 16.428C7.88797 16.876 7.59596 17.276 7.25996 17.628C6.93196 17.972 6.50397 18.38 5.97597 18.852C5.71996 19.068 5.49196 19.272 5.29197 19.464Z"/>
</svg>
