<svg width="322" height="58" viewBox="0 0 322 58" fill="none" xmlns="http://www.w3.org/2000/svg">
<path d="M3.97714 13.096C10.4731 14.5146 15.7558 16.792 19.8251 19.928C23.8945 23.0266 25.9105 27.2453 25.8731 32.584C25.8731 36.504 24.4545 39.4533 21.6171 41.432C18.8171 43.3733 15.2705 44.344 10.9771 44.344C7.24381 44.344 4.46248 43.56 2.63314 41.992C0.841143 40.424 -0.0361904 38.2586 0.00114285 35.496C0.00114285 33.3306 0.430476 31.0533 1.28914 28.664C2.18514 26.2746 3.43581 23.8666 5.04114 21.44C3.54104 21.0649 2.60672 19.5701 2.92693 18.0573L3.97714 13.096ZM11.6491 35.496C13.6651 35.496 15.3451 35.2346 16.6891 34.712C18.0705 34.1893 18.7611 33.536 18.7611 32.752C18.7611 28.9813 16.0918 25.8826 10.7531 23.456C9.63314 24.9866 8.71848 26.5173 8.00914 28.048C7.33714 29.5413 7.00114 30.8666 7.00114 32.024C7.00114 33.2933 7.33714 34.1893 8.00914 34.712C8.71848 35.2346 9.93181 35.496 11.6491 35.496Z" fill="#42494D"/>
<path d="M39.4755 44.568C36.3395 44.568 33.9875 43.8213 32.4195 42.328C30.8515 40.7973 30.0675 38.6693 30.0675 35.944C30.0675 33.7786 30.6088 30.7546 31.6915 26.872L32.9771 27.1591C35.4562 27.7126 36.7875 30.1559 36.7875 32.696C36.7875 33.6666 37.0675 34.376 37.6275 34.824C38.2248 35.272 39.1021 35.496 40.2595 35.496C42.0141 35.496 43.7315 35.3466 45.4115 35.048C47.0915 34.712 48.1928 34.2266 48.7155 33.592C48.9395 33.2933 49.0515 33.0133 49.0515 32.752C49.0515 29.9408 47.9405 27.1431 45.7187 24.3589C42.9176 20.8491 41.8969 15.9435 44.4595 12.256C48.8648 15.7653 51.9075 19.144 53.5875 22.392C55.3048 25.6026 56.1635 28.9813 56.1635 32.528C56.1635 36.56 54.6701 39.584 51.6835 41.6C48.6968 43.616 44.6275 44.6053 39.4755 44.568Z" fill="#42494D"/>
<path d="M61.2695 2.00797C65.3972 1.55931 69.0024 4.78949 69.0079 8.94148L69.0535 43C65.1209 43.3327 61.7328 40.2569 61.685 36.3105L61.2695 2.00797Z" fill="#42494D"/>
<path d="M70.0506 57.672C69.896 53.4677 73.2673 50.1901 77.2931 48.9685C78.8973 48.4818 80.2165 47.8363 81.2506 47.032C83.6399 45.2026 84.8346 42.496 84.8346 38.912C84.8346 37.1946 84.5546 35.1973 83.9946 32.92C83.9479 32.7268 83.8992 32.5299 83.8485 32.3292C82.6934 27.7503 84.77 22.8981 89.0906 20.992C90.1359 24.576 90.9386 27.712 91.4986 30.4C92.0586 33.0506 92.3386 35.4773 92.3386 37.68C92.3386 43.952 90.6586 48.8613 87.2986 52.408C83.9386 55.9546 78.8239 57.728 71.9546 57.728C71.0959 57.728 70.4613 57.7093 70.0506 57.672Z" fill="#42494D"/>
<path d="M92.91 57.672C92.7554 53.4677 96.1266 50.1901 100.153 48.9685C101.757 48.4818 103.076 47.8363 104.11 47.032C106.499 45.2026 107.694 42.496 107.694 38.912C107.694 37.1946 107.414 35.1973 106.854 32.92C106.807 32.7268 106.759 32.5299 106.708 32.3292C105.553 27.7503 107.629 22.8981 111.95 20.992C112.995 24.576 113.798 27.712 114.358 30.4C114.918 33.0506 115.198 35.4773 115.198 37.68C115.198 43.952 113.518 48.8613 110.158 52.408C106.798 55.9546 101.683 57.728 94.814 57.728C93.9553 57.728 93.3206 57.7093 92.91 57.672Z" fill="#42494D"/>
<path d="M120.82 56.8633C120.686 53.144 123.658 49.8369 127.364 49.5C130.068 49.2541 131.365 48.712 134.015 47.368C136.703 46.024 138.383 44.0266 139.055 41.376C136.778 42.4586 134.239 43 131.439 43C127.781 43 125.093 42.1226 123.375 40.368C121.658 38.6133 120.799 35.9813 120.799 32.472C120.799 29.336 121.266 26.536 122.199 24.072C123.133 21.608 124.495 19.6666 126.287 18.248C128.117 16.8293 130.319 16.12 132.895 16.12C137.375 16.12 140.81 18.0053 143.199 21.776C145.626 25.5093 146.839 30.6986 146.839 37.344C146.839 42.0853 145.999 45.912 144.319 48.824C142.639 51.736 140.119 53.9013 136.759 55.32C133.399 56.7386 129.069 57.5973 123.767 57.896L120.855 57.84L120.82 56.8633ZM127.967 30.792C127.967 32.0613 128.303 32.9013 128.975 33.312C129.685 33.6853 130.767 33.872 132.223 33.872C134.613 33.872 136.909 33.5546 139.111 32.92C138.775 30.456 138.085 28.4586 137.039 26.928C135.994 25.36 134.575 24.576 132.783 24.576C131.178 24.576 129.965 25.2106 129.143 26.48C128.359 27.712 127.967 29.1493 127.967 30.792Z" fill="#42494D"/>
<path d="M148.363 57.672C148.209 53.4677 151.58 50.1901 155.606 48.9685C157.21 48.4818 158.529 47.8363 159.563 47.032C161.952 45.2026 163.147 42.496 163.147 38.912C163.147 37.1946 162.867 35.1973 162.307 32.92C162.26 32.7268 162.212 32.5299 162.161 32.3292C161.006 27.7503 163.083 22.8981 167.403 20.992C168.448 24.576 169.251 27.712 169.811 30.4C170.371 33.0506 170.651 35.4773 170.651 37.68C170.651 43.952 168.971 48.8613 165.611 52.408C162.251 55.9546 157.136 57.728 150.267 57.728C149.408 57.728 148.774 57.7093 148.363 57.672Z" fill="#42494D"/>
<path d="M203.86 33.872C205.092 33.872 206.138 34.32 206.996 35.216C207.855 36.112 208.284 37.176 208.284 38.408C208.284 39.64 207.855 40.7226 206.996 41.656C206.138 42.552 205.092 43 203.86 43H201.788C200.892 47.928 198.615 51.5493 194.956 53.864C191.335 56.1786 186.183 57.4853 179.5 57.784C178.828 57.8213 177.764 57.8026 176.308 57.728L176.26 56.4117C176.13 52.8502 178.814 49.8115 182.364 49.5C185.364 49 186.183 48.992 188.684 47.872C191.186 46.7893 192.922 45.1653 193.892 43H186.948C183.29 43 180.583 42.1226 178.828 40.368C177.111 38.6133 176.252 35.9813 176.252 32.472C176.252 29.336 176.719 26.536 177.652 24.072C178.586 21.608 179.948 19.6666 181.74 18.248C183.57 16.8293 185.772 16.12 188.348 16.12C192.418 16.12 195.628 17.688 197.98 20.824C200.37 23.9226 201.77 28.272 202.18 33.872H203.86ZM183.42 30.792C183.42 32.0613 183.756 32.9013 184.428 33.312C185.138 33.6853 186.22 33.872 187.676 33.872H194.676C194.378 31.072 193.706 28.832 192.66 27.152C191.615 25.4346 190.14 24.576 188.236 24.576C186.631 24.576 185.418 25.2106 184.596 26.48C183.812 27.712 183.42 29.1493 183.42 30.792Z" fill="#42494D"/>
<path d="M212.364 8C210.799 6.76426 210.536 4.49169 211.777 2.93111L213.67 0.551974L213.894 0.495972L219.27 4.63997V4.86397L215.126 10.128L214.902 10.184L212.364 8ZM199.558 38.408C199.558 37.176 199.988 36.112 200.846 35.216C201.668 34.32 202.694 33.872 203.926 33.872H204.262C207.921 33.872 210.665 33.5173 212.494 32.808C214.361 32.0613 215.276 30.8853 215.238 29.28C215.238 28.0106 215.052 26.48 214.678 24.688C214.669 24.6396 214.659 24.5907 214.648 24.5412C213.719 20.0574 216.027 15.4881 220.334 13.936C221.156 17.744 221.697 20.656 221.958 22.672C222.257 24.688 222.406 26.8533 222.406 29.168C222.406 33.6853 220.857 37.12 217.758 39.472C214.697 41.824 210.236 43 204.374 43H203.926C202.694 43 201.668 42.552 200.846 41.656C199.988 40.7226 199.558 39.64 199.558 38.408Z" fill="#42494D"/>
<path d="M252.445 43C247.704 43 244.325 41.8053 242.309 39.416C240.331 37.0266 239.304 33.368 239.229 28.44L238.949 2.00797C243.078 1.5592 246.685 4.78841 246.694 8.94147L246.733 27.656C246.733 29.448 246.883 30.7733 247.181 31.632C247.517 32.4906 248.077 33.088 248.861 33.424C249.645 33.7226 250.84 33.872 252.445 33.872C253.64 33.872 254.667 34.32 255.525 35.216C256.384 36.112 256.813 37.176 256.813 38.408C256.813 39.64 256.365 40.7226 255.469 41.656C254.611 42.552 253.603 43 252.445 43Z" fill="#42494D"/>
<path d="M287.602 14.44C290.701 14.44 293.389 15.224 295.666 16.792C297.944 18.3226 299.661 20.488 300.818 23.288C302.013 26.088 302.554 29.2613 302.442 32.808C302.368 35.0106 301.285 36.896 299.194 38.464C297.141 39.9946 294.472 41.152 291.186 41.936C287.938 42.72 284.485 43.112 280.826 43.112C277.541 43.112 274.442 42.7573 271.53 42.048C268.656 41.3386 266.192 40.368 264.138 39.136C262.869 40.4426 261.301 41.4133 259.434 42.048C257.568 42.6826 255.234 43 252.434 43C251.202 43 250.176 42.552 249.354 41.656C248.496 40.7226 248.066 39.64 248.066 38.408C248.066 37.176 248.496 36.112 249.354 35.216C250.176 34.32 251.202 33.872 252.434 33.872C256.093 33.8346 258.482 33.088 259.602 31.632C260.013 31.1093 260.312 30.5866 260.498 30.064C260.685 29.504 260.872 28.552 261.058 27.208C261.347 24.757 263.422 22.8744 265.887 22.9875L267.554 23.064V25.976C267.554 27.1333 267.536 27.9733 267.498 28.496L267.33 31.352C268.6 31.8746 269.57 32.2293 270.242 32.416C272.072 26.144 274.386 21.5893 277.186 18.752C280.024 15.8773 283.496 14.44 287.602 14.44ZM295.218 30.904C295.256 30.8293 295.274 30.68 295.274 30.456C295.274 29.7093 295.162 28.944 294.938 28.16C294.752 27.376 294.472 26.6853 294.098 26.088C292.941 24.2586 290.794 23.344 287.658 23.344C285.344 23.344 283.197 24.128 281.218 25.696C279.24 27.264 277.746 29.9333 276.738 33.704C278.082 33.8533 279.52 33.928 281.05 33.928C284.784 33.928 287.994 33.648 290.682 33.088C293.408 32.528 294.92 31.8 295.218 30.904Z" fill="#42494D"/>
<path d="M299.082 57.672C298.927 53.4677 302.298 50.1901 306.324 48.9686C307.929 48.4818 309.248 47.8363 310.282 47.032C312.671 45.2026 313.866 42.496 313.866 38.912C313.866 37.1946 313.586 35.1973 313.026 32.92C312.779 31.9015 312.479 30.7782 312.124 29.55C311.267 26.5829 312.661 23.4011 315.487 22.1544L318.122 20.992C319.167 24.576 319.97 27.712 320.53 30.4C321.09 33.0506 321.37 35.4773 321.37 37.68C321.37 43.952 319.69 48.8613 316.33 52.408C312.97 55.9546 307.855 57.728 300.986 57.728C300.127 57.728 299.492 57.7093 299.082 57.672Z" fill="#42494D"/>
<path d="M283.864 0.551974L281.971 2.93111C280.729 4.49169 280.992 6.76426 282.557 8L285.096 10.184L285.32 10.128L289.464 4.86397V4.63997L284.088 0.495972L283.864 0.551974Z" fill="#42494D"/>
<path d="M106.132 7.71997L104.239 10.0991C102.997 11.6597 103.26 13.9323 104.825 15.168L107.364 17.352L107.588 17.296L111.732 12.032V11.808L106.356 7.66397L106.132 7.71997Z" fill="#42494D"/>
<path d="M83.364 7.71994L81.4709 10.0991C80.2291 11.6597 80.4921 13.9322 82.0574 15.168L84.5959 17.3519L84.8199 17.2959L88.964 12.0319V11.8079L83.588 7.66394L83.364 7.71994Z" fill="#42494D"/>
</svg>
