<svg width="24" height="24" viewBox="0 0 24 24" fill="none" xmlns="http://www.w3.org/2000/svg">
<path fill-rule="evenodd" clip-rule="evenodd" d="M18.9998 8.75C17.9254 8.75 16.956 8.29742 16.2722 7.57264C16.2576 7.5825 16.2426 7.59189 16.2272 7.6008L8.61399 11.9963C8.70263 12.3158 8.75 12.6524 8.75 13C8.75 13.2004 8.73425 13.3971 8.70393 13.5891L15.8721 16.9316C16.5437 15.9185 17.6943 15.25 19 15.25C21.07 15.25 22.75 16.93 22.75 19C22.75 21.07 21.07 22.75 19 22.75C16.93 22.75 15.25 21.07 15.25 19C15.25 18.7695 15.2708 18.5439 15.3107 18.3249L8.17404 14.997C7.5098 16.05 6.33615 16.75 5 16.75C2.93 16.75 1.25 15.07 1.25 13C1.25 10.93 2.93 9.25 5 9.25C6.18491 9.25 7.24203 9.80048 7.92941 10.6595L15.4772 6.30176L15.4813 6.29942C15.3316 5.8945 15.2498 5.45675 15.2498 5C15.2498 2.93 16.9298 1.25 18.9998 1.25C21.0698 1.25 22.7498 2.93 22.7498 5C22.7498 7.07 21.0698 8.75 18.9998 8.75ZM18.9998 2.75C17.7598 2.75 16.7498 3.76 16.7498 5C16.7498 6.24 17.7598 7.25 18.9998 7.25C20.2398 7.25 21.2498 6.24 21.2498 5C21.2498 3.76 20.2398 2.75 18.9998 2.75ZM2.75 13C2.75 11.76 3.76 10.75 5 10.75C6.24 10.75 7.25 11.76 7.25 13C7.25 14.24 6.24 15.25 5 15.25C3.76 15.25 2.75 14.24 2.75 13ZM16.75 19C16.75 17.76 17.76 16.75 19 16.75C20.24 16.75 21.25 17.76 21.25 19C21.25 20.24 20.24 21.25 19 21.25C17.76 21.25 16.75 20.24 16.75 19Z" fill="#848B91"/>
</svg>
