<svg width="48" height="48" viewBox="0 0 48 48" fill="none" xmlns="http://www.w3.org/2000/svg">
<path fill-rule="evenodd" clip-rule="evenodd" d="M28.2787 23.3851L28.2891 23.3877L36.0952 24.9889L36.0974 24.9894C38.7931 25.5675 41.09 26.9108 42.813 29.0166C44.5462 31.135 45.5 33.625 45.5 36.3C45.5 38.3735 44.7489 40.2373 43.4582 41.5347C41.9424 42.856 40.0622 43.6 38.2 43.6L10 43.6C8.16629 43.6 6.28664 42.6796 4.75355 41.1465L4.74178 41.1347L4.72925 41.1237C3.25243 39.8315 2.5 37.9765 2.5 35.9V12.55C2.5 11.0622 3.06262 9.36259 4.00687 8.04065C4.93064 6.74736 6.42402 5.80942 7.92127 5.4351L7.93068 5.43275L17.5305 2.63282C18.2477 2.45501 18.9614 2.45577 19.6787 2.6351C20.418 2.81993 21.1717 3.1949 21.5764 3.39724C22.2796 3.74886 22.8012 4.2704 23.1528 4.97364C23.5179 5.7039 23.7065 6.43825 23.904 7.22747L24.7001 19.5169C24.7056 20.4734 25.1802 21.3873 25.8464 22.0536C26.5223 22.7294 27.4085 23.1675 28.2787 23.3851ZM23.6743 32.5419C23.5396 32.1375 23.6636 31.6958 23.8403 31.3375L26.942 26.0203L26.3581 25.8257C25.8342 25.651 25.2925 25.2941 24.6774 24.884L24.4141 24.7085L19.1895 27.8432C19.1238 27.8653 19.0628 27.8862 19.0055 27.9058C18.5314 28.0681 18.3235 28.1393 17.9883 28.0354C17.8253 27.9561 17.6835 27.902 17.5843 27.8642C17.5562 27.8535 17.5315 27.8441 17.5107 27.8358C17.4122 27.7964 17.3841 27.777 17.3536 27.7464L16.8703 27.2632C16.8639 27.2353 16.8573 27.2097 16.8511 27.1872C16.8287 27.1049 16.8 27.0188 16.7764 26.9481L16.7743 26.9419C16.7483 26.8637 16.728 26.8025 16.7136 26.7497C16.7033 26.7118 16.7006 26.6933 16.7 26.6905V26.0227C16.7841 25.8684 16.8955 25.6917 17.0197 25.532C17.1802 25.3256 17.3246 25.1967 17.4236 25.1472L17.4422 25.1379L22.4004 22.1199L22.2743 21.7419C22.0687 21.1251 21.9 20.6042 21.9 20.1V19.6H16C15.7583 19.6 15.5793 19.5603 15.4281 19.4931C15.2747 19.4249 15.124 19.3169 14.9536 19.1465C14.7831 18.976 14.6751 18.8254 14.6069 18.6719C14.5397 18.5207 14.5 18.3417 14.5 18.1C14.5 17.8583 14.5397 17.6793 14.6069 17.5281C14.6751 17.3747 14.7831 17.224 14.9536 17.0536C15.124 16.8831 15.2747 16.7751 15.4281 16.7069C15.5793 16.6397 15.7583 16.6 16 16.6H21.3245L20.9 7.73703C20.8956 7.16287 20.6047 6.64757 20.1536 6.19648C19.9677 6.01066 19.6743 5.88108 19.4331 5.80069C19.1752 5.71472 18.87 5.65003 18.6 5.65003H18.1321L8.6724 8.26655C7.74006 8.50195 7.05609 9.18641 6.48727 9.75563L6.44645 9.79648C5.70536 10.5376 5.5 11.7041 5.5 12.55V36.1C5.5 37.2368 5.95567 38.3628 6.84645 39.2536C7.73722 40.1443 8.86322 40.6 10 40.6H38.4C39.5681 40.6 40.4866 39.9106 41.2476 39.3394L41.3 39.3C42.2518 38.5862 42.7 37.422 42.7 36.3C42.7 34.3915 42.0641 32.4732 40.7796 30.9746C39.5136 29.4976 37.8205 28.4368 35.9085 28.0119L29.9416 26.7333L26.5401 32.8985L26.5257 32.9419C26.4556 33.152 26.3632 33.2651 26.25 33.35C26.1193 33.448 25.9362 33.5275 25.6419 33.6257C25.2886 33.7434 25.0827 33.6729 24.5945 33.5058C24.5223 33.4811 24.444 33.4543 24.3581 33.4257C24.148 33.3556 24.0349 33.2632 23.95 33.15C23.852 33.0193 23.7725 32.8362 23.6743 32.5419Z" fill="#24C8CA"/>
</svg>
