<svg width="24" height="24" viewBox="0 0 24 24" xmlns="http://www.w3.org/2000/svg">
<path d="M21 6.72998C20.98 6.72998 20.95 6.72998 20.92 6.72998C15.63 6.19998 10.35 5.99998 5.12001 6.52998L3.08001 6.72998C2.66001 6.76998 2.29001 6.46998 2.25001 6.04998C2.21001 5.62998 2.51001 5.26998 2.92001 5.22998L4.96001 5.02998C10.28 4.48998 15.67 4.69998 21.07 5.22998C21.48 5.26998 21.78 5.63998 21.74 6.04998C21.71 6.43998 21.38 6.72998 21 6.72998Z"/>
<path d="M8.49999 5.72C8.45999 5.72 8.41999 5.72 8.36999 5.71C7.96999 5.64 7.68999 5.25 7.75999 4.85L7.97999 3.54C8.13999 2.58 8.35999 1.25 10.69 1.25H13.31C15.65 1.25 15.87 2.63 16.02 3.55L16.24 4.85C16.31 5.26 16.03 5.65 15.63 5.71C15.22 5.78 14.83 5.5 14.77 5.1L14.55 3.8C14.41 2.93 14.38 2.76 13.32 2.76H10.7C9.63999 2.76 9.61999 2.9 9.46999 3.79L9.23999 5.09C9.17999 5.46 8.85999 5.72 8.49999 5.72Z"/>
<path d="M15.21 22.7501H8.79001C5.30001 22.7501 5.16001 20.8201 5.05001 19.2601L4.40001 9.19007C4.37001 8.78007 4.69001 8.42008 5.10001 8.39008C5.52001 8.37008 5.87001 8.68008 5.90001 9.09008L6.55001 19.1601C6.66001 20.6801 6.70001 21.2501 8.79001 21.2501H15.21C17.31 21.2501 17.35 20.6801 17.45 19.1601L18.1 9.09008C18.13 8.68008 18.49 8.37008 18.9 8.39008C19.31 8.42008 19.63 8.77007 19.6 9.19007L18.95 19.2601C18.84 20.8201 18.7 22.7501 15.21 22.7501Z"/>
</svg>
