<svg width="24" height="24" viewBox="0 0 24 24" xmlns="http://www.w3.org/2000/svg">
<path fill-rule="evenodd" clip-rule="evenodd" d="M12 6C9.46771 6 7.42 8.04774 7.42 10.58C7.42 13.1086 9.46405 15.17 12 15.17C14.5359 15.17 16.58 13.1086 16.58 10.58C16.58 8.04774 14.5323 6 12 6ZM9.42 10.58C9.42 9.1523 10.5723 8 12 8C13.4277 8 14.58 9.1523 14.58 10.58C14.58 12.0113 13.4242 13.17 12 13.17C10.5758 13.17 9.42 12.0113 9.42 10.58Z"/>
<path fill-rule="evenodd" clip-rule="evenodd" d="M9 1C6.40147 1 4.32223 1.51356 2.91789 2.91789C1.51356 4.32223 1 6.40147 1 9V15C1 16.9709 1.29364 18.6347 2.04323 19.9375C2.81559 21.2798 4.01116 22.1346 5.58184 22.5805C6.54189 22.8691 7.6668 23 9.00014 23H15.0001C16.3352 23 17.4613 22.8687 18.4222 22.5794L18.4263 22.5782C19.9929 22.1317 21.1858 21.2774 21.9568 19.9375C22.7064 18.6347 23 16.9709 23 15V9C23 6.40147 22.4864 4.32223 21.0821 2.91789C19.6778 1.51356 17.5985 1 15 1H9ZM15.1987 18.838C16.0449 19.3644 16.6545 20.082 16.9508 20.8648C16.3794 20.9565 15.7361 21 15.0001 21H9.00014C8.2641 21 7.62067 20.9565 7.04925 20.8648C7.34215 20.0908 7.94135 19.3806 8.77285 18.8558C9.6586 18.3026 10.7836 17.97 12 17.97C13.2415 17.97 14.3394 18.3035 15.1987 18.838ZM12.0001 15.97C11.6529 15.97 11.3107 15.9911 10.9755 16.0319C8.28475 16.3589 5.93556 17.9647 5.13504 20.2615C4.53704 19.9373 4.09933 19.5007 3.77677 18.94C3.27637 18.0703 3 16.8092 3 15V9C3 6.59875 3.48635 5.17787 4.33211 4.33211C5.17787 3.48635 6.59875 3 9 3H15C17.4012 3 18.8221 3.48635 19.6679 4.33211C20.5137 5.17787 21 6.59875 21 9V15C21 16.8092 20.7236 18.0703 20.2232 18.94C19.9007 19.5007 19.463 19.9373 18.865 20.2615C17.965 17.679 15.1092 15.97 12.0001 15.97Z"/>
</svg>
